SplineFontDB: 1.0
FontName: THBaijam-Italic
FullName: THBaijam-Italic
FamilyName: TH Baijam
Weight: Book
Copyright: Copyright (c) 2006 by Department of Intellectual Property (DIP), Ministry of Commerce and Software Industry Promotion Agency (Public Organization) (SIPA). All rights reserved.
Version: 1.1
ItalicAngle: -12
UnderlinePosition: -35
UnderlineWidth: 30
Ascent: 800
Descent: 200
Order2: 1
XUID: [1021 375 425136265 11004461]
FSType: 0
OS2Version: 3
OS2_WeightWidthSlopeOnly: 0
OS2_UseTypoMetrics: 1
CreationTime: 1154328750
ModificationTime: 1174462254
PfmFamily: 17
TTFWeight: 400
TTFWidth: 5
LineGap: 60
VLineGap: 0
Panose: 2 0 5 6 0 0 0 2 0 4
OS2TypoAscent: 0
OS2TypoAOffset: 1
OS2TypoDescent: 0
OS2TypoDOffset: 1
OS2TypoLinegap: 0
OS2WinAscent: 0
OS2WinAOffset: 1
OS2WinDescent: -108
OS2WinDOffset: 1
HheadAscent: 0
HheadAOffset: 1
HheadDescent: 108
HheadDOffset: 1
OS2SubXSize: 700
OS2SubYSize: 650
OS2SubXOff: 0
OS2SubYOff: 140
OS2SupXSize: 700
OS2SupYSize: 650
OS2SupXOff: 0
OS2SupYOff: 477
OS2StrikeYSize: 30
OS2StrikeYPos: 250
OS2FamilyClass: 773
OS2Vendor: 'IPTH'
ScriptLang: 2
 1 latn 1 dflt 
 0 
ChainSub: coverage 0 0 'liga' 0 0 0 1
 1 0 1
  Coverage: 64 uni0E48.alt2 uni0E49.alt2 uni0E4A.alt2 uni0E4B.alt2 uni0E4C.alt2
  FCoverage: 7 uni0E33
 1
  SeqLookup: 0 'L027'
EndFPST
ChainSub: coverage 0 0 'liga' 0 0 0 1
 1 1 0
  Coverage: 7 uni0E47
  BCoverage: 12 uni0E2C.alt1
 1
  SeqLookup: 0 'L026'
EndFPST
ChainSub: coverage 0 0 'liga' 0 0 0 1
 1 0 1
  Coverage: 7 uni0E2C
  FCoverage: 39 uni0E34 uni0E35 uni0E36 uni0E37 uni0E47
 1
  SeqLookup: 0 'L026'
EndFPST
ChainSub: coverage 0 0 'liga' 0 0 0 1
 1 0 1
  Coverage: 15 uni0E0E uni0E0F
  FCoverage: 38 uni0E38.alt1 uni0E39.alt1 uni0E3A.alt1
 1
  SeqLookup: 0 'L026'
EndFPST
ChainSub: coverage 0 0 'liga' 0 0 0 1
 1 1 0
  Coverage: 5 a b c
  BCoverage: 23 uni0E1B uni0E1D uni0E1F
 1
  SeqLookup: 0 'L026'
EndFPST
ChainSub: coverage 0 0 'liga' 0 0 0 1
 1 0 1
  Coverage: 5 a b c

StartChar: .notdef
Encoding: 65536 -1 0
Width: 500
Flags: W
Fore
397 53 m 1,0,-1
 523 646 l 1,1,-1
 249 646 l 1,2,-1
 123 53 l 1,3,-1
 397 53 l 1,0,-1
436 0 m 1,4,-1
 63 0 l 1,5,-1
 210 695 l 1,6,-1
 583 695 l 1,7,-1
 436 0 l 1,4,-1
EndSplineSet
EndChar
StartChar: numbersign
Encoding: 35 35 4
Width: 437
Flags: W
Fore
315 132 m 1,0,-1
 187 132 l 1,1,-1
 159 0 l 1,2,-1
 117 0 l 1,3,-1
 145 132 l 1,4,-1
 66 132 l 1,5,-1
 74 174 l 1,6,-1
 153 174 l 1,7,-1
 183 312 l 1,8,-1
 104 312 l 1,9,-1
 113 354 l 1,10,-1
 192 354 l 1,11,-1
 217 475 l 1,12,-1
 259 475 l 1,13,-1
 234 354 l 1,14,-1
 362 354 l 1,15,-1
 387 475 l 1,16,-1
 429 475 l 1,17,-1
 404 354 l 1,18,-1
 476 354 l 1,19,-1
 467 312 l 1,20,-1
 395 312 l 1,21,-1
 365 174 l 1,22,-1
 437 174 l 1,23,-1
 429 132 l 1,24,-1
 357 132 l 1,25,-1
 329 0 l 1,26,-1
 287 0 l 1,27,-1
 315 132 l 1,0,-1
195 174 m 1,28,-1
 323 174 l 1,29,-1
 353 312 l 1,30,-1
 225 312 l 1,31,-1
 195 174 l 1,28,-1
EndSplineSet
EndChar
StartChar: dollar
Encoding: 36 36 5
Width: 363
Flags: W
Fore
167 0 m 1,0,-1
 129 0 l 2,1,2
 82 0 82 0 55.5 27 c 128,-1,3
 29 54 29 54 39 101 c 1,4,-1
 84 101 l 1,5,6
 78 74 78 74 94.5 59.5 c 128,-1,7
 111 45 111 45 138 45 c 2,8,-1
 176 45 l 1,9,-1
 215 226 l 1,10,-1
 165 250 l 2,11,12
 143 260 143 260 130.5 273 c 128,-1,13
 118 286 118 286 112.5 300 c 128,-1,14
 107 314 107 314 107 330 c 128,-1,15
 107 346 107 346 110 362 c 0,16,17
 115 387 115 387 129.5 407.5 c 128,-1,18
 144 428 144 428 164 443 c 128,-1,19
 184 458 184 458 207.5 466.5 c 128,-1,20
 231 475 231 475 254 475 c 2,21,-1
 267 475 l 1,22,-1
 278 525 l 1,23,-1
 320 525 l 1,24,-1
 309 475 l 1,25,-1
 323 475 l 2,26,27
 370 475 370 475 396.5 448 c 128,-1,28
 423 421 423 421 413 374 c 1,29,-1
 368 374 l 1,30,31
 374 401 374 401 357.5 415.5 c 128,-1,32
 341 430 341 430 314 430 c 2,33,-1
 300 430 l 1,34,-1
 262 253 l 1,35,-1
 313 229 l 2,36,37
 335 218 335 218 347.5 207 c 128,-1,38
 360 196 360 196 366 182.5 c 128,-1,39
 372 169 372 169 372 153.5 c 128,-1,40
 372 138 372 138 368 119 c 0,41,42
 363 98 363 98 349.5 76.5 c 128,-1,43
 336 55 336 55 316 38 c 128,-1,44
 296 21 296 21 272 10.5 c 128,-1,45
 248 0 248 0 223 0 c 2,46,-1
 209 0 l 1,47,-1
 197 -53 l 1,48,-1
 155 -53 l 1,49,-1
 167 0 l 1,0,-1
253 208 m 1,50,-1
 218 45 l 1,51,-1
 232 45 l 2,52,53
 241 45 241 45 255 51 c 128,-1,54
 269 57 269 57 283.5 67.5 c 128,-1,55
 298 78 298 78 309 91 c 128,-1,56
 320 104 320 104 323 118 c 0,57,58
 328 146 328 146 322.5 162 c 128,-1,59
 317 178 317 178 294 189 c 2,60,-1
 253 208 l 1,50,-1
156 363 m 0,61,62
 151 343 151 343 154 323 c 128,-1,63
 157 303 157 303 184 290 c 2,64,-1
 224 271 l 1,65,-1
 258 430 l 1,66,-1
 245 430 l 2,67,68
 231 430 231 430 216.5 425 c 128,-1,69
 202 420 202 420 189.5 411 c 128,-1,70
 177 402 177 402 168 389.5 c 128,-1,71
 159 377 159 377 156 363 c 0,61,62
EndSplineSet
EndChar
StartChar: percent
Encoding: 37 37 6
Width: 581
Flags: W
Fore
231 450 m 2,0,1
 216 450 216 450 201 443 c 128,-1,2
 186 436 186 436 173.5 424.5 c 128,-1,3
 161 413 161 413 152 398.5 c 128,-1,4
 143 384 143 384 140 369 c 2,5,-1
 122 285 l 2,6,7
 115 254 115 254 129.5 236 c 128,-1,8
 144 218 144 218 176 218 c 2,9,-1
 198 218 l 2,10,11
 230 218 230 218 257.5 242 c 128,-1,12
 285 266 285 266 292 297 c 2,13,-1
 310 384 l 2,14,15
 317 415 317 415 303 432.5 c 128,-1,16
 289 450 289 450 255 450 c 2,17,-1
 231 450 l 2,0,1
178 361 m 2,18,19
 182 379 182 379 198 393.5 c 128,-1,20
 214 408 214 408 234 408 c 2,21,-1
 238 408 l 2,22,23
 276 408 276 408 268 374 c 2,24,-1
 253 305 l 2,25,26
 249 287 249 287 232.5 273.5 c 128,-1,27
 216 260 216 260 198 260 c 2,28,-1
 194 260 l 2,29,30
 156 260 156 260 164 295 c 2,31,-1
 178 361 l 2,18,19
472 243 m 2,32,33
 457 243 457 243 442 236 c 128,-1,34
 427 229 427 229 414.5 218 c 128,-1,35
 402 207 402 207 393 192 c 128,-1,36
 384 177 384 177 381 162 c 2,37,-1
 363 78 l 2,38,39
 357 48 357 48 371 30 c 128,-1,40
 385 12 385 12 417 12 c 2,41,-1
 439 12 l 2,42,43
 471 12 471 12 498.5 35.5 c 128,-1,44
 526 59 526 59 533 91 c 2,45,-1
 551 178 l 2,46,47
 558 208 558 208 544 225.5 c 128,-1,48
 530 243 530 243 496 243 c 2,49,-1
 472 243 l 2,32,33
131 -17 m 1,50,-1
 496 490 l 1,51,-1
 540 490 l 1,52,-1
 177 -17 l 1,53,-1
 131 -17 l 1,50,-1
419 155 m 2,54,55
 424 173 424 173 439.5 187.5 c 128,-1,56
 455 202 455 202 475 202 c 2,57,-1
 479 202 l 2,58,59
 517 202 517 202 509 168 c 2,60,-1
 495 99 l 2,61,62
 490 81 490 81 473.5 67.5 c 128,-1,63
 457 54 457 54 439 54 c 2,64,-1
 435 54 l 2,65,66
 399 54 399 54 405 89 c 2,67,-1
 419 155 l 2,54,55
EndSplineSet
EndChar
StartChar: ampersand
Encoding: 38 38 7
Width: 436
Flags: W
Fore
420 211 m 1,0,1
 414 181 414 181 397 149 c 128,-1,2
 380 117 380 117 357 88 c 1,3,4
 368 69 368 69 378.5 53 c 128,-1,5
 389 37 389 37 397 25 c 0,6,7
 406 11 406 11 413 0 c 1,8,-1
 357 0 l 1,9,-1
 347 15 l 2,10,11
 337 31 337 31 324 53 c 1,12,13
 294 27 294 27 259 10.5 c 128,-1,14
 224 -6 224 -6 187 -6 c 2,15,-1
 158 -6 l 2,16,17
 135 -6 135 -6 115 5 c 128,-1,18
 95 16 95 16 81.5 33.5 c 128,-1,19
 68 51 68 51 62 73.5 c 128,-1,20
 56 96 56 96 61 119 c 2,21,-1
 65 141 l 2,22,23
 69 161 69 161 81.5 178.5 c 128,-1,24
 94 196 94 196 111.5 211 c 128,-1,25
 129 226 129 226 150.5 238.5 c 128,-1,26
 172 251 172 251 194 262 c 1,27,-1
 181 282 l 2,28,29
 171 297 171 297 165 314.5 c 128,-1,30
 159 332 159 332 164 354 c 2,31,-1
 165 362 l 2,32,33
 170 386 170 386 183.5 406.5 c 128,-1,34
 197 427 197 427 215.5 442 c 128,-1,35
 234 457 234 457 256.5 466 c 128,-1,36
 279 475 279 475 302 475 c 2,37,-1
 328 475 l 2,38,39
 367 475 367 475 388.5 448 c 128,-1,40
 410 421 410 421 402 382 c 2,41,-1
 400 373 l 2,42,43
 395 350 395 350 382.5 331.5 c 128,-1,44
 370 313 370 313 352 299 c 128,-1,45
 334 285 334 285 312 273.5 c 128,-1,46
 290 262 290 262 266 252 c 2,47,-1
 257 248 l 1,48,49
 274 222 274 222 293.5 190 c 128,-1,50
 313 158 313 158 333 126 c 1,51,52
 349 148 349 148 360 170.5 c 128,-1,53
 371 193 371 193 375 211 c 1,54,-1
 420 211 l 1,0,1
214 230 m 1,55,56
 197 222 197 222 179.5 212 c 128,-1,57
 162 202 162 202 147.5 190.5 c 128,-1,58
 133 179 133 179 123 166.5 c 128,-1,59
 113 154 113 154 110 141 c 2,60,-1
 106 119 l 2,61,62
 103 105 103 105 107 91 c 128,-1,63
 111 77 111 77 120 65.5 c 128,-1,64
 129 54 129 54 141.5 46.5 c 128,-1,65
 154 39 154 39 168 39 c 2,66,-1
 197 39 l 2,67,68
 225 39 225 39 252 53 c 128,-1,69
 279 67 279 67 302 90 c 1,70,-1
 214 230 l 1,55,56
262 292 m 0,71,72
 296 306 296 306 323 325 c 128,-1,73
 350 344 350 344 356 373 c 2,74,-1
 357 381 l 2,75,76
 362 402 362 402 350 417 c 128,-1,77
 338 432 338 432 317 432 c 2,78,-1
 293 432 l 2,79,80
 264 432 264 432 240 411.5 c 128,-1,81
 216 391 216 391 209 362 c 2,82,-1
 208 355 l 2,83,84
 205 342 205 342 210 332 c 128,-1,85
 215 322 215 322 219 312 c 1,86,87
 219 310 219 310 223.5 302 c 128,-1,88
 228 294 228 294 236 281 c 1,89,90
 243 284 243 284 249.5 286.5 c 128,-1,91
 256 289 256 289 262 292 c 0,71,72
EndSplineSet
EndChar
StartChar: quotesingle
Encoding: 39 39 8
Width: 125
Flags: W
Fore
143 505 m 1,0,-1
 190 505 l 1,1,-1
 159 359 l 1,2,-1
 112 359 l 1,3,-1
 143 505 l 1,0,-1
EndSplineSet
KernsSLIFO: 135 -70 0 0 34 -70 0 0
EndChar
StartChar: parenleft
Encoding: 40 40 9
Width: 217
Flags: W
Fore
108 -137 m 1,0,1
 80 -68 80 -68 72.5 9.5 c 128,-1,2
 65 87 65 87 82 169 c 0,3,4
 100 254 100 254 138 328.5 c 128,-1,5
 176 403 176 403 238 475 c 1,6,-1
 287 475 l 1,7,8
 225 403 225 403 185 328.5 c 128,-1,9
 145 254 145 254 127 169 c 0,10,11
 110 87 110 87 119.5 9.5 c 128,-1,12
 129 -68 129 -68 157 -137 c 1,13,-1
 108 -137 l 1,0,1
EndSplineSet
KernsSLIFO: 75 70 0 0
EndChar
StartChar: parenright
Encoding: 41 41 10
Width: 217
Flags: W
Fore
17 -137 m 1,0,1
 75 -68 75 -68 117.5 9.5 c 128,-1,2
 160 87 160 87 177 169 c 0,3,4
 195 254 195 254 187 328.5 c 128,-1,5
 179 403 179 403 147 475 c 1,6,-1
 196 475 l 1,7,8
 258 335 258 335 222 169 c 0,9,10
 205 87 205 87 164.5 9.5 c 128,-1,11
 124 -68 124 -68 66 -137 c 1,12,-1
 17 -137 l 1,0,1
EndSplineSet
EndChar
StartChar: asterisk
Encoding: 42 42 11
Width: 313
Flags: W
Fore
233 456 m 1,0,-1
 254 554 l 1,1,-1
 289 554 l 1,2,-1
 269 457 l 1,3,-1
 363 506 l 1,4,5
 364 503 364 503 366 499 c 256,6,7
 368 495 368 495 369.5 489.5 c 128,-1,8
 371 484 371 484 375 476 c 1,9,-1
 278 427 l 1,10,-1
 354 378 l 1,11,-1
 329 348 l 1,12,-1
 256 396 l 1,13,-1
 235 300 l 1,14,-1
 200 300 l 1,15,-1
 221 397 l 1,16,-1
 127 349 l 1,17,-1
 115 379 l 1,18,-1
 208 427 l 1,19,-1
 135 475 l 1,20,21
 137 478 137 478 141 482 c 2,22,23
 144 486 144 486 148.5 491.5 c 128,-1,24
 153 497 153 497 160 505 c 1,25,-1
 233 456 l 1,0,-1
EndSplineSet
EndChar
StartChar: plus
Encoding: 43 43 12
Width: 381
Flags: W
Fore
254 199 m 1,0,-1
 226 66 l 1,1,-1
 184 66 l 1,2,-1
 212 199 l 1,3,-1
 79 199 l 1,4,-1
 88 241 l 1,5,-1
 221 241 l 1,6,-1
 249 374 l 1,7,-1
 291 374 l 1,8,-1
 263 241 l 1,9,-1
 396 241 l 1,10,11
 395 235 395 235 393 229 c 0,12,13
 391 224 391 224 390 216 c 128,-1,14
 389 208 389 208 387 199 c 1,15,-1
 254 199 l 1,0,-1
EndSplineSet
EndChar
StartChar: comma
Encoding: 44 44 13
Width: 154
Flags: W
Fore
80 62 m 1,0,-1
 121 62 l 1,1,-1
 115 35 l 2,2,3
 109 6 109 6 97 -13 c 128,-1,4
 85 -32 85 -32 71 -45 c 128,-1,5
 57 -58 57 -58 43.5 -66 c 128,-1,6
 30 -74 30 -74 20 -80 c 1,7,-1
 4 -48 l 1,8,9
 13 -41 13 -41 23.5 -34.5 c 128,-1,10
 34 -28 34 -28 44 -19 c 128,-1,11
 54 -10 54 -10 62 3 c 128,-1,12
 70 16 70 16 74 35 c 2,13,-1
 80 62 l 1,0,-1
EndSplineSet
KernsSLIFO: 24 -50 0 0
EndChar
StartChar: hyphen
Encoding: 45 45 14
Width: 237
Flags: W
Fore
67 187 m 1,0,-1
 77 233 l 1,1,-1
 257 233 l 1,2,3
 256 226 256 226 254 219 c 0,4,5
 252 213 252 213 250.5 204.5 c 128,-1,6
 249 196 249 196 247 187 c 1,7,-1
 67 187 l 1,0,-1
EndSplineSet
EndChar
StartChar: period
Encoding: 46 46 15
Width: 181
Flags: W
Fore
65 30 m 256,0,1
 68 45 68 45 80 55 c 128,-1,2
 92 65 92 65 107 65 c 256,3,4
 122 65 122 65 130 55 c 128,-1,5
 138 45 138 45 135 30 c 256,6,7
 132 15 132 15 119.5 5 c 128,-1,8
 107 -5 107 -5 92 -5 c 256,9,10
 77 -5 77 -5 69.5 5 c 128,-1,11
 62 15 62 15 65 30 c 256,0,1
EndSplineSet
KernsSLIFO: 24 -50 0 0
EndChar
StartChar: slash
Encoding: 47 47 16
Width: 301
Flags: W
Fore
-4 -17 m 1,0,-1
 360 490 l 1,1,-1
 404 490 l 1,2,-1
 41 -17 l 1,3,-1
 -4 -17 l 1,0,-1
EndSplineSet
EndChar
StartChar: zero
Encoding: 48 48 17
Width: 381
Flags: W
Fore
312 480 m 2,0,1
 380 480 380 480 408 442 c 128,-1,2
 436 404 436 404 422 341 c 2,3,-1
 384 163 l 2,4,5
 377 131 377 131 358 100.5 c 128,-1,6
 339 70 339 70 312.5 46.5 c 128,-1,7
 286 23 286 23 254 9 c 128,-1,8
 222 -5 222 -5 191 -5 c 2,9,-1
 169 -5 l 2,10,11
 103 -5 103 -5 75 34 c 128,-1,12
 47 73 47 73 60 136 c 2,13,-1
 97 308 l 2,14,15
 104 339 104 339 122.5 370 c 128,-1,16
 141 401 141 401 167 425.5 c 128,-1,17
 193 450 193 450 224 465 c 128,-1,18
 255 480 255 480 285 480 c 2,19,-1
 312 480 l 2,0,1
105 136 m 2,20,21
 96 92 96 92 114 63.5 c 128,-1,22
 132 35 132 35 177 35 c 2,23,-1
 194 35 l 2,24,25
 217 35 217 35 241 46.5 c 128,-1,26
 265 58 265 58 285 76.5 c 128,-1,27
 305 95 305 95 319.5 117.5 c 128,-1,28
 334 140 334 140 339 163 c 2,29,-1
 377 341 l 2,30,31
 386 385 386 385 368 412.5 c 128,-1,32
 350 440 350 440 304 440 c 2,33,-1
 287 440 l 2,34,35
 263 440 263 440 239.5 428.5 c 128,-1,36
 216 417 216 417 196 398 c 128,-1,37
 176 379 176 379 161.5 355.5 c 128,-1,38
 147 332 147 332 142 308 c 2,39,-1
 105 136 l 2,20,21
EndSplineSet
EndChar
StartChar: one
Encoding: 49 49 18
Width: 272
Flags: W
Fore
141 0 m 1,0,-1
 219 368 l 1,1,2
 193 346 193 346 163.5 336.5 c 128,-1,3
 134 327 134 327 102 326 c 1,4,-1
 111 367 l 1,5,6
 132 367 132 367 153 376 c 128,-1,7
 174 385 174 385 192 400 c 128,-1,8
 210 415 210 415 223 434.5 c 128,-1,9
 236 454 236 454 241 475 c 1,10,-1
 286 475 l 1,11,-1
 186 0 l 1,12,-1
 141 0 l 1,0,-1
EndSplineSet
EndChar
StartChar: two
Encoding: 50 50 19
Width: 388
Flags: W
Fore
311 488 m 2,0,1
 379 488 379 488 407.5 452.5 c 128,-1,2
 436 417 436 417 423 354 c 0,3,4
 419 337 419 337 413.5 323.5 c 128,-1,5
 408 310 408 310 399 297.5 c 128,-1,6
 390 285 390 285 376 273 c 128,-1,7
 362 261 362 261 341 248 c 2,8,-1
 148 125 l 2,9,10
 119 106 119 106 106 82.5 c 128,-1,11
 93 59 93 59 89 40 c 1,12,-1
 364 40 l 1,13,-1
 356 0 l 1,14,-1
 32 0 l 1,15,-1
 41 45 l 2,16,17
 49 80 49 80 68.5 107 c 128,-1,18
 88 134 88 134 117 153 c 2,19,-1
 337 294 l 2,20,21
 349 302 349 302 361.5 319.5 c 128,-1,22
 374 337 374 337 378 354 c 0,23,24
 398 448 398 448 304 448 c 2,25,-1
 287 448 l 2,26,27
 253 448 253 448 220.5 431 c 128,-1,28
 188 414 188 414 162 390 c 1,29,-1
 132 417 l 1,30,31
 165 450 165 450 207.5 469 c 128,-1,32
 250 488 250 488 295 488 c 2,33,-1
 311 488 l 2,0,1
EndSplineSet
EndChar
StartChar: three
Encoding: 51 51 20
Width: 392
Flags: W
Fore
199 295 m 1,0,-1
 293 295 l 2,1,2
 319 297 319 297 339.5 312 c 128,-1,3
 360 327 360 327 366 354 c 0,4,5
 386 448 386 448 292 448 c 2,6,-1
 275 448 l 2,7,8
 241 448 241 448 208.5 431 c 128,-1,9
 176 414 176 414 150 390 c 1,10,-1
 120 417 l 1,11,12
 153 450 153 450 195.5 469 c 128,-1,13
 238 488 238 488 283 488 c 2,14,-1
 299 488 l 2,15,16
 367 488 367 488 395.5 452.5 c 128,-1,17
 424 417 424 417 411 354 c 0,18,19
 400 304 400 304 360 276 c 1,20,21
 383 257 383 257 392 226.5 c 128,-1,22
 401 196 401 196 394 164 c 0,23,24
 386 126 386 126 366 95.5 c 128,-1,25
 346 65 346 65 317.5 42.5 c 128,-1,26
 289 20 289 20 254 8 c 128,-1,27
 219 -4 219 -4 182 -4 c 0,28,29
 127 -4 127 -4 94 16.5 c 128,-1,30
 61 37 61 37 38 77 c 1,31,-1
 78 107 l 1,32,33
 98 77 98 77 123.5 56.5 c 128,-1,34
 149 36 149 36 191 36 c 0,35,36
 217 36 217 36 243 46 c 128,-1,37
 269 56 269 56 290.5 73.5 c 128,-1,38
 312 91 312 91 327.5 114.5 c 128,-1,39
 343 138 343 138 349 164 c 0,40,41
 353 182 353 182 349.5 198 c 128,-1,42
 346 214 346 214 337 227 c 128,-1,43
 328 240 328 240 313.5 247.5 c 128,-1,44
 299 255 299 255 280 255 c 2,45,-1
 191 255 l 1,46,-1
 199 295 l 1,0,-1
EndSplineSet
EndChar
StartChar: four
Encoding: 52 52 21
Width: 391
Flags: W
Fore
260 0 m 1,0,-1
 280 98 l 1,1,-1
 97 98 l 2,2,3
 76 98 76 98 66 108.5 c 128,-1,4
 56 119 56 119 61 140 c 1,5,-1
 360 475 l 1,6,-1
 405 475 l 1,7,-1
 334 138 l 1,8,-1
 395 138 l 1,9,-1
 386 98 l 1,10,-1
 325 98 l 1,11,-1
 305 0 l 1,12,-1
 260 0 l 1,0,-1
344 397 m 1,13,-1
 116 138 l 1,14,-1
 289 138 l 1,15,-1
 344 397 l 1,13,-1
EndSplineSet
EndChar
StartChar: five
Encoding: 53 53 22
Width: 402
Flags: W
Fore
436 435 m 1,0,-1
 212 435 l 1,1,-1
 182 295 l 1,2,-1
 311 295 l 2,3,4
 338 295 338 295 358 283.5 c 128,-1,5
 378 272 378 272 390 253.5 c 128,-1,6
 402 235 402 235 405.5 211.5 c 128,-1,7
 409 188 409 188 404 164 c 0,8,9
 396 126 396 126 376 95.5 c 128,-1,10
 356 65 356 65 327.5 42.5 c 128,-1,11
 299 20 299 20 264 8 c 128,-1,12
 229 -4 229 -4 192 -4 c 0,13,14
 137 -4 137 -4 104 16.5 c 128,-1,15
 71 37 71 37 48 77 c 1,16,-1
 88 107 l 1,17,18
 108 77 108 77 133.5 56.5 c 128,-1,19
 159 36 159 36 201 36 c 0,20,21
 227 36 227 36 253 46 c 128,-1,22
 279 56 279 56 300.5 73.5 c 128,-1,23
 322 91 322 91 337.5 114.5 c 128,-1,24
 353 138 353 138 359 164 c 0,25,26
 363 182 363 182 359.5 198 c 128,-1,27
 356 214 356 214 347 227 c 128,-1,28
 338 240 338 240 323.5 247.5 c 128,-1,29
 309 255 309 255 290 255 c 2,30,-1
 129 255 l 1,31,-1
 175 475 l 1,32,-1
 444 475 l 1,33,-1
 436 435 l 1,0,-1
EndSplineSet
EndChar
StartChar: six
Encoding: 54 54 23
Width: 397
Flags: W
Fore
288 298 m 2,0,1
 356 298 356 298 384.5 263.5 c 128,-1,2
 413 229 413 229 400 166 c 2,3,-1
 398 159 l 2,4,5
 391 127 391 127 372 97.5 c 128,-1,6
 353 68 353 68 327 45.5 c 128,-1,7
 301 23 301 23 269.5 9.5 c 128,-1,8
 238 -4 238 -4 207 -4 c 2,9,-1
 185 -4 l 2,10,11
 136 -4 136 -4 108.5 17 c 128,-1,12
 81 38 81 38 72 74 c 0,13,14
 66 98 66 98 68 131 c 128,-1,15
 70 164 70 164 76 191 c 2,16,-1
 99 298 l 2,17,18
 107 338 107 338 129.5 372.5 c 128,-1,19
 152 407 152 407 183 432.5 c 128,-1,20
 214 458 214 458 251.5 473 c 128,-1,21
 289 488 289 488 328 488 c 0,22,23
 359 488 359 488 383 479.5 c 128,-1,24
 407 471 407 471 424 456 c 1,25,-1
 390 419 l 1,26,27
 377 430 377 430 359.5 439 c 128,-1,28
 342 448 342 448 320 448 c 0,29,30
 290 448 290 448 261.5 436 c 128,-1,31
 233 424 233 424 209 404 c 128,-1,32
 185 384 185 384 167.5 356.5 c 128,-1,33
 150 329 150 329 144 299 c 2,34,-1
 130 234 l 1,35,36
 158 263 158 263 192 280.5 c 128,-1,37
 226 298 226 298 261 298 c 2,38,-1
 288 298 l 2,0,1
120 133 m 0,39,40
 110 88 110 88 128.5 62 c 128,-1,41
 147 36 147 36 192 36 c 2,42,-1
 209 36 l 2,43,44
 232 36 232 36 256 47 c 128,-1,45
 280 58 280 58 300 75 c 128,-1,46
 320 92 320 92 334 114 c 128,-1,47
 348 136 348 136 353 159 c 2,48,-1
 355 166 l 2,49,50
 364 210 364 210 345 234 c 128,-1,51
 326 258 326 258 280 258 c 2,52,-1
 263 258 l 2,53,54
 239 258 239 258 215.5 247.5 c 128,-1,55
 192 237 192 237 172.5 219.5 c 128,-1,56
 153 202 153 202 139 179.5 c 128,-1,57
 125 157 125 157 120 133 c 0,39,40
EndSplineSet
EndChar
StartChar: seven
Encoding: 55 55 24
Width: 368
Flags: W
Fore
126 476 m 1,0,-1
 445 476 l 1,1,-1
 438 446 l 1,2,-1
 229 142 l 2,3,4
 206 109 206 109 191.5 72.5 c 128,-1,5
 177 36 177 36 169 0 c 1,6,-1
 124 0 l 1,7,8
 132 35 132 35 144.5 71.5 c 128,-1,9
 157 108 157 108 178 140 c 0,10,11
 188 156 188 156 201 176 c 128,-1,12
 214 196 214 196 236.5 228.5 c 128,-1,13
 259 261 259 261 293 311 c 128,-1,14
 327 361 327 361 379 436 c 1,15,-1
 117 436 l 1,16,-1
 126 476 l 1,0,-1
EndSplineSet
KernsSLIFO: 15 -70 0 0 13 -70 0 0
EndChar
StartChar: eight
Encoding: 56 56 25
Width: 393
Flags: W
Fore
345 260 m 1,0,1
 373 246 373 246 386 214 c 128,-1,2
 399 182 399 182 391 145 c 0,3,4
 383 107 383 107 363.5 79 c 128,-1,5
 344 51 344 51 316 32.5 c 128,-1,6
 288 14 288 14 253.5 4.5 c 128,-1,7
 219 -5 219 -5 182 -5 c 2,8,-1
 169 -5 l 2,9,10
 110 -5 110 -5 77.5 29.5 c 128,-1,11
 45 64 45 64 58 125 c 0,12,13
 65 158 65 158 92 192.5 c 128,-1,14
 119 227 119 227 156 250 c 1,15,16
 135 265 135 265 126 287 c 128,-1,17
 117 309 117 309 124 341 c 0,18,19
 130 370 130 370 146.5 395.5 c 128,-1,20
 163 421 163 421 186 440 c 128,-1,21
 209 459 209 459 236.5 470 c 128,-1,22
 264 481 264 481 292 481 c 2,23,-1
 317 481 l 2,24,25
 379 481 379 481 405 448 c 128,-1,26
 431 415 431 415 419 358 c 0,27,28
 413 330 413 330 390.5 302.5 c 128,-1,29
 368 275 368 275 345 260 c 1,0,1
244 236 m 2,30,31
 220 236 220 236 196 225 c 128,-1,32
 172 214 172 214 152.5 197 c 128,-1,33
 133 180 133 180 119.5 160.5 c 128,-1,34
 106 141 106 141 103 125 c 0,35,36
 94 83 94 83 115.5 59 c 128,-1,37
 137 35 137 35 177 35 c 2,38,-1
 190 35 l 2,39,40
 217 35 217 35 242.5 42.5 c 128,-1,41
 268 50 268 50 289 64 c 128,-1,42
 310 78 310 78 325 98.5 c 128,-1,43
 340 119 340 119 346 145 c 0,44,45
 350 163 350 163 345.5 179 c 128,-1,46
 341 195 341 195 331 208 c 128,-1,47
 321 221 321 221 306.5 228.5 c 128,-1,48
 292 236 292 236 277 236 c 2,49,-1
 244 236 l 2,30,31
265 276 m 2,50,51
 284 277 284 277 302 285 c 128,-1,52
 320 293 320 293 335 305 c 128,-1,53
 350 317 350 317 360 331.5 c 128,-1,54
 370 346 370 346 373 358 c 0,55,56
 381 396 381 396 365 418.5 c 128,-1,57
 349 441 349 441 308 441 c 2,58,-1
 293 441 l 2,59,60
 272 441 272 441 251.5 433.5 c 128,-1,61
 231 426 231 426 214.5 412.5 c 128,-1,62
 198 399 198 399 185.5 381 c 128,-1,63
 173 363 173 363 169 342 c 0,64,65
 165 322 165 322 171 309 c 128,-1,66
 177 296 177 296 187.5 288.5 c 128,-1,67
 198 281 198 281 209.5 278.5 c 128,-1,68
 221 276 221 276 228 276 c 2,69,-1
 265 276 l 2,50,51
EndSplineSet
EndChar
StartChar: nine
Encoding: 57 57 26
Width: 393
Flags: W
Fore
211 187 m 2,0,1
 143 187 143 187 114 221 c 128,-1,2
 85 255 85 255 99 318 c 2,3,-1
 101 325 l 2,4,5
 108 357 108 357 126.5 386.5 c 128,-1,6
 145 416 145 416 171.5 438.5 c 128,-1,7
 198 461 198 461 229 474.5 c 128,-1,8
 260 488 260 488 292 488 c 2,9,-1
 314 488 l 2,10,11
 363 488 363 488 390.5 467 c 128,-1,12
 418 446 418 446 427 410 c 0,13,14
 433 386 433 386 430.5 352.5 c 128,-1,15
 428 319 428 319 423 292 c 2,16,-1
 400 185 l 2,17,18
 391 145 391 145 369 110.5 c 128,-1,19
 347 76 347 76 316 50.5 c 128,-1,20
 285 25 285 25 247.5 10.5 c 128,-1,21
 210 -4 210 -4 171 -4 c 0,22,23
 140 -4 140 -4 115.5 4.5 c 128,-1,24
 91 13 91 13 74 28 c 1,25,-1
 109 65 l 1,26,27
 122 54 122 54 139.5 45 c 128,-1,28
 157 36 157 36 179 36 c 0,29,30
 209 36 209 36 237.5 48 c 128,-1,31
 266 60 266 60 290 80 c 128,-1,32
 314 100 314 100 331.5 127.5 c 128,-1,33
 349 155 349 155 355 185 c 2,34,-1
 369 250 l 1,35,36
 341 221 341 221 307 204 c 128,-1,37
 273 187 273 187 238 187 c 2,38,-1
 211 187 l 2,0,1
379 351 m 0,39,40
 389 396 389 396 370.5 422 c 128,-1,41
 352 448 352 448 307 448 c 2,42,-1
 290 448 l 2,43,44
 267 448 267 448 243 437 c 128,-1,45
 219 426 219 426 199 409 c 128,-1,46
 179 392 179 392 164.5 369.5 c 128,-1,47
 150 347 150 347 146 325 c 2,48,-1
 144 318 l 2,49,50
 135 274 135 274 154 250.5 c 128,-1,51
 173 227 173 227 219 227 c 2,52,-1
 236 227 l 2,53,54
 260 227 260 227 283.5 237.5 c 128,-1,55
 307 248 307 248 326.5 265 c 128,-1,56
 346 282 346 282 360 304.5 c 128,-1,57
 374 327 374 327 379 351 c 0,39,40
EndSplineSet
EndChar
StartChar: colon
Encoding: 58 58 27
Width: 200
Flags: W
Fore
82 53 m 256,0,1
 85 68 85 68 97 78 c 128,-1,2
 109 88 109 88 124 88 c 256,3,4
 139 88 139 88 147 78 c 128,-1,5
 155 68 155 68 152 53 c 256,6,7
 149 38 149 38 136.5 28 c 128,-1,8
 124 18 124 18 109 18 c 256,9,10
 94 18 94 18 86.5 28 c 128,-1,11
 79 38 79 38 82 53 c 256,0,1
134 298 m 256,12,13
 137 313 137 313 149 323 c 128,-1,14
 161 333 161 333 176 333 c 256,15,16
 191 333 191 333 199 323 c 128,-1,17
 207 313 207 313 204 298 c 256,18,19
 201 283 201 283 188.5 273 c 128,-1,20
 176 263 176 263 161 263 c 256,21,22
 146 263 146 263 138.5 273 c 128,-1,23
 131 283 131 283 134 298 c 256,12,13
EndSplineSet
EndChar
StartChar: semicolon
Encoding: 59 59 28
Width: 200
Flags: W
Fore
134 298 m 256,0,1
 137 313 137 313 149 323 c 128,-1,2
 161 333 161 333 176 333 c 256,3,4
 191 333 191 333 199 323 c 128,-1,5
 207 313 207 313 204 298 c 256,6,7
 201 283 201 283 188.5 273 c 128,-1,8
 176 263 176 263 161 263 c 256,9,10
 146 263 146 263 138.5 273 c 128,-1,11
 131 283 131 283 134 298 c 256,0,1
111 94 m 1,12,-1
 152 94 l 1,13,-1
 147 67 l 2,14,15
 141 38 141 38 129 19 c 128,-1,16
 117 0 117 0 103 -13 c 128,-1,17
 89 -26 89 -26 75.5 -34 c 128,-1,18
 62 -42 62 -42 52 -48 c 1,19,-1
 36 -16 l 1,20,21
 45 -9 45 -9 55.5 -2.5 c 128,-1,22
 66 4 66 4 76 13 c 128,-1,23
 86 22 86 22 94 35 c 128,-1,24
 102 48 102 48 106 67 c 2,25,-1
 111 94 l 1,12,-1
EndSplineSet
EndChar
StartChar: less
Encoding: 60 60 29
Width: 412
Flags: W
Fore
466 408 m 1,0,-1
 457 363 l 1,1,-1
 152 200 l 1,2,-1
 388 38 l 1,3,-1
 378 -7 l 1,4,-1
 74 200 l 1,5,-1
 466 408 l 1,0,-1
EndSplineSet
EndChar
StartChar: equal
Encoding: 61 61 30
Width: 350
Flags: W
Fore
54 123 m 1,0,-1
 63 169 l 1,1,-1
 343 169 l 1,2,3
 342 162 342 162 340 155 c 0,4,5
 338 149 338 149 337 140.5 c 128,-1,6
 336 132 336 132 334 123 c 1,7,-1
 54 123 l 1,0,-1
81 251 m 1,8,-1
 91 297 l 1,9,-1
 371 297 l 1,10,11
 370 290 370 290 368 283 c 0,12,13
 366 277 366 277 364.5 268.5 c 128,-1,14
 363 260 363 260 361 251 c 1,15,-1
 81 251 l 1,8,-1
EndSplineSet
EndChar
StartChar: greater
Encoding: 62 62 31
Width: 413
Flags: W
Fore
422 200 m 1,0,-1
 30 -7 l 1,1,-1
 40 38 l 1,2,-1
 344 200 l 1,3,-1
 109 363 l 1,4,-1
 118 408 l 1,5,-1
 422 200 l 1,0,-1
EndSplineSet
EndChar
StartChar: question
Encoding: 63 63 32
Width: 358
Flags: W
Fore
125 30 m 256,0,1
 128 45 128 45 140 55 c 128,-1,2
 152 65 152 65 167 65 c 256,3,4
 182 65 182 65 190 55 c 128,-1,5
 198 45 198 45 195 30 c 256,6,7
 192 15 192 15 179.5 5 c 128,-1,8
 167 -5 167 -5 152 -5 c 256,9,10
 137 -5 137 -5 129.5 5 c 128,-1,11
 122 15 122 15 125 30 c 256,0,1
108 439 m 1,12,13
 125 455 125 455 156.5 465.5 c 128,-1,14
 188 476 188 476 226 476 c 2,15,-1
 281 476 l 2,16,17
 310 476 310 476 334 468 c 128,-1,18
 358 460 358 460 374 444 c 128,-1,19
 390 428 390 428 396.5 404 c 128,-1,20
 403 380 403 380 397 349 c 0,21,22
 389 313 389 313 357.5 281 c 128,-1,23
 326 249 326 249 261 223 c 0,24,25
 246 217 246 217 235.5 207 c 128,-1,26
 225 197 225 197 218.5 186 c 128,-1,27
 212 175 212 175 208.5 164.5 c 128,-1,28
 205 154 205 154 204 148 c 2,29,-1
 196 109 l 1,30,-1
 151 109 l 1,31,-1
 159 148 l 2,32,33
 162 160 162 160 168.5 175.5 c 128,-1,34
 175 191 175 191 187 207.5 c 128,-1,35
 199 224 199 224 218 239.5 c 128,-1,36
 237 255 237 255 265 267 c 0,37,38
 310 286 310 286 328.5 306 c 128,-1,39
 347 326 347 326 352 349 c 0,40,41
 360 390 360 390 335.5 411 c 128,-1,42
 311 432 311 432 271 432 c 2,43,-1
 216 432 l 2,44,45
 185 432 185 432 160 422.5 c 128,-1,46
 135 413 135 413 119 399 c 1,47,-1
 108 439 l 1,12,13
EndSplineSet
EndChar
StartChar: at
Encoding: 64 64 33
Width: 601
Flags: W
Fore
421 290 m 2,0,1
 424 312 424 312 411 326.5 c 128,-1,2
 398 341 398 341 376 341 c 2,3,-1
 343 341 l 2,4,5
 311 341 311 341 284.5 319.5 c 128,-1,6
 258 298 258 298 251 265 c 2,7,-1
 234 186 l 2,8,9
 229 163 229 163 241.5 147 c 128,-1,10
 254 131 254 131 277 131 c 2,11,-1
 311 131 l 2,12,13
 343 131 343 131 369 151.5 c 128,-1,14
 395 172 395 172 403 204 c 2,15,-1
 421 290 l 2,0,1
478 23 m 1,16,17
 449 3 449 3 416 -7.5 c 128,-1,18
 383 -18 383 -18 349 -18 c 2,19,-1
 206 -18 l 2,20,21
 171 -18 171 -18 143 -5 c 128,-1,22
 115 8 115 8 97 30.5 c 128,-1,23
 79 53 79 53 72 84 c 128,-1,24
 65 115 65 115 73 150 c 2,25,-1
 103 289 l 2,26,27
 112 332 112 332 136 369.5 c 128,-1,28
 160 407 160 407 193.5 434.5 c 128,-1,29
 227 462 227 462 267.5 477.5 c 128,-1,30
 308 493 308 493 350 493 c 2,31,-1
 492 493 l 2,32,33
 527 493 527 493 555 480 c 128,-1,34
 583 467 583 467 601 444.5 c 128,-1,35
 619 422 619 422 625.5 391 c 128,-1,36
 632 360 632 360 625 325 c 2,37,-1
 610 255 l 2,38,39
 601 211 601 211 587 180.5 c 128,-1,40
 573 150 573 150 555.5 131 c 128,-1,41
 538 112 538 112 516.5 103.5 c 128,-1,42
 495 95 495 95 471 95 c 0,43,44
 442 95 442 95 427.5 109 c 128,-1,45
 413 123 413 123 408 139 c 1,46,47
 398 126 398 126 384.5 117 c 128,-1,48
 371 108 371 108 356.5 102.5 c 128,-1,49
 342 97 342 97 328 94.5 c 128,-1,50
 314 92 314 92 303 92 c 2,51,-1
 269 92 l 2,52,53
 229 92 229 92 208 119 c 128,-1,54
 187 146 187 146 195 186 c 2,55,-1
 212 265 l 2,56,57
 217 289 217 289 230.5 310 c 128,-1,58
 244 331 244 331 263 346.5 c 128,-1,59
 282 362 282 362 304.5 371 c 128,-1,60
 327 380 327 380 351 380 c 2,61,-1
 384 380 l 2,62,63
 401 380 401 380 414 375.5 c 128,-1,64
 427 371 427 371 437 363 c 1,65,-1
 440 380 l 1,66,-1
 479 380 l 1,67,-1
 442 205 l 2,68,69
 436 177 436 177 445 156.5 c 128,-1,70
 454 136 454 136 479 136 c 0,71,72
 497 136 497 136 511.5 145.5 c 128,-1,73
 526 155 526 155 537 171.5 c 128,-1,74
 548 188 548 188 556 209.5 c 128,-1,75
 564 231 564 231 569 256 c 2,76,-1
 584 328 l 2,77,78
 590 354 590 354 585 376.5 c 128,-1,79
 580 399 580 399 567 416 c 128,-1,80
 554 433 554 433 533.5 442.5 c 128,-1,81
 513 452 513 452 487 452 c 2,82,-1
 340 452 l 2,83,84
 307 452 307 452 275 439.5 c 128,-1,85
 243 427 243 427 216.5 405.5 c 128,-1,86
 190 384 190 384 170.5 354.5 c 128,-1,87
 151 325 151 325 144 291 c 2,88,-1
 114 147 l 2,89,90
 108 121 108 121 113 98.5 c 128,-1,91
 118 76 118 76 131 59 c 128,-1,92
 144 42 144 42 164.5 32.5 c 128,-1,93
 185 23 185 23 211 23 c 2,94,-1
 359 23 l 2,95,96
 385 23 385 23 411.5 31.5 c 128,-1,97
 438 40 438 40 461 56 c 1,98,-1
 478 23 l 1,16,17
EndSplineSet
EndChar
StartChar: A
Encoding: 65 65 34
Width: 523
Flags: W
Fore
337 476 m 1,0,1
 358 476 358 476 374 467 c 128,-1,2
 390 458 390 458 395 440 c 2,3,-1
 498 0 l 1,4,-1
 448 0 l 1,5,-1
 417 133 l 1,6,-1
 161 133 l 1,7,-1
 75 0 l 1,8,-1
 25 0 l 1,9,-1
 337 476 l 1,0,1
186 173 m 1,10,-1
 407 173 l 1,11,-1
 350 422 l 1,12,-1
 186 173 l 1,10,-1
EndSplineSet
KernsSLIFO: 309 -50 0 0 306 -50 0 0 90 -10 0 0 88 -60 0 0 87 -60 0 0 86 -10 0 0 85 -10 0 0 58 -90 0 0 56 -110 0 0 55 -110 0 0 54 -20 0 0 53 -70 0 0 52 -30 0 0 14 -30 0 0
EndChar
StartChar: B
Encoding: 66 66 35
Width: 474
Flags: W
Fore
86 0 m 2,0,1
 69 0 69 0 59 13.5 c 128,-1,2
 49 27 49 27 53 44 c 2,3,-1
 144 475 l 1,4,-1
 375 475 l 2,5,6
 400 475 400 475 420 464.5 c 128,-1,7
 440 454 440 454 453 437 c 128,-1,8
 466 420 466 420 471 397.5 c 128,-1,9
 476 375 476 375 471 350 c 0,10,11
 466 324 466 324 451 303 c 128,-1,12
 436 282 436 282 414 263 c 1,13,14
 449 249 449 249 464.5 212 c 128,-1,15
 480 175 480 175 472 135 c 0,16,17
 467 110 467 110 452 86 c 128,-1,18
 437 62 437 62 416.5 43 c 128,-1,19
 396 24 396 24 371.5 12 c 128,-1,20
 347 0 347 0 322 0 c 2,21,-1
 86 0 l 2,0,1
330 40 m 2,22,23
 345 40 345 40 360.5 49 c 128,-1,24
 376 58 376 58 389.5 72 c 128,-1,25
 403 86 403 86 412.5 103 c 128,-1,26
 422 120 422 120 425 135 c 256,27,28
 428 150 428 150 426 166.5 c 128,-1,29
 424 183 424 183 416.5 196.5 c 128,-1,30
 409 210 409 210 397 219 c 128,-1,31
 385 228 385 228 370 228 c 2,32,-1
 137 228 l 1,33,-1
 97 40 l 1,34,-1
 330 40 l 2,22,23
181 435 m 1,35,-1
 145 268 l 1,36,-1
 331 268 l 2,37,38
 346 268 346 268 361.5 275 c 128,-1,39
 377 282 377 282 389.5 293.5 c 128,-1,40
 402 305 402 305 411.5 320 c 128,-1,41
 421 335 421 335 424 350 c 256,42,43
 427 365 427 365 424.5 380.5 c 128,-1,44
 422 396 422 396 414.5 408 c 128,-1,45
 407 420 407 420 394.5 427.5 c 128,-1,46
 382 435 382 435 367 435 c 2,47,-1
 181 435 l 1,35,-1
EndSplineSet
KernsSLIFO: 53 -40 0 0
EndChar
StartChar: C
Encoding: 67 67 36
Width: 468
Flags: W
Fore
457 333 m 1,0,1
 462 355 462 355 458 375.5 c 128,-1,2
 454 396 454 396 442.5 411.5 c 128,-1,3
 431 427 431 427 412.5 436 c 128,-1,4
 394 445 394 445 371 445 c 2,5,-1
 317 445 l 2,6,7
 287 445 287 445 258 431.5 c 128,-1,8
 229 418 229 418 205 396 c 128,-1,9
 181 374 181 374 163.5 345 c 128,-1,10
 146 316 146 316 139 286 c 2,11,-1
 111 155 l 2,12,13
 106 132 106 132 110 109.5 c 128,-1,14
 114 87 114 87 125 69.5 c 128,-1,15
 136 52 136 52 154 41 c 128,-1,16
 172 30 172 30 195 30 c 2,17,-1
 251 30 l 2,18,19
 280 30 280 30 308.5 40.5 c 128,-1,20
 337 51 337 51 360.5 70 c 128,-1,21
 384 89 384 89 401 114.5 c 128,-1,22
 418 140 418 140 424 169 c 1,23,-1
 469 169 l 1,24,25
 461 129 461 129 439 96 c 128,-1,26
 417 63 417 63 386 39.5 c 128,-1,27
 355 16 355 16 318 3 c 128,-1,28
 281 -10 281 -10 242 -10 c 2,29,-1
 186 -10 l 2,30,31
 154 -10 154 -10 128.5 3.5 c 128,-1,32
 103 17 103 17 87 40 c 128,-1,33
 71 63 71 63 65 93 c 128,-1,34
 59 123 59 123 66 155 c 2,35,-1
 94 286 l 2,36,37
 103 326 103 326 125.5 362 c 128,-1,38
 148 398 148 398 179.5 425.5 c 128,-1,39
 211 453 211 453 249 469 c 128,-1,40
 287 485 287 485 326 485 c 2,41,-1
 380 485 l 2,42,43
 413 485 413 485 438.5 473.5 c 128,-1,44
 464 462 464 462 480.5 441.5 c 128,-1,45
 497 421 497 421 503 393.5 c 128,-1,46
 509 366 509 366 502 333 c 1,47,-1
 457 333 l 1,0,1
EndSplineSet
EndChar
StartChar: D
Encoding: 68 68 37
Width: 488
Flags: W
Fore
86 0 m 2,0,1
 69 0 69 0 59 13.5 c 128,-1,2
 49 27 49 27 53 44 c 2,3,-1
 144 475 l 1,4,-1
 388 475 l 2,5,6
 421 475 421 475 447 463 c 128,-1,7
 473 451 473 451 489.5 430 c 128,-1,8
 506 409 506 409 512 380.5 c 128,-1,9
 518 352 518 352 511 319 c 2,10,-1
 484 190 l 2,11,12
 475 150 475 150 453 115 c 128,-1,13
 431 80 431 80 399.5 54.5 c 128,-1,14
 368 29 368 29 331 14.5 c 128,-1,15
 294 0 294 0 255 0 c 2,16,-1
 86 0 l 2,0,1
97 40 m 1,17,-1
 263 40 l 2,18,19
 292 40 292 40 320.5 52 c 128,-1,20
 349 64 349 64 373 84.5 c 128,-1,21
 397 105 397 105 414.5 132 c 128,-1,22
 432 159 432 159 439 190 c 2,23,-1
 466 319 l 2,24,25
 471 342 471 342 467 363 c 128,-1,26
 463 384 463 384 451.5 400 c 128,-1,27
 440 416 440 416 421.5 425.5 c 128,-1,28
 403 435 403 435 380 435 c 2,29,-1
 181 435 l 1,30,-1
 97 40 l 1,17,-1
EndSplineSet
KernsSLIFO: 314 -40 0 0 59 -20 0 0 58 -20 0 0 57 -20 0 0 56 -20 0 0 53 -30 0 0 43 -20 0 0 15 -40 0 0 13 -40 0 0
EndChar
StartChar: E
Encoding: 69 69 38
Width: 468
Flags: W
Fore
144 475 m 1,0,-1
 524 475 l 1,1,-1
 516 435 l 1,2,-1
 181 435 l 1,3,-1
 145 268 l 1,4,-1
 431 268 l 1,5,-1
 423 228 l 1,6,-1
 137 228 l 1,7,-1
 97 40 l 1,8,-1
 432 40 l 1,9,-1
 424 0 l 1,10,-1
 86 0 l 2,11,12
 69 0 69 0 59 13.5 c 128,-1,13
 49 27 49 27 53 44 c 2,14,-1
 144 475 l 1,0,-1
EndSplineSet
EndChar
StartChar: F
Encoding: 70 70 39
Width: 468
Flags: W
Fore
137 228 m 1,0,-1
 89 0 l 1,1,-1
 44 0 l 1,2,-1
 144 475 l 1,3,-1
 524 475 l 1,4,-1
 516 435 l 1,5,-1
 181 435 l 1,6,-1
 145 268 l 1,7,-1
 431 268 l 1,8,-1
 423 228 l 1,9,-1
 137 228 l 1,0,-1
EndSplineSet
KernsSLIFO: 314 -40 0 0 196 -50 0 0 185 -50 0 0 167 -50 0 0 135 -90 0 0 80 -50 0 0 70 -50 0 0 66 -50 0 0 43 -60 0 0 34 -90 0 0 15 -40 0 0 13 -40 0 0
EndChar
StartChar: G
Encoding: 71 71 40
Width: 468
Flags: W
Fore
469 169 m 2,0,1
 461 129 461 129 439 96 c 128,-1,2
 417 63 417 63 386 39.5 c 128,-1,3
 355 16 355 16 318 3 c 128,-1,4
 281 -10 281 -10 242 -10 c 2,5,-1
 186 -10 l 2,6,7
 154 -10 154 -10 128.5 3.5 c 128,-1,8
 103 17 103 17 87 40 c 128,-1,9
 71 63 71 63 65 93 c 128,-1,10
 59 123 59 123 66 155 c 2,11,-1
 94 286 l 2,12,13
 103 326 103 326 125.5 362 c 128,-1,14
 148 398 148 398 179.5 425.5 c 128,-1,15
 211 453 211 453 249 469 c 128,-1,16
 287 485 287 485 326 485 c 2,17,-1
 380 485 l 2,18,19
 413 485 413 485 438.5 473.5 c 128,-1,20
 464 462 464 462 480.5 441.5 c 128,-1,21
 497 421 497 421 503 393.5 c 128,-1,22
 509 366 509 366 502 333 c 1,23,-1
 457 333 l 1,24,25
 462 355 462 355 458 375.5 c 128,-1,26
 454 396 454 396 442.5 411.5 c 128,-1,27
 431 427 431 427 412.5 436 c 128,-1,28
 394 445 394 445 371 445 c 2,29,-1
 317 445 l 2,30,31
 287 445 287 445 258 431.5 c 128,-1,32
 229 418 229 418 205 396 c 128,-1,33
 181 374 181 374 163.5 345 c 128,-1,34
 146 316 146 316 139 286 c 2,35,-1
 111 155 l 2,36,37
 106 132 106 132 110 109.5 c 128,-1,38
 114 87 114 87 125 69.5 c 128,-1,39
 136 52 136 52 154 41 c 128,-1,40
 172 30 172 30 195 30 c 2,41,-1
 251 30 l 2,42,43
 280 30 280 30 308.5 40.5 c 128,-1,44
 337 51 337 51 360.5 70 c 128,-1,45
 384 89 384 89 401 114.5 c 128,-1,46
 418 140 418 140 424 169 c 1,47,-1
 282 169 l 1,48,-1
 291 209 l 1,49,-1
 478 209 l 1,50,-1
 469 169 l 2,0,1
EndSplineSet
EndChar
StartChar: H
Encoding: 72 72 41
Width: 468
Flags: W
Fore
427 228 m 1,0,-1
 137 228 l 1,1,-1
 89 0 l 1,2,-1
 44 0 l 1,3,-1
 144 475 l 1,4,-1
 189 475 l 1,5,-1
 145 268 l 1,6,-1
 435 268 l 1,7,-1
 479 475 l 1,8,-1
 524 475 l 1,9,-1
 424 0 l 1,10,-1
 379 0 l 1,11,-1
 427 228 l 1,0,-1
EndSplineSet
EndChar
StartChar: I
Encoding: 73 73 42
Width: 133
Flags: W
Fore
144 475 m 1,0,-1
 189 475 l 1,1,-1
 89 0 l 1,2,-1
 44 0 l 1,3,-1
 144 475 l 1,0,-1
EndSplineSet
KernsSLIFO: 84 -10 0 0 83 -10 0 0 81 -10 0 0 80 -10 0 0 79 -10 0 0 78 -10 0 0 72 -20 0 0 70 -20 0 0 69 -20 0 0 68 -10 0 0 66 -20 0 0
EndChar
StartChar: J
Encoding: 74 74 43
Width: 408
Flags: W
Fore
97 155 m 1,0,1
 92 132 92 132 96 110.5 c 128,-1,2
 100 89 100 89 111.5 72 c 128,-1,3
 123 55 123 55 141 45 c 128,-1,4
 159 35 159 35 182 35 c 0,5,6
 211 35 211 35 239.5 45 c 128,-1,7
 268 55 268 55 291.5 73 c 128,-1,8
 315 91 315 91 331.5 115.5 c 128,-1,9
 348 140 348 140 354 169 c 2,10,-1
 419 475 l 1,11,-1
 464 475 l 1,12,-1
 399 169 l 2,13,14
 391 129 391 129 369 96 c 128,-1,15
 347 63 347 63 316 39.5 c 128,-1,16
 285 16 285 16 248 3 c 128,-1,17
 211 -10 211 -10 172 -10 c 0,18,19
 140 -10 140 -10 114.5 3.5 c 128,-1,20
 89 17 89 17 73 40 c 128,-1,21
 57 63 57 63 51 93 c 128,-1,22
 45 123 45 123 52 155 c 1,23,-1
 97 155 l 1,0,1
EndSplineSet
KernsSLIFO: 135 -10 0 0 34 -20 0 0
EndChar
StartChar: K
Encoding: 75 75 44
Width: 448
Flags: W
Fore
360 0 m 1,0,-1
 224 175 l 2,1,2
 202 202 202 202 176 209 c 128,-1,3
 150 216 150 216 134 216 c 1,4,-1
 89 0 l 1,5,-1
 44 0 l 1,6,-1
 144 475 l 1,7,-1
 189 475 l 1,8,-1
 146 270 l 1,9,-1
 455 475 l 1,10,-1
 523 475 l 1,11,-1
 187 248 l 1,12,13
 203 248 203 248 217 241.5 c 128,-1,14
 231 235 231 235 242.5 225 c 128,-1,15
 254 215 254 215 264.5 203.5 c 128,-1,16
 275 192 275 192 284 180 c 1,17,18
 284 179 284 179 286.5 175.5 c 128,-1,19
 289 172 289 172 302.5 155 c 128,-1,20
 316 138 316 138 344 102 c 128,-1,21
 372 66 372 66 423 0 c 1,22,-1
 360 0 l 1,0,-1
EndSplineSet
KernsSLIFO: 196 -25 0 0 195 -20 0 0 185 -25 0 0 167 -25 0 0 153 -20 0 0 90 -25 0 0 88 -50 0 0 87 -50 0 0 86 -25 0 0 80 -25 0 0 70 -25 0 0 66 -30 0 0 48 -20 0 0 14 -30 0 0
EndChar
StartChar: L
Encoding: 76 76 45
Width: 409
Flags: W
Fore
144 475 m 1,0,-1
 189 475 l 1,1,-1
 97 40 l 1,2,-1
 392 40 l 1,3,-1
 384 0 l 1,4,-1
 86 0 l 2,5,6
 69 0 69 0 59 13.5 c 128,-1,7
 49 27 49 27 53 44 c 2,8,-1
 144 475 l 1,0,-1
EndSplineSet
KernsSLIFO: 309 -100 0 0 306 -100 0 0 195 -18 0 0 153 -18 0 0 136 -18 0 0 90 -20 0 0 87 -60 0 0 58 -100 0 0 56 -94 0 0 55 -104 0 0 53 -100 0 0 50 -18 0 0 48 -18 0 0 40 -18 0 0 36 -18 0 0 14 -40 0 0 8 -40 0 0
EndChar
StartChar: M
Encoding: 77 77 46
Width: 584
Flags: W
Fore
540 0 m 1,0,-1
 495 0 l 1,1,-1
 574 375 l 1,2,-1
 290 -6 l 1,3,-1
 168 375 l 1,4,-1
 89 0 l 1,5,-1
 44 0 l 1,6,-1
 145 476 l 1,7,-1
 190 476 l 1,8,-1
 313 101 l 1,9,-1
 595 475 l 1,10,-1
 640 475 l 1,11,-1
 540 0 l 1,0,-1
EndSplineSet
EndChar
StartChar: N
Encoding: 78 78 47
Width: 488
Flags: W
Fore
413 76 m 1,0,-1
 498 476 l 1,1,-1
 545 476 l 1,2,-1
 444 0 l 1,3,-1
 399 0 l 1,4,-1
 174 400 l 1,5,-1
 89 0 l 1,6,-1
 44 0 l 1,7,-1
 145 476 l 1,8,-1
 190 476 l 1,9,-1
 413 76 l 1,0,-1
EndSplineSet
EndChar
StartChar: O
Encoding: 79 79 48
Width: 469
Flags: W
Fore
475 190 m 2,0,1
 466 150 466 150 443.5 113.5 c 128,-1,2
 421 77 421 77 389 49.5 c 128,-1,3
 357 22 357 22 319.5 6 c 128,-1,4
 282 -10 282 -10 243 -10 c 2,5,-1
 188 -10 l 2,6,7
 155 -10 155 -10 129.5 3.5 c 128,-1,8
 104 17 104 17 88 40 c 128,-1,9
 72 63 72 63 66.5 93 c 128,-1,10
 61 123 61 123 68 156 c 2,11,-1
 95 285 l 2,12,13
 104 325 104 325 126.5 361.5 c 128,-1,14
 149 398 149 398 181 425.5 c 128,-1,15
 213 453 213 453 251 469 c 128,-1,16
 289 485 289 485 328 485 c 2,17,-1
 382 485 l 2,18,19
 415 485 415 485 440.5 471.5 c 128,-1,20
 466 458 466 458 482 435 c 128,-1,21
 498 412 498 412 503.5 382 c 128,-1,22
 509 352 509 352 502 319 c 2,23,-1
 475 190 l 2,0,1
457 319 m 2,24,25
 462 342 462 342 458 364.5 c 128,-1,26
 454 387 454 387 443 405 c 128,-1,27
 432 423 432 423 414 434 c 128,-1,28
 396 445 396 445 373 445 c 2,29,-1
 319 445 l 2,30,31
 289 445 289 445 260 431.5 c 128,-1,32
 231 418 231 418 206.5 395.5 c 128,-1,33
 182 373 182 373 164.5 344.5 c 128,-1,34
 147 316 147 316 140 285 c 2,35,-1
 113 156 l 2,36,37
 108 133 108 133 111.5 110.5 c 128,-1,38
 115 88 115 88 126.5 70 c 128,-1,39
 138 52 138 52 156 41 c 128,-1,40
 174 30 174 30 197 30 c 2,41,-1
 252 30 l 2,42,43
 281 30 281 30 310 43.5 c 128,-1,44
 339 57 339 57 363.5 79.5 c 128,-1,45
 388 102 388 102 405.5 130.5 c 128,-1,46
 423 159 423 159 430 190 c 2,47,-1
 457 319 l 2,24,25
EndSplineSet
KernsSLIFO: 314 -29 0 0 59 -18 0 0 58 -18 0 0 57 -10 0 0 43 20 0 0 15 -29 0 0 13 -29 0 0
EndChar
StartChar: P
Encoding: 80 80 49
Width: 449
Flags: W
Fore
144 475 m 1,0,-1
 399 475 l 2,1,2
 425 475 425 475 445.5 465 c 128,-1,3
 466 455 466 455 479.5 438 c 128,-1,4
 493 421 493 421 498.5 398.5 c 128,-1,5
 504 376 504 376 498 350 c 256,6,7
 492 324 492 324 477.5 302 c 128,-1,8
 463 280 463 280 442.5 263.5 c 128,-1,9
 422 247 422 247 397.5 237.5 c 128,-1,10
 373 228 373 228 347 228 c 2,11,-1
 137 228 l 1,12,-1
 89 0 l 1,13,-1
 44 0 l 1,14,-1
 144 475 l 1,0,-1
181 435 m 1,15,-1
 145 268 l 1,16,-1
 355 268 l 2,17,18
 371 268 371 268 387.5 274.5 c 128,-1,19
 404 281 404 281 417.5 292.5 c 128,-1,20
 431 304 431 304 440.5 318.5 c 128,-1,21
 450 333 450 333 453 350 c 0,22,23
 456 366 456 366 453 381.5 c 128,-1,24
 450 397 450 397 442 409 c 128,-1,25
 434 421 434 421 420.5 428 c 128,-1,26
 407 435 407 435 391 435 c 2,27,-1
 181 435 l 1,15,-1
EndSplineSet
KernsSLIFO: 314 -100 0 0 196 -47 0 0 185 -47 0 0 167 -47 0 0 135 -100 0 0 80 -47 0 0 70 -47 0 0 66 -40 0 0 58 -30 0 0 43 -70 0 0 34 -100 0 0 15 -100 0 0 13 -100 0 0
EndChar
StartChar: Q
Encoding: 81 81 50
Width: 468
Flags: W
Fore
371 37 m 1,0,1
 342 15 342 15 309 2.5 c 128,-1,2
 276 -10 276 -10 242 -10 c 2,3,-1
 187 -10 l 2,4,5
 154 -10 154 -10 128.5 3.5 c 128,-1,6
 103 17 103 17 87 40 c 128,-1,7
 71 63 71 63 65.5 93 c 128,-1,8
 60 123 60 123 67 156 c 2,9,-1
 94 285 l 2,10,11
 103 325 103 325 125.5 361.5 c 128,-1,12
 148 398 148 398 180 425.5 c 128,-1,13
 212 453 212 453 250 469 c 128,-1,14
 288 485 288 485 327 485 c 2,15,-1
 381 485 l 2,16,17
 414 485 414 485 439.5 471.5 c 128,-1,18
 465 458 465 458 481 435 c 128,-1,19
 497 412 497 412 502.5 382 c 128,-1,20
 508 352 508 352 501 319 c 2,21,-1
 474 190 l 2,22,23
 467 157 467 157 450 126.5 c 128,-1,24
 433 96 433 96 409 70 c 1,25,-1
 443 23 l 1,26,-1
 405 -9 l 1,27,-1
 371 37 l 1,0,1
456 319 m 2,28,29
 461 342 461 342 457 364.5 c 128,-1,30
 453 387 453 387 442 405 c 128,-1,31
 431 423 431 423 413 434 c 128,-1,32
 395 445 395 445 372 445 c 2,33,-1
 318 445 l 2,34,35
 288 445 288 445 259 431.5 c 128,-1,36
 230 418 230 418 205.5 395.5 c 128,-1,37
 181 373 181 373 163.5 344.5 c 128,-1,38
 146 316 146 316 139 285 c 2,39,-1
 112 156 l 2,40,41
 107 133 107 133 110.5 110.5 c 128,-1,42
 114 88 114 88 125.5 70 c 128,-1,43
 137 52 137 52 155 41 c 128,-1,44
 173 30 173 30 196 30 c 2,45,-1
 251 30 l 2,46,47
 276 30 276 30 300.5 40 c 128,-1,48
 325 50 325 50 348 67 c 1,49,-1
 291 139 l 1,50,-1
 330 171 l 1,51,-1
 384 102 l 1,52,53
 419 143 419 143 429 190 c 2,54,-1
 456 319 l 2,28,29
EndSplineSet
KernsSLIFO: 314 -29 0 0 13 20 0 0
EndChar
StartChar: R
Encoding: 82 82 51
Width: 458
Flags: W
Fore
144 475 m 1,0,-1
 399 475 l 2,1,2
 425 475 425 475 445.5 465 c 128,-1,3
 466 455 466 455 479.5 438 c 128,-1,4
 493 421 493 421 498.5 398.5 c 128,-1,5
 504 376 504 376 498 350 c 256,6,7
 492 324 492 324 477.5 302 c 128,-1,8
 463 280 463 280 442.5 263.5 c 128,-1,9
 422 247 422 247 397.5 237.5 c 128,-1,10
 373 228 373 228 347 228 c 2,11,-1
 333 228 l 1,12,13
 338 228 338 228 345 218 c 128,-1,14
 352 208 352 208 359 191 c 2,15,-1
 443 0 l 1,16,-1
 390 0 l 1,17,-1
 305 191 l 2,18,19
 299 205 299 205 287 216.5 c 128,-1,20
 275 228 275 228 263 228 c 2,21,-1
 137 228 l 1,22,-1
 89 0 l 1,23,-1
 44 0 l 1,24,-1
 144 475 l 1,0,-1
181 435 m 1,25,-1
 145 268 l 1,26,-1
 355 268 l 2,27,28
 371 268 371 268 387.5 274.5 c 128,-1,29
 404 281 404 281 417.5 292.5 c 128,-1,30
 431 304 431 304 440.5 318.5 c 128,-1,31
 450 333 450 333 453 350 c 0,32,33
 456 366 456 366 453 381.5 c 128,-1,34
 450 397 450 397 442 409 c 128,-1,35
 434 421 434 421 420.5 428 c 128,-1,36
 407 435 407 435 391 435 c 2,37,-1
 181 435 l 1,25,-1
EndSplineSet
KernsSLIFO: 309 -10 0 0 306 -10 0 0 196 -55 0 0 185 -20 0 0 167 -20 0 0 90 -10 0 0 86 -10 0 0 80 -10 0 0 70 -10 0 0 66 -10 0 0 58 -40 0 0
EndChar
StartChar: S
Encoding: 83 83 52
Width: 508
Flags: W
Fore
110 149 m 1,0,1
 105 125 105 125 109.5 103.5 c 128,-1,2
 114 82 114 82 126.5 65.5 c 128,-1,3
 139 49 139 49 158.5 39.5 c 128,-1,4
 178 30 178 30 203 30 c 2,5,-1
 303 30 l 2,6,7
 331 30 331 30 356.5 39 c 128,-1,8
 382 48 382 48 403 63 c 128,-1,9
 424 78 424 78 438 97.5 c 128,-1,10
 452 117 452 117 457 138 c 0,11,12
 459 150 459 150 459.5 164 c 128,-1,13
 460 178 460 178 455 191.5 c 128,-1,14
 450 205 450 205 438 215 c 128,-1,15
 426 225 426 225 402 228 c 2,16,-1
 209 253 l 2,17,18
 173 260 173 260 155 273 c 128,-1,19
 137 286 137 286 130.5 301.5 c 128,-1,20
 124 317 124 317 125.5 333 c 128,-1,21
 127 349 127 349 130 361 c 0,22,23
 137 395 137 395 159.5 419 c 128,-1,24
 182 443 182 443 209.5 458 c 128,-1,25
 237 473 237 473 265 479.5 c 128,-1,26
 293 486 293 486 312 486 c 2,27,-1
 413 486 l 2,28,29
 442 486 442 486 465.5 476.5 c 128,-1,30
 489 467 489 467 505 449 c 128,-1,31
 521 431 521 431 527 405.5 c 128,-1,32
 533 380 533 380 527 349 c 1,33,-1
 482 349 l 1,34,35
 490 390 490 390 467.5 418.5 c 128,-1,36
 445 447 445 447 405 447 c 2,37,-1
 304 447 l 2,38,39
 290 447 290 447 270 441.5 c 128,-1,40
 250 436 250 436 230.5 425 c 128,-1,41
 211 414 211 414 195 398 c 128,-1,42
 179 382 179 382 175 361 c 0,43,44
 173 354 173 354 172.5 344.5 c 128,-1,45
 172 335 172 335 176 325.5 c 128,-1,46
 180 316 180 316 191.5 308.5 c 128,-1,47
 203 301 203 301 226 298 c 2,48,-1
 417 273 l 2,49,50
 453 267 453 267 472.5 251.5 c 128,-1,51
 492 236 492 236 499.5 216.5 c 128,-1,52
 507 197 507 197 506.5 176 c 128,-1,53
 506 155 506 155 502 138 c 0,54,55
 495 106 495 106 475.5 79 c 128,-1,56
 456 52 456 52 428 32.5 c 128,-1,57
 400 13 400 13 365.5 1.5 c 128,-1,58
 331 -10 331 -10 294 -10 c 2,59,-1
 194 -10 l 2,60,61
 160 -10 160 -10 133 2 c 128,-1,62
 106 14 106 14 88.5 35.5 c 128,-1,63
 71 57 71 57 64.5 86 c 128,-1,64
 58 115 58 115 65 149 c 1,65,-1
 110 149 l 1,0,1
EndSplineSet
KernsSLIFO: 314 -40 0 0 135 -18 0 0 90 -10 0 0 88 -18 0 0 87 -20 0 0 82 6 0 0 80 4 0 0 70 4 0 0 68 4 0 0 52 -10 0 0 34 -14 0 0 15 -30 0 0 13 -30 0 0
EndChar
StartChar: T
Encoding: 84 84 53
Width: 390
Flags: W
Fore
265 435 m 1,0,-1
 117 435 l 1,1,-1
 125 475 l 1,2,-1
 465 475 l 1,3,-1
 457 435 l 1,4,-1
 310 435 l 1,5,-1
 218 0 l 1,6,-1
 173 0 l 1,7,-1
 265 435 l 1,0,-1
EndSplineSet
KernsSLIFO: 314 -120 0 0 196 -100 0 0 195 -47 0 0 185 -100 0 0 167 -100 0 0 153 -47 0 0 136 -47 0 0 135 -100 0 0 91 -60 0 0 90 -60 0 0 88 -60 0 0 87 -60 0 0 86 -60 0 0 84 -60 0 0 83 -40 0 0 80 -100 0 0 72 -100 0 0 70 -100 0 0 68 -100 0 0 66 -100 0 0 53 10 0 0 52 -30 0 0 48 -47 0 0 43 -80 0 0 40 -39 0 0 36 -39 0 0 34 -115 0 0 32 20 0 0 28 -50 0 0 27 -50 0 0 15 -100 0 0 13 -40 0 0 10 20 0 0
EndChar
StartChar: U
Encoding: 85 85 54
Width: 478
Flags: W
Fore
184 475 m 1,0,-1
 117 156 l 2,1,2
 112 133 112 133 115.5 110.5 c 128,-1,3
 119 88 119 88 130.5 70 c 128,-1,4
 142 52 142 52 160 41 c 128,-1,5
 178 30 178 30 201 30 c 2,6,-1
 256 30 l 2,7,8
 285 30 285 30 314 43.5 c 128,-1,9
 343 57 343 57 367.5 79.5 c 128,-1,10
 392 102 392 102 409.5 130.5 c 128,-1,11
 427 159 427 159 434 190 c 2,12,-1
 494 475 l 1,13,-1
 539 475 l 1,14,-1
 479 190 l 2,15,16
 470 150 470 150 447.5 113.5 c 128,-1,17
 425 77 425 77 393 49.5 c 128,-1,18
 361 22 361 22 323.5 6 c 128,-1,19
 286 -10 286 -10 247 -10 c 2,20,-1
 192 -10 l 2,21,22
 159 -10 159 -10 133.5 3.5 c 128,-1,23
 108 17 108 17 92 40 c 128,-1,24
 76 63 76 63 70.5 93 c 128,-1,25
 65 123 65 123 72 156 c 2,26,-1
 139 475 l 1,27,-1
 184 475 l 1,0,-1
EndSplineSet
KernsSLIFO: 314 -40 0 0 135 -40 0 0 34 -40 0 0 15 -40 0 0 13 -40 0 0
EndChar
StartChar: V
Encoding: 86 86 55
Width: 472
Flags: W
Fore
499 475 m 1,0,-1
 547 475 l 1,1,-1
 259 -5 l 1,2,3
 230 -5 230 -5 216.5 7.5 c 128,-1,4
 203 20 203 20 197 45 c 2,5,-1
 125 475 l 1,6,-1
 173 475 l 1,7,-1
 244 50 l 1,8,-1
 499 475 l 1,0,-1
EndSplineSet
KernsSLIFO: 314 -100 0 0 196 -50 0 0 185 -94 0 0 167 -94 0 0 135 -140 0 0 90 -50 0 0 86 -50 0 0 80 -50 0 0 70 -50 0 0 66 -50 0 0 34 -140 0 0 28 -70 0 0 27 -70 0 0 15 -100 0 0 14 -47 0 0 13 -100 0 0
EndChar
StartChar: W
Encoding: 87 87 56
Width: 706
Flags: W
Fore
241 -5 m 1,0,1
 212 -5 212 -5 197.5 7.5 c 128,-1,2
 183 20 183 20 177 45 c 2,3,-1
 125 475 l 1,4,-1
 173 475 l 1,5,-1
 224 50 l 1,6,-1
 431 480 l 1,7,8
 437 480 437 480 444.5 479 c 128,-1,9
 452 478 452 478 459.5 474.5 c 128,-1,10
 467 471 467 471 472.5 464.5 c 128,-1,11
 478 458 478 458 480 447 c 2,12,-1
 502 50 l 1,13,-1
 733 475 l 1,14,-1
 781 475 l 1,15,-1
 547 45 l 2,16,17
 530 20 530 20 510 7.5 c 128,-1,18
 490 -5 490 -5 461 -5 c 1,19,-1
 440 413 l 1,20,-1
 241 -5 l 1,0,1
EndSplineSet
KernsSLIFO: 314 -100 0 0 196 -76 0 0 185 -76 0 0 167 -76 0 0 135 -120 0 0 90 -37 0 0 86 -37 0 0 83 -37 0 0 80 -76 0 0 70 -76 0 0 66 -76 0 0 34 -120 0 0 28 -76 0 0 27 -76 0 0 15 -100 0 0 14 -47 0 0 13 -100 0 0
EndChar
StartChar: X
Encoding: 88 88 57
Width: 462
Flags: W
Fore
82 0 m 1,0,-1
 25 0 l 1,1,-1
 252 237 l 1,2,-1
 125 475 l 1,3,-1
 182 475 l 1,4,-1
 288 275 l 1,5,-1
 480 475 l 1,6,-1
 537 475 l 1,7,-1
 309 237 l 1,8,-1
 437 0 l 1,9,-1
 380 0 l 1,10,-1
 273 199 l 1,11,-1
 82 0 l 1,0,-1
EndSplineSet
KernsSLIFO: 196 -30 0 0 195 -45 0 0 185 -30 0 0 167 -47 0 0 153 -30 0 0 136 -30 0 0 90 -45 0 0 86 -45 0 0 80 -45 0 0 70 -45 0 0 66 -37 0 0 48 -30 0 0 40 -30 0 0 36 -30 0 0 14 -40 0 0
EndChar
StartChar: Y
Encoding: 89 89 58
Width: 450
Flags: W
Fore
247 0 m 1,0,-1
 202 0 l 1,1,-1
 252 237 l 1,2,-1
 125 475 l 1,3,-1
 176 475 l 1,4,-1
 282 275 l 1,5,-1
 474 475 l 1,6,-1
 525 475 l 1,7,-1
 297 237 l 1,8,-1
 247 0 l 1,0,-1
EndSplineSet
KernsSLIFO: 314 -140 0 0 196 -123 0 0 195 -40 0 0 185 -123 0 0 167 -131 0 0 153 -40 0 0 135 -120 0 0 87 -94 0 0 86 -104 0 0 84 -104 0 0 83 -60 0 0 82 -123 0 0 81 -60 0 0 80 -123 0 0 79 -60 0 0 78 -60 0 0 72 -123 0 0 70 -123 0 0 69 -115 0 0 66 -131 0 0 48 -40 0 0 43 -120 0 0 34 -120 0 0 28 -70 0 0 27 -70 0 0 15 -100 0 0 14 -70 0 0 13 -100 0 0
EndChar
StartChar: Z
Encoding: 90 90 59
Width: 466
Flags: W
Fore
133 435 m 1,0,-1
 141 475 l 1,1,-1
 541 475 l 1,2,-1
 123 40 l 1,3,-1
 433 40 l 1,4,-1
 425 0 l 1,5,-1
 25 0 l 1,6,-1
 443 435 l 1,7,-1
 133 435 l 1,0,-1
EndSplineSet
KernsSLIFO: 196 -20 0 0 195 -40 0 0 185 -20 0 0 167 -47 0 0 153 -18 0 0 136 -18 0 0 88 -60 0 0 70 -20 0 0 59 10 0 0 48 -40 0 0 40 -40 0 0 36 -40 0 0 14 -55 0 0
EndChar
StartChar: bracketleft
Encoding: 91 91 60
Width: 194
Flags: W
Fore
64 -67 m 2,0,1
 62 -78 62 -78 65.5 -85 c 128,-1,2
 69 -92 69 -92 76.5 -96.5 c 128,-1,3
 84 -101 84 -101 93.5 -103 c 128,-1,4
 103 -105 103 -105 114 -105 c 2,5,-1
 138 -105 l 1,6,-1
 130 -142 l 1,7,-1
 106 -142 l 2,8,9
 86 -142 86 -142 69 -138 c 128,-1,10
 52 -134 52 -134 40 -125.5 c 128,-1,11
 28 -117 28 -117 22.5 -103.5 c 128,-1,12
 17 -90 17 -90 22 -70 c 2,13,-1
 134 457 l 2,14,15
 138 477 138 477 149 491 c 128,-1,16
 160 505 160 505 175.5 514 c 128,-1,17
 191 523 191 523 210 527 c 128,-1,18
 229 531 229 531 249 531 c 2,19,-1
 273 531 l 1,20,-1
 266 494 l 1,21,-1
 242 494 l 2,22,23
 221 494 221 494 200.5 485 c 128,-1,24
 180 476 180 476 175 454 c 2,25,-1
 64 -67 l 2,0,1
EndSplineSet
KernsSLIFO: 75 70 0 0
EndChar
StartChar: bracketright
Encoding: 93 93 62
Width: 194
Flags: W
Fore
215 454 m 2,0,1
 219 476 219 476 203 485 c 128,-1,2
 187 494 187 494 166 494 c 2,3,-1
 142 494 l 1,4,-1
 149 531 l 1,5,-1
 173 531 l 2,6,7
 213 531 213 531 239.5 514 c 128,-1,8
 266 497 266 497 258 457 c 2,9,-1
 146 -70 l 2,10,11
 137 -110 137 -110 103.5 -126 c 128,-1,12
 70 -142 70 -142 30 -142 c 2,13,-1
 6 -142 l 1,14,-1
 14 -105 l 1,15,-1
 38 -105 l 2,16,17
 59 -105 59 -105 79 -97 c 128,-1,18
 99 -89 99 -89 104 -67 c 2,19,-1
 215 454 l 2,0,1
EndSplineSet
EndChar
StartChar: asciicircum
Encoding: 94 94 63
Width: 452
Flags: W
Fore
317 440 m 1,0,-1
 154 248 l 1,1,-1
 109 248 l 1,2,-1
 334 519 l 1,3,-1
 445 248 l 1,4,-1
 399 248 l 1,5,-1
 317 440 l 1,0,-1
EndSplineSet
EndChar
StartChar: underscore
Encoding: 95 95 64
Width: 358
Flags: W
Fore
-20 -91 m 1,0,-1
 -11 -51 l 1,1,-1
 348 -51 l 1,2,3
 347 -56 347 -56 345 -62 c 0,4,5
 342 -72 342 -72 339 -91 c 1,6,-1
 -20 -91 l 1,0,-1
EndSplineSet
EndChar
StartChar: grave
Encoding: 96 96 65
Width: 119
Flags: W
Fore
196 375 m 1,0,-1
 149 375 l 1,1,-1
 100 485 l 1,2,-1
 147 485 l 1,3,-1
 196 375 l 1,0,-1
EndSplineSet
EndChar
StartChar: a
Encoding: 97 97 66
Width: 352
Flags: W
Fore
282 46 m 1,0,1
 273 35 273 35 259.5 26 c 128,-1,2
 246 17 246 17 230.5 10 c 128,-1,3
 215 3 215 3 199.5 -1 c 128,-1,4
 184 -5 184 -5 171 -5 c 2,5,-1
 131 -5 l 2,6,7
 108 -5 108 -5 91.5 4.5 c 128,-1,8
 75 14 75 14 65 30 c 128,-1,9
 55 46 55 46 52.5 67 c 128,-1,10
 50 88 50 88 55 111 c 2,11,-1
 75 204 l 2,12,13
 81 232 81 232 97 257.5 c 128,-1,14
 113 283 113 283 135.5 302.5 c 128,-1,15
 158 322 158 322 185 333 c 128,-1,16
 212 344 212 344 240 344 c 2,17,-1
 280 344 l 2,18,19
 307 344 307 344 317.5 332 c 128,-1,20
 328 320 328 320 338 308 c 1,21,-1
 345 339 l 1,22,-1
 390 339 l 1,23,-1
 317 -2 l 1,24,-1
 272 -2 l 1,25,-1
 282 46 l 1,0,1
321 228 m 2,26,27
 322 241 322 241 319.5 254.5 c 128,-1,28
 317 268 317 268 310.5 279 c 128,-1,29
 304 290 304 290 294 297 c 128,-1,30
 284 304 284 304 271 304 c 2,31,-1
 231 304 l 2,32,33
 212 304 212 304 194 295.5 c 128,-1,34
 176 287 176 287 161 273 c 128,-1,35
 146 259 146 259 135 241 c 128,-1,36
 124 223 124 223 120 204 c 2,37,-1
 100 111 l 2,38,39
 94 84 94 84 103.5 59.5 c 128,-1,40
 113 35 113 35 140 35 c 2,41,-1
 180 35 l 2,42,43
 198 35 198 35 217.5 43 c 128,-1,44
 237 51 237 51 253.5 64.5 c 128,-1,45
 270 78 270 78 282.5 95.5 c 128,-1,46
 295 113 295 113 300 131 c 2,47,-1
 321 228 l 2,26,27
EndSplineSet
KernsSLIFO: 90 -14 0 0 88 -10 0 0 87 -14 0 0
Substitution: 0 65534 'L026' uni0E38
Substitution: 0 65534 'L026' uni0E38
EndChar
StartChar: b
Encoding: 98 98 67
Width: 353
Flags: W
Fore
136 475 m 1,0,-1
 181 475 l 1,1,-1
 144 298 l 1,2,3
 166 315 166 315 190 329.5 c 128,-1,4
 214 344 214 344 246 344 c 2,5,-1
 286 344 l 2,6,7
 309 344 309 344 327 334.5 c 128,-1,8
 345 325 345 325 356 309 c 128,-1,9
 367 293 367 293 370.5 272 c 128,-1,10
 374 251 374 251 369 228 c 2,11,-1
 349 135 l 2,12,13
 343 106 343 106 327.5 81 c 128,-1,14
 312 56 312 56 290 36.5 c 128,-1,15
 268 17 268 17 241.5 6 c 128,-1,16
 215 -5 215 -5 187 -5 c 2,17,-1
 147 -5 l 2,18,19
 121 -5 121 -5 109 5.5 c 128,-1,20
 97 16 97 16 86 27 c 1,21,-1
 81 0 l 1,22,-1
 36 0 l 1,23,-1
 136 475 l 1,0,-1
324 230 m 2,24,25
 330 257 330 257 317 280.5 c 128,-1,26
 304 304 304 304 277 304 c 2,27,-1
 237 304 l 2,28,29
 220 304 220 304 203 297 c 128,-1,30
 186 290 186 290 171.5 278.5 c 128,-1,31
 157 267 157 267 145 252 c 128,-1,32
 133 237 133 237 127 221 c 1,33,-1
 102 102 l 1,34,35
 102 90 102 90 105.5 78.5 c 128,-1,36
 109 67 109 67 116 57 c 128,-1,37
 123 47 123 47 133.5 41 c 128,-1,38
 144 35 144 35 156 35 c 2,39,-1
 196 35 l 2,40,41
 215 35 215 35 232.5 44 c 128,-1,42
 250 53 250 53 265 67 c 128,-1,43
 280 81 280 81 290.5 99.5 c 128,-1,44
 301 118 301 118 305 137 c 2,45,-1
 324 230 l 2,24,25
EndSplineSet
KernsSLIFO: 314 -18 0 0 90 -4 0 0 15 -18 0 0 13 -29 0 0
Substitution: 0 65534 'L026' uni0E39
Substitution: 0 65534 'L026' uni0E39
EndChar
StartChar: c
Encoding: 99 99 68
Width: 349
Flags: W
Fore
322 238 m 1,0,1
 328 265 328 265 312.5 284.5 c 128,-1,2
 297 304 297 304 270 304 c 2,3,-1
 231 304 l 2,4,5
 212 304 212 304 194 295.5 c 128,-1,6
 176 287 176 287 161 273 c 128,-1,7
 146 259 146 259 135 241 c 128,-1,8
 124 223 124 223 120 204 c 2,9,-1
 100 111 l 2,10,11
 97 97 97 97 99.5 83.5 c 128,-1,12
 102 70 102 70 108.5 59.5 c 128,-1,13
 115 49 115 49 125.5 42 c 128,-1,14
 136 35 136 35 150 35 c 2,15,-1
 190 35 l 2,16,17
 209 35 209 35 226.5 41.5 c 128,-1,18
 244 48 244 48 258.5 59 c 128,-1,19
 273 70 273 70 283.5 86 c 128,-1,20
 294 102 294 102 298 121 c 1,21,-1
 343 121 l 1,22,23
 337 92 337 92 321.5 69 c 128,-1,24
 306 46 306 46 284 29.5 c 128,-1,25
 262 13 262 13 235.5 4 c 128,-1,26
 209 -5 209 -5 181 -5 c 2,27,-1
 141 -5 l 2,28,29
 118 -5 118 -5 99.5 4.5 c 128,-1,30
 81 14 81 14 69.5 30 c 128,-1,31
 58 46 58 46 54 67 c 128,-1,32
 50 88 50 88 55 111 c 2,33,-1
 75 204 l 2,34,35
 81 232 81 232 97 257.5 c 128,-1,36
 113 283 113 283 135.5 302.5 c 128,-1,37
 158 322 158 322 185 333 c 128,-1,38
 212 344 212 344 240 344 c 2,39,-1
 279 344 l 2,40,41
 326 344 326 344 351.5 314.5 c 128,-1,42
 377 285 377 285 367 238 c 1,43,-1
 322 238 l 1,0,1
EndSplineSet
KernsSLIFO: 168 -6 0 0 68 -6 0 0 53 -96 0 0 14 -18 0 0
Substitution: 0 65534 'L026' uni0E3A
Substitution: 0 65534 'L026' uni0E3A
EndChar
StartChar: d
Encoding: 100 100 69
Width: 354
Flags: W
Fore
282 46 m 1,0,1
 279 41 279 41 268 32.5 c 128,-1,2
 257 24 257 24 241.5 15.5 c 128,-1,3
 226 7 226 7 207.5 1 c 128,-1,4
 189 -5 189 -5 171 -5 c 2,5,-1
 131 -5 l 2,6,7
 108 -5 108 -5 91.5 4.5 c 128,-1,8
 75 14 75 14 65 30 c 128,-1,9
 55 46 55 46 52.5 67 c 128,-1,10
 50 88 50 88 55 111 c 2,11,-1
 75 204 l 2,12,13
 81 232 81 232 97 257.5 c 128,-1,14
 113 283 113 283 135.5 302.5 c 128,-1,15
 158 322 158 322 185 333 c 128,-1,16
 212 344 212 344 240 344 c 2,17,-1
 280 344 l 2,18,19
 310 344 310 344 320.5 335 c 128,-1,20
 331 326 331 326 339 313 c 1,21,-1
 373 475 l 1,22,-1
 418 475 l 1,23,-1
 317 -2 l 1,24,-1
 272 -2 l 1,25,-1
 282 46 l 1,0,1
322 233 m 2,26,27
 325 259 325 259 311 281.5 c 128,-1,28
 297 304 297 304 271 304 c 2,29,-1
 231 304 l 2,30,31
 212 304 212 304 194 295.5 c 128,-1,32
 176 287 176 287 161 273 c 128,-1,33
 146 259 146 259 135 241 c 128,-1,34
 124 223 124 223 120 204 c 2,35,-1
 100 111 l 2,36,37
 94 84 94 84 103.5 59.5 c 128,-1,38
 113 35 113 35 140 35 c 2,39,-1
 180 35 l 2,40,41
 198 35 198 35 217.5 43 c 128,-1,42
 237 51 237 51 253.5 64.5 c 128,-1,43
 270 78 270 78 282.5 95.5 c 128,-1,44
 295 113 295 113 300 131 c 2,45,-1
 322 233 l 2,26,27
EndSplineSet
EndChar
StartChar: e
Encoding: 101 101 70
Width: 350
Flags: W
Fore
100 111 m 2,0,1
 97 97 97 97 99.5 83.5 c 128,-1,2
 102 70 102 70 108.5 59.5 c 128,-1,3
 115 49 115 49 125.5 42 c 128,-1,4
 136 35 136 35 150 35 c 2,5,-1
 190 35 l 2,6,7
 209 35 209 35 226.5 42 c 128,-1,8
 244 49 244 49 259 61 c 128,-1,9
 274 73 274 73 284.5 89.5 c 128,-1,10
 295 106 295 106 299 125 c 1,11,-1
 344 125 l 1,12,13
 338 96 338 96 322 72.5 c 128,-1,14
 306 49 306 49 284 31.5 c 128,-1,15
 262 14 262 14 235.5 4.5 c 128,-1,16
 209 -5 209 -5 181 -5 c 2,17,-1
 141 -5 l 2,18,19
 118 -5 118 -5 99.5 4.5 c 128,-1,20
 81 14 81 14 69.5 30 c 128,-1,21
 58 46 58 46 54 67 c 128,-1,22
 50 88 50 88 55 111 c 2,23,-1
 75 204 l 2,24,25
 81 232 81 232 97 257.5 c 128,-1,26
 113 283 113 283 135.5 302.5 c 128,-1,27
 158 322 158 322 185 333 c 128,-1,28
 212 344 212 344 240 344 c 2,29,-1
 280 344 l 2,30,31
 303 344 303 344 321.5 334.5 c 128,-1,32
 340 325 340 325 351.5 309 c 128,-1,33
 363 293 363 293 367 272 c 128,-1,34
 371 251 371 251 366 228 c 2,35,-1
 355 177 l 1,36,-1
 114 177 l 1,37,-1
 100 111 l 2,0,1
231 304 m 2,38,39
 212 304 212 304 194 297 c 128,-1,40
 176 290 176 290 161.5 277.5 c 128,-1,41
 147 265 147 265 136.5 248 c 128,-1,42
 126 231 126 231 122 212 c 1,43,-1
 318 212 l 1,44,-1
 321 228 l 2,45,46
 324 241 324 241 321.5 255 c 128,-1,47
 319 269 319 269 312.5 279.5 c 128,-1,48
 306 290 306 290 295 297 c 128,-1,49
 284 304 284 304 271 304 c 2,50,-1
 231 304 l 2,38,39
EndSplineSet
KernsSLIFO: 53 -80 0 0
EndChar
StartChar: f
Encoding: 102 102 71
Width: 212
Flags: W
Fore
149 304 m 1,0,-1
 84 304 l 1,1,-1
 92 339 l 1,2,-1
 157 339 l 1,3,4
 163 367 163 367 179 391.5 c 128,-1,5
 195 416 195 416 217 434.5 c 128,-1,6
 239 453 239 453 265.5 463.5 c 128,-1,7
 292 474 292 474 320 474 c 1,8,-1
 311 429 l 1,9,10
 292 429 292 429 274.5 422 c 128,-1,11
 257 415 257 415 242 403 c 128,-1,12
 227 391 227 391 216.5 374.5 c 128,-1,13
 206 358 206 358 202 339 c 1,14,-1
 264 339 l 1,15,-1
 256 304 l 1,16,-1
 194 304 l 1,17,-1
 130 0 l 1,18,-1
 85 0 l 1,19,-1
 149 304 l 1,0,-1
EndSplineSet
KernsSLIFO: 314 -50 0 0 309 40 0 0 306 40 0 0 185 -20 0 0 175 80 0 0 170 -20 0 0 167 -25 0 0 97 40 0 0 94 40 0 0 90 -25 0 0 86 -20 0 0 84 -23 0 0 83 -10 0 0 82 -10 0 0 81 -10 0 0 80 -20 0 0 79 20 0 0 78 20 0 0 75 30 0 0 72 -10 0 0 71 -40 0 0 70 -20 0 0 68 -20 0 0 66 -25 0 0 62 30 0 0 61 60 0 0 32 50 0 0 15 -50 0 0 11 40 0 0 10 40 0 0 8 40 0 0
EndChar
StartChar: g
Encoding: 103 103 72
Width: 354
Flags: W
Fore
285 59 m 1,0,1
 263 42 263 42 238 31 c 128,-1,2
 213 20 213 20 187 20 c 2,3,-1
 147 20 l 2,4,5
 124 20 124 20 105.5 29.5 c 128,-1,6
 87 39 87 39 75.5 55 c 128,-1,7
 64 71 64 71 59.5 92 c 128,-1,8
 55 113 55 113 60 136 c 2,9,-1
 75 204 l 2,10,11
 81 232 81 232 97 257.5 c 128,-1,12
 113 283 113 283 135.5 302.5 c 128,-1,13
 158 322 158 322 185 333 c 128,-1,14
 212 344 212 344 240 344 c 2,15,-1
 280 344 l 2,16,17
 303 344 303 344 316.5 334.5 c 128,-1,18
 330 325 330 325 339 313 c 1,19,-1
 345 339 l 1,20,-1
 390 339 l 1,21,-1
 316 -6 l 2,22,23
 311 -30 311 -30 294 -51.5 c 128,-1,24
 277 -73 277 -73 253.5 -89 c 128,-1,25
 230 -105 230 -105 204 -114.5 c 128,-1,26
 178 -124 178 -124 154 -124 c 2,27,-1
 114 -124 l 2,28,29
 77 -124 77 -124 53.5 -103 c 128,-1,30
 30 -82 30 -82 25 -50 c 1,31,-1
 78 -50 l 1,32,33
 84 -64 84 -64 96 -75 c 128,-1,34
 108 -86 108 -86 125 -86 c 2,35,-1
 165 -86 l 2,36,37
 182 -86 182 -86 199.5 -79.5 c 128,-1,38
 217 -73 217 -73 231.5 -62.5 c 128,-1,39
 246 -52 246 -52 257 -37.5 c 128,-1,40
 268 -23 268 -23 271 -6 c 2,41,-1
 285 59 l 1,0,1
322 233 m 2,42,43
 325 259 325 259 311 281 c 128,-1,44
 297 303 297 303 271 303 c 2,45,-1
 231 303 l 2,46,47
 212 303 212 303 194 294.5 c 128,-1,48
 176 286 176 286 161 272.5 c 128,-1,49
 146 259 146 259 135 241 c 128,-1,50
 124 223 124 223 120 204 c 2,51,-1
 105 136 l 2,52,53
 102 122 102 122 104.5 108.5 c 128,-1,54
 107 95 107 95 114 84.5 c 128,-1,55
 121 74 121 74 131 67 c 128,-1,56
 141 60 141 60 155 60 c 2,57,-1
 195 60 l 2,58,59
 213 60 213 60 231 68 c 128,-1,60
 249 76 249 76 264 89.5 c 128,-1,61
 279 103 279 103 290 120.5 c 128,-1,62
 301 138 301 138 306 156 c 2,63,-1
 322 233 l 2,42,43
EndSplineSet
KernsSLIFO: 75 60 0 0
EndChar
StartChar: h
Encoding: 104 104 73
Width: 357
Flags: W
Fore
324 230 m 2,0,1
 330 257 330 257 317 280.5 c 128,-1,2
 304 304 304 304 277 304 c 2,3,-1
 237 304 l 2,4,5
 220 304 220 304 203 297 c 128,-1,6
 186 290 186 290 171.5 278.5 c 128,-1,7
 157 267 157 267 145 252 c 128,-1,8
 133 237 133 237 127 221 c 1,9,-1
 81 0 l 1,10,-1
 36 0 l 1,11,-1
 136 475 l 1,12,-1
 181 475 l 1,13,-1
 145 303 l 1,14,15
 167 320 167 320 193 332 c 128,-1,16
 219 344 219 344 246 344 c 2,17,-1
 286 344 l 2,18,19
 309 344 309 344 327 334.5 c 128,-1,20
 345 325 345 325 356 309 c 128,-1,21
 367 293 367 293 370.5 272 c 128,-1,22
 374 251 374 251 369 228 c 2,23,-1
 321 0 l 1,24,-1
 276 0 l 1,25,-1
 324 230 l 2,0,1
EndSplineSet
KernsSLIFO: 90 -18 0 0 88 -10 0 0 87 -18 0 0
EndChar
StartChar: i
Encoding: 105 105 74
Width: 165
Flags: W
Fore
132 339 m 1,0,-1
 177 339 l 1,1,-1
 105 0 l 1,2,-1
 60 0 l 1,3,-1
 132 339 l 1,0,-1
140 433 m 0,4,5
 143 448 143 448 155 458 c 128,-1,6
 167 468 167 468 182 468 c 256,7,8
 197 468 197 468 205 458 c 128,-1,9
 213 448 213 448 210 433 c 0,10,11
 206 418 206 418 194 408 c 128,-1,12
 182 398 182 398 167 398 c 256,13,14
 152 398 152 398 144 408 c 128,-1,15
 136 418 136 418 140 433 c 0,4,5
EndSplineSet
KernsSLIFO: 85 -20 0 0 77 2 0 0 74 2 0 0 71 -20 0 0
EndChar
StartChar: j
Encoding: 106 106 75
Width: 165
Flags: W
Fore
132 339 m 1,0,-1
 177 339 l 1,1,-1
 105 0 l 2,2,3
 99 -28 99 -28 83 -52.5 c 128,-1,4
 67 -77 67 -77 45 -95.5 c 128,-1,5
 23 -114 23 -114 -4 -124.5 c 128,-1,6
 -31 -135 -31 -135 -58 -135 c 2,7,-1
 -98 -135 l 1,8,-1
 -89 -90 l 1,9,-1
 -49 -90 l 2,10,11
 -12 -90 -12 -90 19.5 -64 c 128,-1,12
 51 -38 51 -38 60 0 c 2,13,-1
 132 339 l 1,0,-1
140 433 m 0,14,15
 143 448 143 448 155 458 c 128,-1,16
 167 468 167 468 182 468 c 256,17,18
 197 468 197 468 205 458 c 128,-1,19
 213 448 213 448 210 433 c 0,20,21
 206 418 206 418 194 408 c 128,-1,22
 182 398 182 398 167 398 c 256,23,24
 152 398 152 398 144 408 c 128,-1,25
 136 418 136 418 140 433 c 0,14,15
EndSplineSet
EndChar
StartChar: k
Encoding: 107 107 76
Width: 336
Flags: W
Fore
172 202 m 1,0,1
 181 199 181 199 190.5 190 c 128,-1,2
 200 181 200 181 206 173 c 2,3,-1
 335 0 l 1,4,-1
 274 0 l 1,5,-1
 165 144 l 2,6,7
 147 167 147 167 117 170 c 1,8,-1
 81 0 l 1,9,-1
 36 0 l 1,10,-1
 136 475 l 1,11,-1
 181 475 l 1,12,-1
 126 216 l 1,13,-1
 314 339 l 1,14,-1
 383 339 l 1,15,-1
 172 202 l 1,0,1
EndSplineSet
KernsSLIFO: 196 -18 0 0 185 -18 0 0 80 -18 0 0 70 -18 0 0 14 -40 0 0
EndChar
StartChar: l
Encoding: 108 108 77
Width: 165
Flags: W
Fore
160 475 m 1,0,-1
 205 475 l 1,1,-1
 105 0 l 1,2,-1
 60 0 l 1,3,-1
 160 475 l 1,0,-1
EndSplineSet
KernsSLIFO: 176 10 0 0 175 10 0 0 85 -20 0 0 77 6 0 0 74 2 0 0 71 -20 0 0
EndChar
StartChar: m
Encoding: 109 109 78
Width: 523
Flags: W
Fore
239 0 m 1,0,-1
 287 228 l 2,1,2
 290 241 290 241 287.5 255 c 128,-1,3
 285 269 285 269 278.5 279.5 c 128,-1,4
 272 290 272 290 261 297 c 128,-1,5
 250 304 250 304 237 304 c 0,6,7
 220 304 220 304 202 297 c 128,-1,8
 184 290 184 290 168.5 279 c 128,-1,9
 153 268 153 268 142 252.5 c 128,-1,10
 131 237 131 237 127 221 c 2,11,-1
 81 0 l 1,12,-1
 36 0 l 1,13,-1
 108 339 l 1,14,-1
 153 339 l 1,15,-1
 145 303 l 1,16,17
 167 320 167 320 193 332 c 128,-1,18
 219 344 219 344 246 344 c 0,19,20
 274 344 274 344 294 329 c 128,-1,21
 314 314 314 314 325 293 c 1,22,23
 349 316 349 316 382.5 330 c 128,-1,24
 416 344 416 344 449 344 c 0,25,26
 472 344 472 344 490.5 334.5 c 128,-1,27
 509 325 509 325 520.5 309 c 128,-1,28
 532 293 532 293 536 272 c 128,-1,29
 540 251 540 251 535 228 c 2,30,-1
 487 0 l 1,31,-1
 442 0 l 1,32,-1
 490 230 l 2,33,34
 496 257 496 257 481.5 280.5 c 128,-1,35
 467 304 467 304 440 304 c 0,36,37
 423 304 423 304 405.5 298.5 c 128,-1,38
 388 293 388 293 372.5 282.5 c 128,-1,39
 357 272 357 272 346 258 c 128,-1,40
 335 244 335 244 332 227 c 2,41,-1
 284 0 l 1,42,-1
 239 0 l 1,0,-1
EndSplineSet
KernsSLIFO: 88 -10 0 0 87 -18 0 0
EndChar
StartChar: n
Encoding: 110 110 79
Width: 360
Flags: W
Fore
327 230 m 2,0,1
 333 257 333 257 318.5 280.5 c 128,-1,2
 304 304 304 304 277 304 c 2,3,-1
 237 304 l 2,4,5
 220 304 220 304 203 297 c 128,-1,6
 186 290 186 290 171.5 278.5 c 128,-1,7
 157 267 157 267 145 252 c 128,-1,8
 133 237 133 237 127 221 c 1,9,-1
 81 0 l 1,10,-1
 36 0 l 1,11,-1
 108 339 l 1,12,-1
 153 339 l 1,13,-1
 145 303 l 1,14,15
 167 320 167 320 193 332 c 128,-1,16
 219 344 219 344 246 344 c 2,17,-1
 286 344 l 2,18,19
 309 344 309 344 327.5 334.5 c 128,-1,20
 346 325 346 325 357.5 309 c 128,-1,21
 369 293 369 293 373 272 c 128,-1,22
 377 251 377 251 372 228 c 2,23,-1
 324 0 l 1,24,-1
 279 0 l 1,25,-1
 327 230 l 2,0,1
EndSplineSet
KernsSLIFO: 90 -18 0 0 88 -10 0 0 87 -18 0 0
EndChar
StartChar: o
Encoding: 111 111 80
Width: 350
Flags: W
Fore
346 135 m 2,0,1
 340 106 340 106 324 81 c 128,-1,2
 308 56 308 56 285.5 36.5 c 128,-1,3
 263 17 263 17 236 6 c 128,-1,4
 209 -5 209 -5 181 -5 c 2,5,-1
 141 -5 l 2,6,7
 118 -5 118 -5 99.5 4.5 c 128,-1,8
 81 14 81 14 69.5 30 c 128,-1,9
 58 46 58 46 54 67 c 128,-1,10
 50 88 50 88 55 111 c 2,11,-1
 75 204 l 2,12,13
 81 232 81 232 97 257.5 c 128,-1,14
 113 283 113 283 135.5 302.5 c 128,-1,15
 158 322 158 322 185 333 c 128,-1,16
 212 344 212 344 240 344 c 2,17,-1
 280 344 l 2,18,19
 303 344 303 344 321.5 334.5 c 128,-1,20
 340 325 340 325 351.5 309 c 128,-1,21
 363 293 363 293 367 272 c 128,-1,22
 371 251 371 251 366 228 c 2,23,-1
 346 135 l 2,0,1
321 228 m 2,24,25
 324 241 324 241 321.5 255 c 128,-1,26
 319 269 319 269 312.5 279.5 c 128,-1,27
 306 290 306 290 295 297 c 128,-1,28
 284 304 284 304 271 304 c 2,29,-1
 231 304 l 2,30,31
 212 304 212 304 194 295.5 c 128,-1,32
 176 287 176 287 161 273 c 128,-1,33
 146 259 146 259 135 241 c 128,-1,34
 124 223 124 223 120 204 c 2,35,-1
 100 111 l 2,36,37
 97 97 97 97 99.5 83.5 c 128,-1,38
 102 70 102 70 108.5 59.5 c 128,-1,39
 115 49 115 49 125.5 42 c 128,-1,40
 136 35 136 35 150 35 c 2,41,-1
 190 35 l 2,42,43
 209 35 209 35 227 43.5 c 128,-1,44
 245 52 245 52 260 66 c 128,-1,45
 275 80 275 80 286 98 c 128,-1,46
 297 116 297 116 301 135 c 2,47,-1
 321 228 l 2,24,25
EndSplineSet
KernsSLIFO: 314 -40 0 0 90 -12 0 0 89 -18 0 0 87 -12 0 0 15 -40 0 0 13 -29 0 0
EndChar
StartChar: p
Encoding: 112 112 81
Width: 354
Flags: W
Fore
108 339 m 1,0,-1
 153 339 l 1,1,-1
 144 300 l 1,2,3
 158 316 158 316 186 330 c 128,-1,4
 214 344 214 344 244 344 c 2,5,-1
 284 344 l 2,6,7
 307 344 307 344 325.5 334.5 c 128,-1,8
 344 325 344 325 355.5 309 c 128,-1,9
 367 293 367 293 371 272 c 128,-1,10
 375 251 375 251 370 228 c 2,11,-1
 350 135 l 2,12,13
 344 106 344 106 328 81 c 128,-1,14
 312 56 312 56 289.5 36.5 c 128,-1,15
 267 17 267 17 240 6 c 128,-1,16
 213 -5 213 -5 185 -5 c 2,17,-1
 145 -5 l 2,18,19
 122 -5 122 -5 108.5 5 c 128,-1,20
 95 15 95 15 86 26 c 1,21,-1
 54 -125 l 1,22,-1
 9 -125 l 1,23,-1
 108 339 l 1,0,-1
325 228 m 2,24,25
 328 241 328 241 325.5 255 c 128,-1,26
 323 269 323 269 316.5 279.5 c 128,-1,27
 310 290 310 290 299 297 c 128,-1,28
 288 304 288 304 275 304 c 2,29,-1
 235 304 l 2,30,31
 217 304 217 304 198.5 296 c 128,-1,32
 180 288 180 288 165 274.5 c 128,-1,33
 150 261 150 261 139.5 243.5 c 128,-1,34
 129 226 129 226 125 208 c 2,35,-1
 104 111 l 2,36,37
 101 97 101 97 103.5 83.5 c 128,-1,38
 106 70 106 70 112.5 59.5 c 128,-1,39
 119 49 119 49 129.5 42 c 128,-1,40
 140 35 140 35 154 35 c 2,41,-1
 194 35 l 2,42,43
 213 35 213 35 231 43.5 c 128,-1,44
 249 52 249 52 264 66 c 128,-1,45
 279 80 279 80 290 98 c 128,-1,46
 301 116 301 116 305 135 c 2,47,-1
 325 228 l 2,24,25
EndSplineSet
KernsSLIFO: 314 -18 0 0 90 -4 0 0 15 -18 0 0 13 -29 0 0
EndChar
StartChar: q
Encoding: 113 113 82
Width: 354
Flags: W
Fore
281 42 m 1,0,1
 262 22 262 22 234.5 8.5 c 128,-1,2
 207 -5 207 -5 181 -5 c 2,3,-1
 141 -5 l 2,4,5
 118 -5 118 -5 99.5 4.5 c 128,-1,6
 81 14 81 14 69.5 30 c 128,-1,7
 58 46 58 46 54 67 c 128,-1,8
 50 88 50 88 55 111 c 2,9,-1
 75 204 l 2,10,11
 81 232 81 232 97 257.5 c 128,-1,12
 113 283 113 283 135.5 302.5 c 128,-1,13
 158 322 158 322 185 333 c 128,-1,14
 212 344 212 344 240 344 c 2,15,-1
 280 344 l 2,16,17
 305 344 305 344 317 334.5 c 128,-1,18
 329 325 329 325 339 313 c 1,19,-1
 345 339 l 1,20,-1
 390 339 l 1,21,-1
 291 -125 l 1,22,-1
 246 -125 l 1,23,-1
 281 42 l 1,0,1
322 233 m 2,24,25
 325 259 325 259 311 281 c 128,-1,26
 297 303 297 303 271 303 c 2,27,-1
 231 303 l 2,28,29
 212 303 212 303 194 294.5 c 128,-1,30
 176 286 176 286 161 272.5 c 128,-1,31
 146 259 146 259 135 241 c 128,-1,32
 124 223 124 223 120 204 c 2,33,-1
 100 111 l 2,34,35
 97 97 97 97 99.5 83.5 c 128,-1,36
 102 70 102 70 108.5 59.5 c 128,-1,37
 115 49 115 49 125.5 42 c 128,-1,38
 136 35 136 35 150 35 c 2,39,-1
 190 35 l 2,40,41
 208 35 208 35 225.5 43 c 128,-1,42
 243 51 243 51 258 64.5 c 128,-1,43
 273 78 273 78 284 95.5 c 128,-1,44
 295 113 295 113 300 131 c 2,45,-1
 322 233 l 2,24,25
EndSplineSet
EndChar
StartChar: r
Encoding: 114 114 83
Width: 232
Flags: W
Fore
109 339 m 1,0,-1
 154 339 l 1,1,-1
 146 304 l 1,2,3
 168 320 168 320 193.5 332 c 128,-1,4
 219 344 219 344 245 344 c 2,5,-1
 285 344 l 1,6,-1
 276 304 l 1,7,-1
 236 304 l 2,8,9
 218 304 218 304 199.5 295 c 128,-1,10
 181 286 181 286 166 272 c 128,-1,11
 151 258 151 258 140 240 c 128,-1,12
 129 222 129 222 125 204 c 2,13,-1
 82 0 l 1,14,-1
 37 0 l 1,15,-1
 109 339 l 1,0,-1
EndSplineSet
KernsSLIFO: 314 -100 0 0 309 29 0 0 306 29 0 0 196 -10 0 0 185 -10 0 0 170 -10 0 0 168 -10 0 0 167 -39 0 0 82 -10 0 0 80 -10 0 0 72 -10 0 0 70 -10 0 0 69 -10 0 0 68 -10 0 0 66 -20 0 0 15 -80 0 0 14 -25 0 0 13 -60 0 0
EndChar
StartChar: s
Encoding: 115 115 84
Width: 380
Flags: W
Fore
160 163 m 2,0,1
 135 167 135 167 121.5 176 c 128,-1,2
 108 185 108 185 102.5 196.5 c 128,-1,3
 97 208 97 208 97 220.5 c 128,-1,4
 97 233 97 233 100 245 c 0,5,6
 105 270 105 270 120.5 288.5 c 128,-1,7
 136 307 136 307 156 319.5 c 128,-1,8
 176 332 176 332 198.5 338 c 128,-1,9
 221 344 221 344 241 344 c 2,10,-1
 310 344 l 2,11,12
 357 344 357 344 382.5 314.5 c 128,-1,13
 408 285 408 285 398 238 c 1,14,-1
 353 238 l 1,15,16
 359 265 359 265 343.5 284.5 c 128,-1,17
 328 304 328 304 301 304 c 2,18,-1
 232 304 l 2,19,20
 223 304 223 304 209.5 300.5 c 128,-1,21
 196 297 196 297 182.5 289.5 c 128,-1,22
 169 282 169 282 158.5 271 c 128,-1,23
 148 260 148 260 145 246 c 0,24,25
 144 241 144 241 143.5 234.5 c 128,-1,26
 143 228 143 228 146 222 c 128,-1,27
 149 216 149 216 156.5 211 c 128,-1,28
 164 206 164 206 180 203 c 2,29,-1
 318 186 l 2,30,31
 343 182 343 182 356 171.5 c 128,-1,32
 369 161 369 161 374.5 147.5 c 128,-1,33
 380 134 380 134 379.5 120 c 128,-1,34
 379 106 379 106 376 94 c 0,35,36
 371 73 371 73 358 54.5 c 128,-1,37
 345 36 345 36 326 23 c 128,-1,38
 307 10 307 10 283.5 2.5 c 128,-1,39
 260 -5 260 -5 235 -5 c 2,40,-1
 141 -5 l 2,41,42
 94 -5 94 -5 68.5 24.5 c 128,-1,43
 43 54 43 54 53 101 c 1,44,-1
 98 101 l 1,45,46
 92 74 92 74 107.5 54.5 c 128,-1,47
 123 35 123 35 150 35 c 2,48,-1
 244 35 l 2,49,50
 253 35 253 35 266.5 39 c 128,-1,51
 280 43 280 43 293.5 50.5 c 128,-1,52
 307 58 307 58 317.5 68.5 c 128,-1,53
 328 79 328 79 331 93 c 0,54,55
 336 112 336 112 330.5 126.5 c 128,-1,56
 325 141 325 141 299 146 c 2,57,-1
 160 163 l 2,0,1
EndSplineSet
EndChar
StartChar: t
Encoding: 116 116 85
Width: 212
Flags: W
Fore
149 304 m 1,0,-1
 84 304 l 1,1,-1
 92 339 l 1,2,-1
 157 339 l 1,3,-1
 185 475 l 1,4,-1
 230 475 l 1,5,-1
 202 339 l 1,6,-1
 264 339 l 1,7,-1
 256 304 l 1,8,-1
 194 304 l 1,9,-1
 130 0 l 1,10,-1
 85 0 l 1,11,-1
 149 304 l 1,0,-1
EndSplineSet
KernsSLIFO: 309 18 0 0 306 18 0 0 85 -40 0 0
EndChar
StartChar: u
Encoding: 117 117 86
Width: 357
Flags: W
Fore
104 109 m 2,0,1
 98 82 98 82 111 58.5 c 128,-1,2
 124 35 124 35 151 35 c 2,3,-1
 191 35 l 2,4,5
 208 35 208 35 225 42 c 128,-1,6
 242 49 242 49 256.5 60.5 c 128,-1,7
 271 72 271 72 283 87 c 128,-1,8
 295 102 295 102 301 118 c 1,9,-1
 348 339 l 1,10,-1
 393 339 l 1,11,-1
 321 0 l 1,12,-1
 276 0 l 1,13,-1
 285 43 l 1,14,15
 267 23 267 23 238 9 c 128,-1,16
 209 -5 209 -5 182 -5 c 2,17,-1
 142 -5 l 2,18,19
 119 -5 119 -5 101 4.5 c 128,-1,20
 83 14 83 14 72 30 c 128,-1,21
 61 46 61 46 57.5 67 c 128,-1,22
 54 88 54 88 59 111 c 2,23,-1
 108 339 l 1,24,-1
 153 339 l 1,25,-1
 104 109 l 2,0,1
EndSplineSet
EndChar
StartChar: v
Encoding: 118 118 87
Width: 349
Flags: W
Fore
197 -5 m 1,0,1
 176 -5 176 -5 160 4 c 128,-1,2
 144 13 144 13 139 31 c 2,3,-1
 92 339 l 1,4,-1
 139 339 l 1,5,-1
 184 48 l 1,6,-1
 354 339 l 1,7,-1
 401 339 l 1,8,-1
 197 -5 l 1,0,1
EndSplineSet
KernsSLIFO: 314 -100 0 0 306 31 0 0 196 -12 0 0 185 -16 0 0 167 -39 0 0 80 -16 0 0 70 -16 0 0 66 -39 0 0 15 -100 0 0 13 -80 0 0
EndChar
StartChar: w
Encoding: 119 119 88
Width: 561
Flags: W
Fore
339 280 m 1,0,-1
 181 -5 l 1,1,2
 165 -5 165 -5 154 2 c 128,-1,3
 143 9 143 9 140 23 c 2,4,-1
 92 339 l 1,5,-1
 140 339 l 1,6,-1
 176 53 l 1,7,-1
 335 345 l 1,8,9
 351 345 351 345 363 337.5 c 128,-1,10
 375 330 375 330 377 316 c 2,11,-1
 407 53 l 1,12,-1
 565 339 l 1,13,-1
 613 339 l 1,14,-1
 430 23 l 2,15,16
 422 9 422 9 407 2 c 128,-1,17
 392 -5 392 -5 376 -5 c 1,18,-1
 339 280 l 1,0,-1
EndSplineSet
KernsSLIFO: 314 -68 0 0 306 20 0 0 167 -18 0 0 66 -18 0 0 15 -68 0 0 14 -18 0 0 13 -68 0 0
EndChar
StartChar: x
Encoding: 120 120 89
Width: 373
Flags: W
Fore
357 339 m 1,0,-1
 413 339 l 1,1,-1
 254 179 l 1,2,-1
 359 0 l 1,3,-1
 302 0 l 1,4,-1
 216 145 l 1,5,-1
 71 0 l 1,6,-1
 14 0 l 1,7,-1
 194 179 l 1,8,-1
 104 339 l 1,9,-1
 160 339 l 1,10,-1
 231 213 l 1,11,-1
 357 339 l 1,0,-1
EndSplineSet
KernsSLIFO: 196 -18 0 0 185 -25 0 0 168 -18 0 0 80 -25 0 0 72 -10 0 0 70 -25 0 0 69 -10 0 0 68 -18 0 0 14 -20 0 0
EndChar
StartChar: y
Encoding: 121 121 90
Width: 358
Flags: W
Fore
81 -50 m 1,0,1
 87 -64 87 -64 99 -75 c 128,-1,2
 111 -86 111 -86 128 -86 c 2,3,-1
 168 -86 l 2,4,5
 185 -86 185 -86 202.5 -79.5 c 128,-1,6
 220 -73 220 -73 234.5 -62.5 c 128,-1,7
 249 -52 249 -52 260 -37.5 c 128,-1,8
 271 -23 271 -23 274 -6 c 2,9,-1
 288 61 l 1,10,11
 267 44 267 44 241 32 c 128,-1,12
 215 20 215 20 188 20 c 2,13,-1
 148 20 l 2,14,15
 125 20 125 20 107 29.5 c 128,-1,16
 89 39 89 39 78 55 c 128,-1,17
 67 71 67 71 63 92 c 128,-1,18
 59 113 59 113 64 136 c 2,19,-1
 108 339 l 1,20,-1
 153 339 l 1,21,-1
 109 134 l 2,22,23
 103 107 103 107 116 84 c 128,-1,24
 129 61 129 61 156 61 c 2,25,-1
 196 61 l 2,26,27
 213 61 213 61 230 68 c 128,-1,28
 247 75 247 75 262 86 c 128,-1,29
 277 97 277 97 288.5 112 c 128,-1,30
 300 127 300 127 306 143 c 1,31,-1
 348 339 l 1,32,-1
 393 339 l 1,33,-1
 319 -6 l 2,34,35
 314 -30 314 -30 297 -51.5 c 128,-1,36
 280 -73 280 -73 256.5 -89 c 128,-1,37
 233 -105 233 -105 207 -114.5 c 128,-1,38
 181 -124 181 -124 157 -124 c 2,39,-1
 117 -124 l 2,40,41
 80 -124 80 -124 56.5 -103 c 128,-1,42
 33 -82 33 -82 28 -50 c 1,43,-1
 81 -50 l 1,0,1
EndSplineSet
KernsSLIFO: 314 -40 0 0 306 31 0 0 196 -12 0 0 185 -16 0 0 168 -16 0 0 167 -20 0 0 80 -16 0 0 15 -30 0 0
EndChar
StartChar: z
Encoding: 122 122 91
Width: 375
Flags: W
Fore
336 0 m 1,0,-1
 32 0 l 1,1,-1
 321 304 l 1,2,-1
 106 304 l 1,3,-1
 114 339 l 1,4,-1
 415 339 l 1,5,-1
 124 35 l 1,6,-1
 343 35 l 1,7,-1
 336 0 l 1,0,-1
EndSplineSet
KernsSLIFO: 185 -10 0 0 168 -10 0 0 82 -10 0 0 80 -10 0 0 72 -10 0 0 70 -10 0 0 69 -10 0 0 68 -10 0 0 14 -18 0 0
EndChar
StartChar: braceleft
Encoding: 123 123 92
Width: 284
Flags: W
Fore
144 -67 m 2,0,1
 142 -78 142 -78 145.5 -85 c 128,-1,2
 149 -92 149 -92 156.5 -96.5 c 128,-1,3
 164 -101 164 -101 173.5 -103 c 128,-1,4
 183 -105 183 -105 194 -105 c 2,5,-1
 218 -105 l 1,6,-1
 210 -142 l 1,7,-1
 186 -142 l 2,8,9
 166 -142 166 -142 149 -138 c 128,-1,10
 132 -134 132 -134 120 -125.5 c 128,-1,11
 108 -117 108 -117 102.5 -103.5 c 128,-1,12
 97 -90 97 -90 102 -70 c 2,13,-1
 133 79 l 2,14,15
 137 96 137 96 130 113.5 c 128,-1,16
 123 131 123 131 110.5 145.5 c 128,-1,17
 98 160 98 160 82.5 169 c 128,-1,18
 67 178 67 178 55 178 c 1,19,20
 67 178 67 178 86 185.5 c 128,-1,21
 105 193 105 193 123.5 206.5 c 128,-1,22
 142 220 142 220 156.5 238.5 c 128,-1,23
 171 257 171 257 176 278 c 2,24,-1
 214 457 l 2,25,26
 218 477 218 477 229 491 c 128,-1,27
 240 505 240 505 255.5 514 c 128,-1,28
 271 523 271 523 290 527 c 128,-1,29
 309 531 309 531 329 531 c 2,30,-1
 353 531 l 1,31,-1
 346 494 l 1,32,-1
 322 494 l 2,33,34
 301 494 301 494 280.5 485 c 128,-1,35
 260 476 260 476 255 454 c 2,36,-1
 218 278 l 2,37,38
 213 257 213 257 202.5 239.5 c 128,-1,39
 192 222 192 222 180 209 c 128,-1,40
 168 196 168 196 156 188 c 128,-1,41
 144 180 144 180 135 178 c 1,42,43
 142 173 142 173 150.5 164 c 128,-1,44
 159 155 159 155 166 142 c 128,-1,45
 173 129 173 129 176 113 c 128,-1,46
 179 97 179 97 175 79 c 2,47,-1
 144 -67 l 2,0,1
EndSplineSet
KernsSLIFO: 75 80 0 0
EndChar
StartChar: bar
Encoding: 124 124 93
Width: 164
Flags: W
Fore
182 575 m 1,0,-1
 227 575 l 1,1,-1
 83 -100 l 1,2,-1
 38 -100 l 1,3,-1
 182 575 l 1,0,-1
EndSplineSet
EndChar
StartChar: braceright
Encoding: 125 125 94
Width: 284
Flags: W
Fore
140 79 m 2,0,1
 144 97 144 97 154 113 c 128,-1,2
 164 129 164 129 176 142 c 128,-1,3
 188 155 188 155 200.5 164 c 128,-1,4
 213 173 213 173 222 178 c 1,5,6
 215 180 215 180 206 188 c 128,-1,7
 197 196 197 196 190.5 209 c 128,-1,8
 184 222 184 222 181 239.5 c 128,-1,9
 178 257 178 257 183 278 c 2,10,-1
 220 454 l 2,11,12
 224 476 224 476 208 485 c 128,-1,13
 192 494 192 494 171 494 c 2,14,-1
 147 494 l 1,15,-1
 154 531 l 1,16,-1
 178 531 l 2,17,18
 218 531 218 531 244.5 514 c 128,-1,19
 271 497 271 497 263 457 c 2,20,-1
 225 278 l 2,21,22
 220 257 220 257 227 238.5 c 128,-1,23
 234 220 234 220 246.5 206.5 c 128,-1,24
 259 193 259 193 274.5 185.5 c 128,-1,25
 290 178 290 178 302 178 c 1,26,27
 290 178 290 178 271 169 c 128,-1,28
 252 160 252 160 233.5 145.5 c 128,-1,29
 215 131 215 131 200.5 113.5 c 128,-1,30
 186 96 186 96 182 79 c 2,31,-1
 151 -70 l 2,32,33
 142 -110 142 -110 108.5 -126 c 128,-1,34
 75 -142 75 -142 35 -142 c 2,35,-1
 11 -142 l 1,36,-1
 19 -105 l 1,37,-1
 43 -105 l 2,38,39
 64 -105 64 -105 84 -97 c 128,-1,40
 104 -89 104 -89 109 -67 c 2,41,-1
 140 79 l 2,0,1
EndSplineSet
EndChar
StartChar: asciitilde
Encoding: 126 126 95
Width: 400
Flags: W
Fore
322 217 m 0,0,1
 343 217 343 217 364.5 238.5 c 128,-1,2
 386 260 386 260 398 294 c 1,3,-1
 434 294 l 1,4,5
 427 263 427 263 412.5 240 c 128,-1,6
 398 217 398 217 380 202 c 128,-1,7
 362 187 362 187 344 179.5 c 128,-1,8
 326 172 326 172 312 172 c 0,9,10
 279 172 279 172 262 185 c 128,-1,11
 245 198 245 198 233.5 214 c 128,-1,12
 222 230 222 230 212 243 c 128,-1,13
 202 256 202 256 183 256 c 0,14,15
 162 256 162 256 140 234.5 c 128,-1,16
 118 213 118 213 107 179 c 1,17,-1
 71 179 l 1,18,19
 77 210 77 210 91.5 233 c 128,-1,20
 106 256 106 256 124 271 c 128,-1,21
 142 286 142 286 160 293.5 c 128,-1,22
 178 301 178 301 192 301 c 0,23,24
 220 301 220 301 234.5 288 c 128,-1,25
 249 275 249 275 260 259 c 128,-1,26
 271 243 271 243 284 230 c 128,-1,27
 297 217 297 217 322 217 c 0,0,1
EndSplineSet
EndChar
StartChar: quotedbl
Encoding: 34 34 97
Width: 232
Flags: W
Fore
143 505 m 1,0,-1
 190 505 l 1,1,-1
 159 359 l 1,2,-1
 112 359 l 1,3,-1
 143 505 l 1,0,-1
255 505 m 1,4,-1
 302 505 l 1,5,-1
 271 359 l 1,6,-1
 224 359 l 1,7,-1
 255 505 l 1,4,-1
EndSplineSet
EndChar
StartChar: exclam
Encoding: 33 33 98
Width: 181
Flags: W
Fore
172 476 m 1,0,-1
 217 476 l 1,1,-1
 139 109 l 1,2,-1
 94 109 l 1,3,-1
 172 476 l 1,0,-1
65 30 m 256,4,5
 62 15 62 15 69.5 5 c 128,-1,6
 77 -5 77 -5 92 -5 c 256,7,8
 107 -5 107 -5 119.5 5 c 128,-1,9
 132 15 132 15 135 30 c 256,10,11
 138 45 138 45 130 55 c 128,-1,12
 122 65 122 65 107 65 c 256,13,14
 92 65 92 65 80 55 c 128,-1,15
 68 45 68 45 65 30 c 256,4,5
EndSplineSet
EndChar
StartChar: cent
Encoding: 162 162 101
Width: 382
Flags: W
Fore
241 104 m 1,0,1
 273 109 273 109 299.5 132 c 128,-1,2
 326 155 326 155 334 190 c 1,3,-1
 379 190 l 1,4,5
 373 163 373 163 359 141 c 128,-1,6
 345 119 345 119 325.5 103 c 128,-1,7
 306 87 306 87 282 77 c 128,-1,8
 258 67 258 67 232 65 c 1,9,-1
 216 -14 l 1,10,-1
 171 -14 l 1,11,-1
 187 64 l 1,12,-1
 177 64 l 2,13,14
 154 64 154 64 135.5 73.5 c 128,-1,15
 117 83 117 83 105.5 99 c 128,-1,16
 94 115 94 115 90 136 c 128,-1,17
 86 157 86 157 91 180 c 2,18,-1
 111 273 l 2,19,20
 117 300 117 300 131 323.5 c 128,-1,21
 145 347 145 347 165.5 366 c 128,-1,22
 186 385 186 385 210.5 397 c 128,-1,23
 235 409 235 409 261 412 c 1,24,-1
 278 492 l 1,25,-1
 323 492 l 1,26,-1
 306 413 l 1,27,-1
 314 413 l 2,28,29
 361 413 361 413 387 383.5 c 128,-1,30
 413 354 413 354 403 307 c 1,31,-1
 358 307 l 1,32,33
 363 334 363 334 348 353.5 c 128,-1,34
 333 373 333 373 306 373 c 2,35,-1
 253 373 l 1,36,37
 236 370 236 370 220 360.5 c 128,-1,38
 204 351 204 351 191 337.5 c 128,-1,39
 178 324 178 324 168.5 307 c 128,-1,40
 159 290 159 290 156 273 c 2,41,-1
 136 180 l 2,42,43
 133 166 133 166 135.5 152.5 c 128,-1,44
 138 139 138 139 144.5 128.5 c 128,-1,45
 151 118 151 118 161.5 111 c 128,-1,46
 172 104 172 104 186 104 c 2,47,-1
 241 104 l 1,0,1
EndSplineSet
EndChar
StartChar: sterling
Encoding: 163 163 102
Width: 382
Flags: W
Fore
230 209 m 1,0,-1
 225 129 l 1,1,2
 222 115 222 115 212.5 99 c 128,-1,3
 203 83 203 83 191.5 70 c 128,-1,4
 180 57 180 57 168 48.5 c 128,-1,5
 156 40 156 40 147 40 c 1,6,-1
 362 40 l 1,7,-1
 354 0 l 1,8,-1
 45 0 l 1,9,-1
 53 40 l 1,10,11
 67 40 67 40 87.5 47.5 c 128,-1,12
 108 55 108 55 127 67.5 c 128,-1,13
 146 80 146 80 161 96 c 128,-1,14
 176 112 176 112 180 130 c 0,15,16
 180 131 180 131 180.5 133 c 128,-1,17
 181 135 181 135 181 142.5 c 128,-1,18
 181 150 181 150 182 165.5 c 128,-1,19
 183 181 183 181 185 209 c 1,20,-1
 87 209 l 1,21,-1
 96 254 l 1,22,-1
 186 254 l 1,23,24
 187 270 187 270 188 281 c 128,-1,25
 189 292 189 292 190.5 301 c 128,-1,26
 193.5 319 l 128,-1,27
 195 328 195 328 198 340 c 0,28,29
 204 368 204 368 220 393.5 c 128,-1,30
 236 419 236 419 258.5 438.5 c 128,-1,31
 281 458 281 458 308 469 c 128,-1,32
 335 480 335 480 363 480 c 0,33,34
 406 480 406 480 431 450 c 1,35,-1
 393 414 l 1,36,37
 386 423 386 423 376 429 c 128,-1,38
 366 435 366 435 353 435 c 0,39,40
 334 435 334 435 316 427.5 c 128,-1,41
 298 420 298 420 283 407 c 128,-1,42
 268 394 268 394 257.5 376.5 c 128,-1,43
 247 359 247 359 243 340 c 0,44,45
 234 302 234 302 231 254 c 1,46,-1
 361 254 l 1,47,-1
 352 209 l 1,48,-1
 230 209 l 1,0,-1
EndSplineSet
EndChar
StartChar: currency
Encoding: 164 164 103
Width: 486
Flags: W
Fore
120 116 m 1,0,1
 105 140 105 140 101 169 c 128,-1,2
 97 198 97 198 104 230 c 256,3,4
 111 262 111 262 127 292 c 128,-1,5
 143 322 143 322 169 346 c 1,6,-1
 138 387 l 1,7,-1
 174 418 l 1,8,-1
 206 376 l 1,9,10
 235 396 235 396 267 406.5 c 128,-1,11
 299 417 299 417 331 417 c 256,12,13
 363 417 363 417 390.5 406.5 c 128,-1,14
 418 396 418 396 438 376 c 1,15,-1
 490 418 l 1,16,-1
 513 387 l 1,17,-1
 463 346 l 1,18,19
 479 322 479 322 481.5 292 c 128,-1,20
 484 262 484 262 477 230 c 0,21,22
 471 199 471 199 455 169.5 c 128,-1,23
 439 140 439 140 414 116 c 1,24,-1
 446 74 l 1,25,-1
 410 44 l 1,26,-1
 377 87 l 1,27,28
 348 65 348 65 315.5 54.5 c 128,-1,29
 283 44 283 44 251 44 c 256,30,31
 219 44 219 44 191.5 54 c 128,-1,32
 164 64 164 64 145 87 c 1,33,-1
 95 44 l 1,34,-1
 71 74 l 1,35,-1
 120 116 l 1,0,1
321 374 m 0,36,37
 291 374 291 374 262.5 361.5 c 128,-1,38
 234 349 234 349 211 329 c 128,-1,39
 188 309 188 309 172 283 c 128,-1,40
 156 257 156 257 150 230 c 0,41,42
 144 201 144 201 149.5 175 c 128,-1,43
 155 149 155 149 170 129.5 c 128,-1,44
 185 110 185 110 208 98.5 c 128,-1,45
 231 87 231 87 260 87 c 256,46,47
 289 87 289 87 317 98.5 c 128,-1,48
 345 110 345 110 368.5 129.5 c 128,-1,49
 392 149 392 149 408.5 175 c 128,-1,50
 425 201 425 201 431 230 c 0,51,52
 437 258 437 258 431.5 284.5 c 128,-1,53
 426 311 426 311 411 330.5 c 128,-1,54
 396 350 396 350 373 362 c 128,-1,55
 350 374 350 374 321 374 c 0,36,37
EndSplineSet
EndChar
StartChar: yen
Encoding: 165 165 104
Width: 382
Flags: W
Fore
197 174 m 1,0,-1
 88 174 l 1,1,-1
 98 217 l 1,2,-1
 207 217 l 1,3,-1
 211 237 l 1,4,-1
 104 475 l 1,5,-1
 155 475 l 1,6,-1
 241 275 l 1,7,-1
 413 475 l 1,8,-1
 464 475 l 1,9,-1
 256 237 l 1,10,-1
 252 217 l 1,11,-1
 363 217 l 1,12,-1
 353 174 l 1,13,-1
 242 174 l 1,14,-1
 206 0 l 1,15,-1
 161 0 l 1,16,-1
 197 174 l 1,0,-1
EndSplineSet
EndChar
StartChar: brokenbar
Encoding: 166 166 105
Width: 158
Flags: W
Fore
122 295 m 1,0,-1
 182 575 l 1,1,-1
 227 575 l 1,2,-1
 167 295 l 1,3,-1
 122 295 l 1,0,-1
148 205 m 1,4,-1
 83 -100 l 1,5,-1
 38 -100 l 1,6,-1
 103 205 l 1,7,-1
 148 205 l 1,4,-1
EndSplineSet
EndChar
StartChar: section
Encoding: 167 167 106
Width: 399
Flags: W
Fore
146 395 m 0,0,1
 151 420 151 420 166.5 438.5 c 128,-1,2
 182 457 182 457 202.5 469.5 c 128,-1,3
 223 482 223 482 245.5 488 c 128,-1,4
 268 494 268 494 288 494 c 2,5,-1
 357 494 l 2,6,7
 404 494 404 494 429.5 464.5 c 128,-1,8
 455 435 455 435 445 388 c 1,9,-1
 400 388 l 1,10,11
 406 415 406 415 390.5 434.5 c 128,-1,12
 375 454 375 454 348 454 c 2,13,-1
 279 454 l 2,14,15
 270 454 270 454 256.5 450.5 c 128,-1,16
 243 447 243 447 229.5 439.5 c 128,-1,17
 216 432 216 432 205.5 421 c 128,-1,18
 195 410 195 410 192 396 c 0,19,20
 191 391 191 391 191 385.5 c 128,-1,21
 191 380 191 380 194 374.5 c 128,-1,22
 197 369 197 369 205 363.5 c 128,-1,23
 213 358 213 358 227 353 c 2,24,-1
 358 304 l 2,25,26
 381 295 381 295 394 284 c 128,-1,27
 407 273 407 273 413 261 c 128,-1,28
 419 249 419 249 419 236.5 c 128,-1,29
 419 224 419 224 417 212 c 0,30,31
 411 186 411 186 393 165 c 128,-1,32
 375 144 375 144 349 131 c 1,33,34
 365 115 365 115 367.5 97.5 c 128,-1,35
 370 80 370 80 366 64 c 0,36,37
 361 43 361 43 348 24.5 c 128,-1,38
 335 6 335 6 316 -7 c 128,-1,39
 297 -20 297 -20 273.5 -27.5 c 128,-1,40
 250 -35 250 -35 225 -35 c 2,41,-1
 131 -35 l 2,42,43
 108 -35 108 -35 89 -27 c 128,-1,44
 70 -19 70 -19 58 -5 c 128,-1,45
 46 9 46 9 42 28.5 c 128,-1,46
 38 48 38 48 43 71 c 1,47,-1
 88 71 l 1,48,49
 82 44 82 44 97.5 24.5 c 128,-1,50
 113 5 113 5 140 5 c 2,51,-1
 234 5 l 2,52,53
 243 5 243 5 256.5 9 c 128,-1,54
 270 13 270 13 283.5 20.5 c 128,-1,55
 297 28 297 28 307.5 38.5 c 128,-1,56
 318 49 318 49 321 63 c 0,57,58
 325 82 325 82 319 94.5 c 128,-1,59
 313 107 313 107 288 116 c 2,60,-1
 157 165 l 2,61,62
 134 173 134 173 120.5 182.5 c 128,-1,63
 107 192 107 192 101 202.5 c 128,-1,64
 95 213 95 213 94 224 c 128,-1,65
 93 235 93 235 96 247 c 0,66,67
 103 277 103 277 123.5 298 c 128,-1,68
 144 319 144 319 171 331 c 1,69,70
 151 345 151 345 147 361.5 c 128,-1,71
 143 378 143 378 146 395 c 0,0,1
371 211 m 0,72,73
 376 230 376 230 369.5 242.5 c 128,-1,74
 363 255 363 255 339 264 c 2,75,-1
 226 306 l 1,76,77
 216 306 216 306 202.5 302 c 128,-1,78
 189 298 189 298 176.5 290.5 c 128,-1,79
 164 283 164 283 154 272.5 c 128,-1,80
 144 262 144 262 141 248 c 0,81,82
 140 243 140 243 140 237.5 c 128,-1,83
 140 232 140 232 143 226.5 c 128,-1,84
 146 221 146 221 154 215.5 c 128,-1,85
 162 210 162 210 176 205 c 2,86,-1
 306 156 l 1,87,88
 326 162 326 162 346 176 c 128,-1,89
 366 190 366 190 371 211 c 0,72,73
EndSplineSet
EndChar
StartChar: dieresis
Encoding: 168 168 107
Width: 231
Flags: W
Fore
100 437 m 0,0,1
 104 452 104 452 116 462 c 128,-1,2
 128 472 128 472 143 472 c 256,3,4
 158 472 158 472 166 462 c 128,-1,5
 174 452 174 452 170 437 c 0,6,7
 167 422 167 422 155 412 c 128,-1,8
 143 402 143 402 128 402 c 256,9,10
 113 402 113 402 105 412 c 128,-1,11
 97 422 97 422 100 437 c 0,0,1
243 437 m 0,12,13
 247 452 247 452 259 462 c 128,-1,14
 271 472 271 472 286 472 c 256,15,16
 301 472 301 472 309 462 c 128,-1,17
 317 452 317 452 313 437 c 0,18,19
 310 422 310 422 298 412 c 128,-1,20
 286 402 286 402 271 402 c 256,21,22
 256 402 256 402 248 412 c 128,-1,23
 240 422 240 422 243 437 c 0,12,13
EndSplineSet
EndChar
StartChar: copyright
Encoding: 169 169 108
Width: 487
Flags: W
Fore
342 459 m 0,0,1
 387 459 387 459 422.5 440.5 c 128,-1,2
 458 422 458 422 481 391.5 c 128,-1,3
 504 361 504 361 512.5 320.5 c 128,-1,4
 521 280 521 280 512 236 c 0,5,6
 502 191 502 191 476.5 151 c 128,-1,7
 451 111 451 111 415 81 c 128,-1,8
 379 51 379 51 336 33 c 128,-1,9
 293 15 293 15 248 15 c 256,10,11
 203 15 203 15 167 33 c 128,-1,12
 131 51 131 51 108 81 c 128,-1,13
 85 111 85 111 76.5 151 c 128,-1,14
 68 191 68 191 78 236 c 0,15,16
 87 278 87 278 111.5 318 c 128,-1,17
 136 358 136 358 171.5 389.5 c 128,-1,18
 207 421 207 421 251 440 c 128,-1,19
 295 459 295 459 342 459 c 0,0,1
334 423 m 0,20,21
 294 423 294 423 257.5 407 c 128,-1,22
 221 391 221 391 191.5 364.5 c 128,-1,23
 162 338 162 338 141 304.5 c 128,-1,24
 120 271 120 271 113 236 c 0,25,26
 105 198 105 198 112 164.5 c 128,-1,27
 119 131 119 131 138 106 c 128,-1,28
 157 81 157 81 187 66 c 128,-1,29
 217 51 217 51 255 51 c 256,30,31
 293 51 293 51 329.5 66 c 128,-1,32
 366 81 366 81 396 106 c 128,-1,33
 426 131 426 131 447.5 164.5 c 128,-1,34
 469 198 469 198 477 236 c 0,35,36
 485 273 485 273 477.5 307 c 128,-1,37
 470 341 470 341 450.5 366.5 c 128,-1,38
 431 392 431 392 401 407.5 c 128,-1,39
 371 423 371 423 334 423 c 0,20,21
367 288 m 1,40,41
 371 305 371 305 360.5 317 c 128,-1,42
 350 329 350 329 333 329 c 2,43,-1
 306 329 l 2,44,45
 282 329 282 329 260 308.5 c 128,-1,46
 238 288 238 288 233 262 c 2,47,-1
 220 202 l 2,48,49
 216 184 216 184 226 167.5 c 128,-1,50
 236 151 236 151 253 151 c 2,51,-1
 280 151 l 2,52,53
 305 151 305 151 325.5 166 c 128,-1,54
 346 181 346 181 351 207 c 1,55,-1
 387 207 l 1,56,57
 379 166 379 166 346 142 c 128,-1,58
 313 118 313 118 273 118 c 2,59,-1
 245 118 l 2,60,61
 229 118 229 118 216 124.5 c 128,-1,62
 203 131 203 131 195 142.5 c 128,-1,63
 187 154 187 154 184 168.5 c 128,-1,64
 181 183 181 183 184 199 c 2,65,-1
 198 264 l 2,66,67
 202 284 202 284 213.5 302 c 128,-1,68
 225 320 225 320 240.5 333.5 c 128,-1,69
 256 347 256 347 275 355 c 128,-1,70
 294 363 294 363 314 363 c 2,71,-1
 342 363 l 2,72,73
 375 363 375 363 392.5 341.5 c 128,-1,74
 410 320 410 320 403 288 c 1,75,-1
 367 288 l 1,40,41
EndSplineSet
EndChar
StartChar: logicalnot
Encoding: 172 172 111
Width: 429
Flags: W
Fore
373 93 m 1,0,-1
 406 246 l 1,1,-1
 80 246 l 1,2,-1
 89 291 l 1,3,-1
 460 291 l 1,4,-1
 418 93 l 1,5,-1
 373 93 l 1,0,-1
EndSplineSet
EndChar
StartChar: registered
Encoding: 174 174 112
Width: 367
Flags: W
Fore
288 485 m 0,0,1
 320 485 320 485 345.5 472 c 128,-1,2
 371 459 371 459 387.5 437 c 128,-1,3
 404 415 404 415 410 386 c 128,-1,4
 416 357 416 357 409 326 c 0,5,6
 402 294 402 294 384 266 c 128,-1,7
 366 238 366 238 340 216 c 128,-1,8
 314 194 314 194 283 181.5 c 128,-1,9
 252 169 252 169 220 169 c 256,10,11
 188 169 188 169 163 181.5 c 128,-1,12
 138 194 138 194 121.5 216 c 128,-1,13
 105 238 105 238 99 266 c 128,-1,14
 93 294 93 294 100 326 c 0,15,16
 106 356 106 356 124 384.5 c 128,-1,17
 142 413 142 413 167 435.5 c 128,-1,18
 192 458 192 458 223.5 471.5 c 128,-1,19
 255 485 255 485 288 485 c 0,0,1
282 459 m 0,20,21
 254 459 254 459 228 447.5 c 128,-1,22
 202 436 202 436 181 417.5 c 128,-1,23
 160 399 160 399 145 375 c 128,-1,24
 130 351 130 351 125 326 c 0,25,26
 119 299 119 299 124.5 275.5 c 128,-1,27
 130 252 130 252 143.5 234 c 128,-1,28
 157 216 157 216 178 205.5 c 128,-1,29
 199 195 199 195 226 195 c 256,30,31
 253 195 253 195 279 205.5 c 128,-1,32
 305 216 305 216 326.5 234 c 128,-1,33
 348 252 348 252 363 275.5 c 128,-1,34
 378 299 378 299 384 326 c 256,35,36
 390 353 390 353 384.5 377 c 128,-1,37
 379 401 379 401 365.5 419 c 128,-1,38
 352 437 352 437 330.5 448 c 128,-1,39
 309 459 309 459 282 459 c 0,20,21
213 410 m 1,40,-1
 298 410 l 2,41,42
 315 410 315 410 324.5 396.5 c 128,-1,43
 334 383 334 383 330 366 c 256,44,45
 326 349 326 349 311.5 337 c 128,-1,46
 297 325 297 325 280 325 c 2,47,-1
 276 325 l 1,48,49
 279 325 279 325 284 312 c 2,50,-1
 312 251 l 1,51,-1
 284 251 l 1,52,-1
 257 313 l 2,53,54
 255 317 255 317 251 320.5 c 128,-1,55
 247 324 247 324 240 324 c 2,56,-1
 220 324 l 1,57,-1
 205 251 l 1,58,-1
 179 251 l 1,59,-1
 213 410 l 1,40,-1
234 389 m 1,60,-1
 225 345 l 1,61,-1
 279 345 l 2,62,63
 287 345 287 345 294 351.5 c 128,-1,64
 301 358 301 358 303 366 c 256,65,66
 305 374 305 374 300.5 381.5 c 128,-1,67
 296 389 296 389 288 389 c 2,68,-1
 234 389 l 1,60,-1
EndSplineSet
EndChar
StartChar: macron
Encoding: 175 175 113
Width: 237
Flags: W
Fore
117 422 m 1,0,-1
 126 462 l 1,1,-1
 306 462 l 1,2,-1
 297 422 l 1,3,-1
 117 422 l 1,0,-1
EndSplineSet
EndChar
StartChar: degree
Encoding: 176 176 114
Width: 216
Flags: W
Fore
106 409 m 0,0,1
 110 427 110 427 120.5 443 c 128,-1,2
 131 459 131 459 145.5 471 c 128,-1,3
 160 483 160 483 177.5 490 c 128,-1,4
 195 497 195 497 213 497 c 0,5,6
 250 497 250 497 270 471.5 c 128,-1,7
 290 446 290 446 282 409 c 0,8,9
 278 391 278 391 268 375 c 128,-1,10
 258 359 258 359 243.5 347 c 128,-1,11
 229 335 229 335 211.5 328 c 128,-1,12
 194 321 194 321 176 321 c 0,13,14
 139 321 139 321 118.5 346.5 c 128,-1,15
 98 372 98 372 106 409 c 0,0,1
136 409 m 256,16,17
 131 385 131 385 144.5 368 c 128,-1,18
 158 351 158 351 182 351 c 256,19,20
 206 351 206 351 226.5 368 c 128,-1,21
 247 385 247 385 252 409 c 256,22,23
 257 433 257 433 244 450 c 128,-1,24
 231 467 231 467 207 467 c 256,25,26
 183 467 183 467 162 450 c 128,-1,27
 141 433 141 433 136 409 c 256,16,17
EndSplineSet
EndChar
StartChar: plusminus
Encoding: 177 177 115
Width: 429
Flags: W
Fore
282 223 m 1,0,-1
 254 90 l 1,1,-1
 212 90 l 1,2,-1
 240 223 l 1,3,-1
 107 223 l 1,4,-1
 116 265 l 1,5,-1
 249 265 l 1,6,-1
 277 398 l 1,7,-1
 319 398 l 1,8,-1
 291 265 l 1,9,-1
 424 265 l 1,10,-1
 415 223 l 1,11,-1
 282 223 l 1,0,-1
368 0 m 1,12,-1
 60 0 l 1,13,-1
 68 42 l 1,14,-1
 376 42 l 1,15,-1
 368 0 l 1,12,-1
EndSplineSet
EndChar
StartChar: twosuperior
Encoding: 178 178 116
Width: 259
Flags: W
Fore
240 488 m 2,0,1
 283 488 283 488 300.5 465.5 c 128,-1,2
 318 443 318 443 310 404 c 0,3,4
 305 383 305 383 295 368.5 c 128,-1,5
 285 354 285 354 259 337 c 2,6,-1
 143 263 l 2,7,8
 130 254 130 254 122 241.5 c 128,-1,9
 114 229 114 229 111 219 c 1,10,-1
 275 219 l 1,11,-1
 268 187 l 1,12,-1
 67 187 l 1,13,-1
 74 218 l 2,14,15
 79 240 79 240 91.5 257 c 128,-1,16
 104 274 104 274 122 285 c 0,17,18
 153 306 153 306 188 328.5 c 128,-1,19
 223 351 223 351 253 371 c 0,20,21
 260 375 260 375 266.5 385 c 128,-1,22
 273 395 273 395 275 404 c 0,23,24
 280 429 280 429 270 443 c 128,-1,25
 260 457 260 457 235 457 c 2,26,-1
 225 457 l 2,27,28
 205 457 205 457 186 446 c 128,-1,29
 167 435 167 435 151 420 c 1,30,-1
 127 441 l 1,31,32
 149 463 149 463 176 475.5 c 128,-1,33
 203 488 203 488 231 488 c 2,34,-1
 240 488 l 2,0,1
EndSplineSet
EndChar
StartChar: threesuperior
Encoding: 179 179 117
Width: 245
Flags: W
Fore
165 372 m 1,0,-1
 225 372 l 2,1,2
 239 373 239 373 249.5 381.5 c 128,-1,3
 260 390 260 390 263 404 c 0,4,5
 274 456 274 456 222 456 c 2,6,-1
 211 456 l 2,7,8
 192 456 192 456 172.5 445.5 c 128,-1,9
 153 435 153 435 138 420 c 1,10,-1
 115 440 l 1,11,12
 136 462 136 462 163 475 c 128,-1,13
 190 488 190 488 218 488 c 2,14,-1
 228 488 l 2,15,16
 271 488 271 488 289 465 c 128,-1,17
 307 442 307 442 299 404 c 0,18,19
 293 373 293 373 271 356 c 1,20,21
 285 345 285 345 288.5 327 c 128,-1,22
 292 309 292 309 288 289 c 0,23,24
 278 242 278 242 240.5 213.5 c 128,-1,25
 203 185 203 185 156 185 c 0,26,27
 121 185 121 185 100.5 198.5 c 128,-1,28
 80 212 80 212 64 238 c 1,29,-1
 95 261 l 1,30,31
 108 242 108 242 124 229.5 c 128,-1,32
 140 217 140 217 164 217 c 0,33,34
 194 217 194 217 220.5 238 c 128,-1,35
 247 259 247 259 254 289 c 0,36,37
 259 309 259 309 247.5 324.5 c 128,-1,38
 236 340 236 340 215 340 c 2,39,-1
 158 340 l 1,40,-1
 165 372 l 1,0,-1
EndSplineSet
EndChar
StartChar: acute
Encoding: 180 180 118
Width: 119
Flags: W
Fore
173 485 m 1,0,-1
 220 485 l 1,1,-1
 123 375 l 1,2,-1
 76 375 l 1,3,-1
 173 485 l 1,0,-1
EndSplineSet
EndChar
StartChar: mu
Encoding: 181 181 119
Width: 361
Flags: W
Fore
9 -124 m 1,0,-1
 108 339 l 1,1,-1
 153 339 l 1,2,-1
 104 109 l 2,3,4
 98 82 98 82 111 58.5 c 128,-1,5
 124 35 124 35 151 35 c 2,6,-1
 191 35 l 2,7,8
 208 35 208 35 225 42 c 128,-1,9
 242 49 242 49 256.5 60.5 c 128,-1,10
 271 72 271 72 283 87 c 128,-1,11
 295 102 295 102 301 118 c 1,12,-1
 348 339 l 1,13,-1
 393 339 l 1,14,-1
 321 0 l 1,15,-1
 276 0 l 1,16,-1
 285 43 l 1,17,18
 267 23 267 23 238 9 c 128,-1,19
 209 -5 209 -5 182 -5 c 2,20,-1
 142 -5 l 2,21,22
 107 -5 107 -5 84 16 c 1,23,-1
 54 -124 l 1,24,-1
 9 -124 l 1,0,-1
EndSplineSet
EndChar
StartChar: paragraph
Encoding: 182 182 120
Width: 411
Flags: W
Fore
479 476 m 1,0,-1
 369 -39 l 1,1,-1
 324 -39 l 1,2,-1
 424 431 l 1,3,-1
 380 431 l 1,4,-1
 280 -39 l 1,5,-1
 235 -39 l 1,6,-1
 283 188 l 1,7,-1
 194 188 l 2,8,9
 168 188 168 188 148 200 c 128,-1,10
 128 212 128 212 115 231.5 c 128,-1,11
 102 251 102 251 98 276.5 c 128,-1,12
 94 302 94 302 100 330 c 256,13,14
 106 358 106 358 121 384 c 128,-1,15
 136 410 136 410 157 430 c 128,-1,16
 178 450 178 450 203.5 462.5 c 128,-1,17
 229 475 229 475 255 475 c 2,18,-1
 479 476 l 1,0,-1
EndSplineSet
EndChar
StartChar: periodcentered
Encoding: 183 183 121
Width: 230
Flags: W
Fore
113 230 m 256,0,1
 118 252 118 252 135 266 c 128,-1,2
 152 280 152 280 174 280 c 256,3,4
 196 280 196 280 207 266 c 128,-1,5
 218 252 218 252 213 230 c 256,6,7
 208 208 208 208 191.5 194 c 128,-1,8
 175 180 175 180 153 180 c 256,9,10
 131 180 131 180 119.5 194 c 128,-1,11
 108 208 108 208 113 230 c 256,0,1
EndSplineSet
EndChar
StartChar: cedilla
Encoding: 184 184 122
Width: 216
Flags: W
Fore
84 -93 m 2,0,1
 94 -93 94 -93 101.5 -91 c 128,-1,2
 109 -89 109 -89 111 -78 c 0,3,4
 112 -74 112 -74 108.5 -67.5 c 128,-1,5
 105 -61 105 -61 97 -56 c 0,6,7
 78 -42 78 -42 77 -30 c 128,-1,8
 76 -18 76 -18 78 -11 c 2,9,-1
 81 4 l 1,10,-1
 118 4 l 1,11,-1
 115 -11 l 1,12,13
 117 -23 117 -23 121.5 -28 c 128,-1,14
 126 -33 126 -33 133 -38 c 0,15,16
 142 -44 142 -44 147.5 -54 c 128,-1,17
 153 -64 153 -64 150 -79 c 0,18,19
 143 -108 143 -108 122.5 -118 c 128,-1,20
 102 -128 102 -128 76 -128 c 2,21,-1
 68 -128 l 2,22,23
 42 -126 42 -126 30 -112 c 128,-1,24
 18 -98 18 -98 24 -70 c 1,25,-1
 63 -70 l 1,26,27
 61 -80 61 -80 64.5 -86.5 c 128,-1,28
 68 -93 68 -93 76 -93 c 2,29,-1
 84 -93 l 2,0,1
EndSplineSet
EndChar
StartChar: onesuperior
Encoding: 185 185 123
Width: 216
Flags: W
Fore
150 187 m 1,0,-1
 195 399 l 1,1,2
 180 388 180 388 163.5 384 c 128,-1,3
 147 380 147 380 127 380 c 1,4,-1
 134 411 l 1,5,6
 160 411 160 411 182.5 430.5 c 128,-1,7
 205 450 205 450 211 475 c 1,8,-1
 246 475 l 1,9,-1
 185 187 l 1,10,-1
 150 187 l 1,0,-1
EndSplineSet
EndChar
StartChar: onequarter
Encoding: 188 188 126
Width: 547
Flags: W
Fore
462 0 m 1,0,-1
 474 58 l 1,1,-1
 509 58 l 1,2,-1
 516 90 l 1,3,-1
 481 90 l 1,4,-1
 523 288 l 1,5,-1
 489 288 l 1,6,-1
 309 88 l 1,7,8
 303 58 303 58 334 58 c 2,9,-1
 438 58 l 1,10,-1
 426 0 l 1,11,-1
 462 0 l 1,0,-1
445 90 m 1,12,-1
 354 90 l 1,13,-1
 473 225 l 1,14,-1
 445 90 l 1,12,-1
87 -17 m 1,15,-1
 452 490 l 1,16,-1
 496 490 l 1,17,-1
 133 -17 l 1,18,-1
 87 -17 l 1,15,-1
167 187 m 1,19,-1
 228 475 l 1,20,-1
 193 475 l 1,21,22
 187 450 187 450 164.5 430.5 c 128,-1,23
 142 411 142 411 116 411 c 1,24,-1
 109 380 l 1,25,26
 129 380 129 380 145 384 c 128,-1,27
 161 388 161 388 177 399 c 1,28,-1
 132 187 l 1,29,-1
 167 187 l 1,19,-1
EndSplineSet
Ligature: 0 0 'frac' one fraction four
Ligature: 0 0 'frac' one slash four
EndChar
StartChar: onehalf
Encoding: 189 189 127
Width: 547
Flags: W
Fore
482 288 m 2,0,1
 524 288 524 288 541 266.5 c 128,-1,2
 558 245 558 245 550 208 c 0,3,4
 545 188 545 188 534 173 c 128,-1,5
 523 158 523 158 500 144 c 2,6,-1
 389 73 l 2,7,8
 375 64 375 64 368 52 c 128,-1,9
 361 40 361 40 358 31 c 1,10,-1
 517 31 l 1,11,-1
 511 0 l 1,12,-1
 317 0 l 1,13,-1
 323 30 l 2,14,15
 328 50 328 50 340 66.5 c 128,-1,16
 352 83 352 83 368 94 c 2,17,-1
 495 176 l 2,18,19
 502 180 502 180 508 189.5 c 128,-1,20
 514 199 514 199 516 208 c 0,21,22
 521 231 521 231 510.5 244.5 c 128,-1,23
 500 258 500 258 476 258 c 2,24,-1
 466 258 l 2,25,26
 448 258 448 258 429 247.5 c 128,-1,27
 410 237 410 237 396 223 c 1,28,-1
 374 243 l 1,29,30
 395 264 395 264 421 276 c 128,-1,31
 447 288 447 288 473 288 c 2,32,-1
 482 288 l 2,0,1
87 -17 m 1,33,-1
 452 490 l 1,34,-1
 496 490 l 1,35,-1
 133 -17 l 1,36,-1
 87 -17 l 1,33,-1
167 187 m 1,37,-1
 228 475 l 1,38,-1
 193 475 l 1,39,40
 187 450 187 450 164.5 430.5 c 128,-1,41
 142 411 142 411 116 411 c 1,42,-1
 109 380 l 1,43,44
 129 380 129 380 145 384 c 128,-1,45
 161 388 161 388 177 399 c 1,46,-1
 132 187 l 1,47,-1
 167 187 l 1,37,-1
EndSplineSet
Ligature: 0 0 'frac' one fraction two
Ligature: 0 0 'frac' one slash two
EndChar
StartChar: threequarters
Encoding: 190 190 128
Width: 547
Flags: W
Fore
170 340 m 1,0,-1
 228 340 l 2,1,2
 249 340 249 340 260 324 c 128,-1,3
 271 308 271 308 267 288 c 0,4,5
 260 259 260 259 233 237.5 c 128,-1,6
 206 216 206 216 176 216 c 0,7,8
 151 216 151 216 135.5 228.5 c 128,-1,9
 120 241 120 241 108 260 c 1,10,-1
 77 237 l 1,11,12
 93 211 93 211 113.5 197.5 c 128,-1,13
 134 184 134 184 169 184 c 0,14,15
 216 184 216 184 253.5 212.5 c 128,-1,16
 291 241 291 241 301 288 c 0,17,18
 305 308 305 308 300.5 326.5 c 128,-1,19
 296 345 296 345 284 356 c 1,20,21
 305 374 305 374 311 404 c 0,22,23
 319 442 319 442 301.5 465 c 128,-1,24
 284 488 284 488 241 488 c 2,25,-1
 231 488 l 2,26,27
 203 488 203 488 176 475 c 128,-1,28
 149 462 149 462 127 440 c 1,29,-1
 151 420 l 1,30,31
 166 435 166 435 185 445.5 c 128,-1,32
 204 456 204 456 224 456 c 2,33,-1
 235 456 l 2,34,35
 287 456 287 456 276 404 c 0,36,37
 273 389 273 389 262 381 c 128,-1,38
 251 373 251 373 236 371 c 2,39,-1
 176 371 l 1,40,-1
 170 340 l 1,0,-1
462 0 m 1,41,-1
 474 58 l 1,42,-1
 509 58 l 1,43,-1
 516 90 l 1,44,-1
 481 90 l 1,45,-1
 523 288 l 1,46,-1
 489 288 l 1,47,-1
 309 88 l 1,48,49
 303 58 303 58 334 58 c 2,50,-1
 438 58 l 1,51,-1
 426 0 l 1,52,-1
 462 0 l 1,41,-1
445 90 m 1,53,-1
 354 90 l 1,54,-1
 473 225 l 1,55,-1
 445 90 l 1,53,-1
136 -17 m 1,56,-1
 501 490 l 1,57,-1
 545 490 l 1,58,-1
 182 -17 l 1,59,-1
 136 -17 l 1,56,-1
EndSplineSet
Ligature: 0 0 'frac' three fraction four
Ligature: 0 0 'frac' three slash four
EndChar
StartChar: Aring
Encoding: 197 197 134
Width: 530
Flags: W
Fore
328 464 m 1,0,1
 312 472 312 472 305 489 c 128,-1,2
 298 506 298 506 303 527 c 0,3,4
 309 556 309 556 334 577 c 128,-1,5
 359 598 359 598 389 598 c 0,6,7
 418 598 418 598 434 577 c 128,-1,8
 450 556 450 556 444 527 c 0,9,10
 439 504 439 504 421.5 486 c 128,-1,11
 404 468 404 468 382 461 c 1,12,13
 392 451 392 451 395 440 c 2,14,-1
 498 0 l 1,15,-1
 448 0 l 1,16,-1
 417 133 l 1,17,-1
 161 133 l 1,18,-1
 75 0 l 1,19,-1
 25 0 l 1,20,-1
 328 464 l 1,0,1
186 173 m 1,21,-1
 407 173 l 1,22,-1
 350 422 l 1,23,-1
 186 173 l 1,21,-1
337 527 m 0,24,25
 333 512 333 512 341.5 501.5 c 128,-1,26
 350 491 350 491 366 491 c 0,27,28
 380 491 380 491 393 501.5 c 128,-1,29
 406 512 406 512 410 527 c 0,30,31
 413 542 413 542 404 553 c 128,-1,32
 395 564 395 564 381 564 c 0,33,34
 365 564 365 564 352.5 553 c 128,-1,35
 340 542 340 542 337 527 c 0,24,25
EndSplineSet
EndChar
StartChar: AE
Encoding: 198 198 135
Width: 634
Flags: W
Fore
329 476 m 1,0,1
 335 476 335 476 339.5 475.5 c 128,-1,2
 344 475 344 475 348 475 c 2,3,-1
 623 475 l 1,4,-1
 615 435 l 1,5,-1
 376 435 l 1,6,-1
 378 268 l 1,7,-1
 621 268 l 1,8,-1
 613 228 l 1,9,-1
 379 228 l 1,10,-1
 381 40 l 1,11,-1
 622 40 l 1,12,-1
 614 0 l 1,13,-1
 337 0 l 1,14,-1
 335 133 l 1,15,-1
 153 133 l 1,16,-1
 67 0 l 1,17,-1
 17 0 l 1,18,-1
 329 476 l 1,0,1
178 173 m 1,19,-1
 334 173 l 1,20,-1
 331 420 l 1,21,-1
 178 173 l 1,19,-1
EndSplineSet
EndChar
StartChar: Ccedilla
Encoding: 199 199 136
Width: 461
Flags: W
Fore
457 333 m 1,0,1
 462 355 462 355 458 375.5 c 128,-1,2
 454 396 454 396 442.5 411.5 c 128,-1,3
 431 427 431 427 412.5 436 c 128,-1,4
 394 445 394 445 371 445 c 2,5,-1
 317 445 l 2,6,7
 287 445 287 445 258 431.5 c 128,-1,8
 229 418 229 418 205 396 c 128,-1,9
 181 374 181 374 163.5 345 c 128,-1,10
 146 316 146 316 139 286 c 2,11,-1
 111 155 l 2,12,13
 106 132 106 132 110 109.5 c 128,-1,14
 114 87 114 87 125 69.5 c 128,-1,15
 136 52 136 52 154 41 c 128,-1,16
 172 30 172 30 195 30 c 2,17,-1
 251 30 l 2,18,19
 280 30 280 30 308.5 40.5 c 128,-1,20
 337 51 337 51 360.5 70 c 128,-1,21
 384 89 384 89 401 114.5 c 128,-1,22
 418 140 418 140 424 169 c 1,23,-1
 469 169 l 1,24,25
 461 130 461 130 439.5 98 c 128,-1,26
 418 66 418 66 388.5 42.5 c 128,-1,27
 359 19 359 19 323 5 c 128,-1,28
 287 -9 287 -9 250 -10 c 1,29,-1
 250 -11 l 1,30,31
 252 -23 252 -23 256.5 -28 c 128,-1,32
 261 -33 261 -33 268 -38 c 0,33,34
 277 -44 277 -44 282.5 -54 c 128,-1,35
 288 -64 288 -64 285 -79 c 0,36,37
 278 -108 278 -108 257.5 -118 c 128,-1,38
 237 -128 237 -128 211 -128 c 2,39,-1
 203 -128 l 2,40,41
 177 -126 177 -126 165 -112 c 128,-1,42
 153 -98 153 -98 159 -70 c 1,43,-1
 198 -70 l 1,44,45
 196 -80 196 -80 199.5 -86.5 c 128,-1,46
 203 -93 203 -93 211 -93 c 2,47,-1
 219 -93 l 2,48,49
 229 -93 229 -93 236.5 -91 c 128,-1,50
 244 -89 244 -89 246 -78 c 0,51,52
 247 -74 247 -74 243.5 -67.5 c 128,-1,53
 240 -61 240 -61 232 -56 c 0,54,55
 213 -42 213 -42 212 -30 c 128,-1,56
 211 -18 211 -18 213 -11 c 1,57,-1
 213 -10 l 1,58,-1
 186 -10 l 2,59,60
 154 -10 154 -10 128.5 3.5 c 128,-1,61
 103 17 103 17 87 40 c 128,-1,62
 71 63 71 63 65 93 c 128,-1,63
 59 123 59 123 66 155 c 2,64,-1
 94 286 l 2,65,66
 103 326 103 326 125.5 362 c 128,-1,67
 148 398 148 398 179.5 425.5 c 128,-1,68
 211 453 211 453 249 469 c 128,-1,69
 287 485 287 485 326 485 c 2,70,-1
 380 485 l 2,71,72
 413 485 413 485 438.5 473.5 c 128,-1,73
 464 462 464 462 480.5 441.5 c 128,-1,74
 497 421 497 421 503 393.5 c 128,-1,75
 509 366 509 366 502 333 c 1,76,-1
 457 333 l 1,0,1
EndSplineSet
EndChar
StartChar: Eth
Encoding: 208 208 145
Width: 533
Flags: W
Fore
190 264 m 1,0,-1
 358 264 l 1,1,-1
 349 222 l 1,2,-1
 181 222 l 1,3,-1
 142 40 l 1,4,-1
 308 40 l 2,5,6
 337 40 337 40 365.5 52 c 128,-1,7
 394 64 394 64 418 84.5 c 128,-1,8
 442 105 442 105 459.5 132 c 128,-1,9
 477 159 477 159 484 190 c 2,10,-1
 511 319 l 2,11,12
 516 342 516 342 512 363 c 128,-1,13
 508 384 508 384 496.5 400 c 128,-1,14
 485 416 485 416 466.5 425.5 c 128,-1,15
 448 435 448 435 425 435 c 2,16,-1
 226 435 l 1,17,-1
 190 264 l 1,0,-1
136 222 m 1,18,-1
 91 222 l 1,19,-1
 100 264 l 1,20,-1
 145 264 l 1,21,-1
 189 475 l 1,22,-1
 433 475 l 2,23,24
 466 475 466 475 492 463 c 128,-1,25
 518 451 518 451 534.5 430 c 128,-1,26
 551 409 551 409 557 380.5 c 128,-1,27
 563 352 563 352 556 319 c 2,28,-1
 529 190 l 2,29,30
 520 150 520 150 498 115 c 128,-1,31
 476 80 476 80 444.5 54.5 c 128,-1,32
 413 29 413 29 376 14.5 c 128,-1,33
 339 0 339 0 300 0 c 2,34,-1
 131 0 l 2,35,36
 114 0 114 0 104 13.5 c 128,-1,37
 94 27 94 27 98 44 c 2,38,-1
 136 222 l 1,18,-1
EndSplineSet
EndChar
StartChar: multiply
Encoding: 215 215 152
Width: 429
Flags: W
Fore
291 221 m 1,0,1
 295 216 295 216 302.5 206.5 c 128,-1,2
 310 197 310 197 319.5 185 c 128,-1,3
 329 173 329 173 339 160 c 128,-1,4
 349 147 349 147 357 137 c 0,5,6
 361 132 361 132 365.5 125.5 c 128,-1,7
 370 119 370 119 375 114 c 1,8,-1
 340 85 l 1,9,-1
 255 192 l 1,10,-1
 127 85 l 1,11,-1
 107 108 l 1,12,-1
 104 114 l 1,13,-1
 232 221 l 1,14,15
 226 227 226 227 214.5 241.5 c 128,-1,16
 203 256 203 256 190.5 272.5 c 128,-1,17
 178 289 178 289 166.5 304 c 128,-1,18
 155 319 155 319 149 327 c 1,19,-1
 184 356 l 1,20,-1
 268 250 l 1,21,-1
 397 356 l 1,22,-1
 415 332 l 1,23,-1
 420 327 l 1,24,-1
 291 221 l 1,0,1
EndSplineSet
EndChar
StartChar: Oslash
Encoding: 216 216 153
Width: 476
Flags: W
Fore
36 -17 m 1,0,-1
 87 41 l 1,1,2
 71 64 71 64 66 94 c 128,-1,3
 61 124 61 124 68 156 c 2,4,-1
 95 285 l 2,5,6
 104 325 104 325 126.5 361.5 c 128,-1,7
 149 398 149 398 181 425.5 c 128,-1,8
 213 453 213 453 251 469 c 128,-1,9
 289 485 289 485 328 485 c 2,10,-1
 382 485 l 2,11,12
 427 485 427 485 461 457 c 1,13,-1
 490 490 l 1,14,-1
 534 490 l 1,15,-1
 483 433 l 1,16,17
 498 410 498 410 503.5 380.5 c 128,-1,18
 509 351 509 351 502 319 c 2,19,-1
 475 190 l 2,20,21
 466 150 466 150 443.5 113.5 c 128,-1,22
 421 77 421 77 389 49.5 c 128,-1,23
 357 22 357 22 319.5 6 c 128,-1,24
 282 -10 282 -10 243 -10 c 2,25,-1
 188 -10 l 2,26,27
 165 -10 165 -10 146 -3 c 128,-1,28
 127 4 127 4 111 16 c 1,29,-1
 81 -17 l 1,30,-1
 36 -17 l 1,0,-1
113 156 m 2,31,32
 104 114 104 114 121 79 c 1,33,-1
 429 422 l 1,34,35
 418 433 418 433 404 439 c 128,-1,36
 390 445 390 445 373 445 c 2,37,-1
 319 445 l 2,38,39
 289 445 289 445 260 431.5 c 128,-1,40
 231 418 231 418 206.5 395.5 c 128,-1,41
 182 373 182 373 164.5 344.5 c 128,-1,42
 147 316 147 316 140 285 c 2,43,-1
 113 156 l 2,31,32
457 319 m 2,44,45
 462 339 462 339 459.5 358.5 c 128,-1,46
 457 378 457 378 448 395 c 1,47,-1
 141 51 l 1,48,49
 165 30 165 30 197 30 c 2,50,-1
 252 30 l 2,51,52
 281 30 281 30 310 43.5 c 128,-1,53
 339 57 339 57 363.5 79.5 c 128,-1,54
 388 102 388 102 405.5 130.5 c 128,-1,55
 423 159 423 159 430 190 c 2,56,-1
 457 319 l 2,44,45
EndSplineSet
KernsSLIFO: 314 -60 0 0 59 -18 0 0 58 -20 0 0 57 -20 0 0 53 -20 0 0 15 -50 0 0 13 -50 0 0
EndChar
StartChar: Thorn
Encoding: 222 222 159
Width: 395
Flags: W
Fore
276 390 m 2,0,1
 309 390 309 390 336.5 381.5 c 128,-1,2
 364 373 364 373 382.5 356.5 c 128,-1,3
 401 340 401 340 409 315.5 c 128,-1,4
 417 291 417 291 410 258 c 0,5,6
 402 218 402 218 381 190 c 128,-1,7
 360 162 360 162 331 144.5 c 128,-1,8
 302 127 302 127 266 119 c 128,-1,9
 230 111 230 111 191 111 c 2,10,-1
 128 111 l 1,11,-1
 105 0 l 1,12,-1
 60 0 l 1,13,-1
 163 486 l 1,14,-1
 208 486 l 1,15,-1
 187 390 l 1,16,-1
 276 390 l 2,0,1
137 151 m 1,17,-1
 200 151 l 2,18,19
 229 151 229 151 256 156 c 128,-1,20
 283 161 283 161 305 173.5 c 128,-1,21
 327 186 327 186 343 206.5 c 128,-1,22
 359 227 359 227 365 258 c 0,23,24
 370 281 370 281 363.5 298.5 c 128,-1,25
 357 316 357 316 342.5 327.5 c 128,-1,26
 328 339 328 339 308.5 344.5 c 128,-1,27
 289 350 289 350 268 350 c 2,28,-1
 179 350 l 1,29,-1
 137 151 l 1,17,-1
EndSplineSet
EndChar
StartChar: uni00DF
Encoding: 223 223 160
Width: 402
Flags: W
Fore
17 -126 m 1,0,-1
 116 343 l 2,1,2
 122 371 122 371 138.5 396.5 c 128,-1,3
 155 422 155 422 177.5 441.5 c 128,-1,4
 200 461 200 461 226.5 472 c 128,-1,5
 253 483 253 483 281 483 c 2,6,-1
 321 483 l 2,7,8
 344 483 344 483 362.5 473.5 c 128,-1,9
 381 464 381 464 392.5 448 c 128,-1,10
 404 432 404 432 408.5 411 c 128,-1,11
 413 390 413 390 408 367 c 2,12,-1
 398 321 l 1,13,14
 369 311 369 311 342.5 296 c 128,-1,15
 316 281 316 281 311 261 c 0,16,17
 309 250 309 250 310.5 241.5 c 128,-1,18
 312 233 312 233 316 226 c 128,-1,19
 320 219 320 219 327 212 c 128,-1,20
 334 205 334 205 342 196 c 0,21,22
 351 184 351 184 360.5 175.5 c 128,-1,23
 370 167 370 167 377 158 c 128,-1,24
 384 149 384 149 386.5 136.5 c 128,-1,25
 389 124 389 124 385 104 c 0,26,27
 380 81 380 81 367.5 60.5 c 128,-1,28
 355 40 355 40 336 24.5 c 128,-1,29
 317 9 317 9 292.5 0 c 128,-1,30
 268 -9 268 -9 238 -9 c 0,31,32
 216 -9 216 -9 190 -1.5 c 128,-1,33
 164 6 164 6 147 17 c 1,34,-1
 176 58 l 1,35,36
 212 36 212 36 247 36 c 0,37,38
 265 36 265 36 281 42 c 128,-1,39
 297 48 297 48 309 57 c 128,-1,40
 321 66 321 66 328.5 77.5 c 128,-1,41
 336 89 336 89 339 101 c 0,42,43
 342 114 342 114 340.5 122 c 128,-1,44
 339 130 339 130 334 136.5 c 128,-1,45
 329 143 329 143 321.5 149 c 128,-1,46
 314 155 314 155 304 166 c 0,47,48
 279 192 279 192 270 213.5 c 128,-1,49
 261 235 261 235 266 261 c 0,50,51
 272 288 272 288 297.5 310 c 128,-1,52
 323 332 323 332 359 349 c 1,53,-1
 363 367 l 2,54,55
 366 380 366 380 363.5 394 c 128,-1,56
 361 408 361 408 354 418.5 c 128,-1,57
 347 429 347 429 336.5 436 c 128,-1,58
 326 443 326 443 313 443 c 2,59,-1
 273 443 l 2,60,61
 254 443 254 443 236 434.5 c 128,-1,62
 218 426 218 426 202.5 412 c 128,-1,63
 187 398 187 398 176 380 c 128,-1,64
 165 362 165 362 161 343 c 2,65,-1
 62 -126 l 1,66,-1
 17 -126 l 1,0,-1
EndSplineSet
EndChar
StartChar: ae
Encoding: 230 230 167
Width: 601
Flags: W
Fore
138 317 m 1,0,1
 180 345 180 345 224 345 c 2,2,-1
 285 345 l 2,3,4
 314 345 314 345 335.5 328.5 c 128,-1,5
 357 312 357 312 367 288 c 1,6,7
 391 313 391 313 422 328.5 c 128,-1,8
 453 344 453 344 486 344 c 2,9,-1
 526 344 l 2,10,11
 549 344 549 344 567.5 334.5 c 128,-1,12
 586 325 586 325 597.5 309 c 128,-1,13
 609 293 609 293 613 272 c 128,-1,14
 617 251 617 251 612 228 c 2,15,-1
 601 177 l 1,16,-1
 360 177 l 1,17,-1
 354 146 l 1,18,-1
 352 140 l 1,19,-1
 346 111 l 2,20,21
 343 98 343 98 345.5 84.5 c 128,-1,22
 348 71 348 71 354.5 60 c 128,-1,23
 361 49 361 49 371.5 42 c 128,-1,24
 382 35 382 35 396 35 c 2,25,-1
 436 35 l 2,26,27
 455 35 455 35 472.5 42 c 128,-1,28
 490 49 490 49 505 61 c 128,-1,29
 520 73 520 73 530.5 89.5 c 128,-1,30
 541 106 541 106 545 125 c 1,31,-1
 590 125 l 1,32,33
 584 97 584 97 568 73 c 128,-1,34
 552 49 552 49 530 32 c 128,-1,35
 508 15 508 15 481 5 c 128,-1,36
 454 -5 454 -5 427 -5 c 2,37,-1
 387 -5 l 2,38,39
 355 -5 355 -5 333 12.5 c 128,-1,40
 311 30 311 30 303 57 c 1,41,42
 277 30 277 30 243.5 13 c 128,-1,43
 210 -4 210 -4 177 -4 c 2,44,-1
 137 -4 l 2,45,46
 95 -4 95 -4 72 24 c 128,-1,47
 49 52 49 52 57 94 c 0,48,49
 63 120 63 120 79.5 142 c 128,-1,50
 96 164 96 164 118.5 179.5 c 128,-1,51
 141 195 141 195 167 203.5 c 128,-1,52
 193 212 193 212 217 212 c 2,53,-1
 323 212 l 1,54,-1
 327 234 l 2,55,56
 328 246 328 246 325.5 258.5 c 128,-1,57
 323 271 323 271 316 281.5 c 128,-1,58
 309 292 309 292 299 298.5 c 128,-1,59
 289 305 289 305 276 305 c 2,60,-1
 215 305 l 2,61,62
 199 305 199 305 184 299 c 128,-1,63
 169 293 169 293 155 282 c 1,64,-1
 138 317 l 1,0,1
209 177 m 2,65,66
 194 177 194 177 176.5 170 c 128,-1,67
 159 163 159 163 144 152 c 128,-1,68
 129 141 129 141 118 126.5 c 128,-1,69
 107 112 107 112 103 96 c 0,70,71
 98 73 98 73 109.5 54.5 c 128,-1,72
 121 36 121 36 145 36 c 2,73,-1
 185 36 l 2,74,75
 203 36 203 36 222.5 44 c 128,-1,76
 242 52 242 52 258.5 65.5 c 128,-1,77
 275 79 275 79 288 96.5 c 128,-1,78
 301 114 301 114 306 132 c 2,79,-1
 315 177 l 1,80,-1
 209 177 l 2,65,66
477 304 m 2,81,82
 458 304 458 304 440 296.5 c 128,-1,83
 422 289 422 289 407.5 276.5 c 128,-1,84
 393 264 393 264 382.5 247.5 c 128,-1,85
 372 231 372 231 368 212 c 1,86,-1
 564 212 l 1,87,-1
 567 228 l 2,88,89
 570 241 570 241 567.5 254.5 c 128,-1,90
 565 268 565 268 558.5 279 c 128,-1,91
 552 290 552 290 541.5 297 c 128,-1,92
 531 304 531 304 517 304 c 2,93,-1
 477 304 l 2,81,82
EndSplineSet
EndChar
StartChar: ccedilla
Encoding: 231 231 168
Width: 349
Flags: W
Fore
161 -93 m 2,0,1
 171 -93 171 -93 178.5 -91 c 128,-1,2
 186 -89 186 -89 188 -78 c 0,3,4
 189 -74 189 -74 185.5 -67.5 c 128,-1,5
 182 -61 182 -61 174 -56 c 0,6,7
 155 -42 155 -42 154 -30 c 128,-1,8
 153 -18 153 -18 155 -11 c 2,9,-1
 156 -5 l 1,10,-1
 141 -5 l 2,11,12
 118 -5 118 -5 99.5 4.5 c 128,-1,13
 81 14 81 14 69.5 30 c 128,-1,14
 58 46 58 46 54 67 c 128,-1,15
 50 88 50 88 55 111 c 2,16,-1
 75 204 l 2,17,18
 81 232 81 232 97 257.5 c 128,-1,19
 113 283 113 283 135.5 302.5 c 128,-1,20
 158 322 158 322 185 333 c 128,-1,21
 212 344 212 344 240 344 c 2,22,-1
 279 344 l 2,23,24
 326 344 326 344 351.5 314.5 c 128,-1,25
 377 285 377 285 367 238 c 1,26,-1
 322 238 l 1,27,28
 328 265 328 265 312.5 284.5 c 128,-1,29
 297 304 297 304 270 304 c 2,30,-1
 231 304 l 2,31,32
 212 304 212 304 194 295.5 c 128,-1,33
 176 287 176 287 161 273 c 128,-1,34
 146 259 146 259 135 241 c 128,-1,35
 124 223 124 223 120 204 c 2,36,-1
 100 111 l 2,37,38
 97 97 97 97 99.5 83.5 c 128,-1,39
 102 70 102 70 108.5 59.5 c 128,-1,40
 115 49 115 49 125.5 42 c 128,-1,41
 136 35 136 35 150 35 c 2,42,-1
 190 35 l 2,43,44
 209 35 209 35 226.5 41.5 c 128,-1,45
 244 48 244 48 258.5 59 c 128,-1,46
 273 70 273 70 283.5 86 c 128,-1,47
 294 102 294 102 298 121 c 1,48,-1
 343 121 l 1,49,50
 337 94 337 94 323 72 c 128,-1,51
 309 50 309 50 288.5 33.5 c 128,-1,52
 268 17 268 17 243.5 7.5 c 128,-1,53
 219 -2 219 -2 193 -4 c 1,54,-1
 192 -11 l 1,55,56
 194 -23 194 -23 198.5 -28 c 128,-1,57
 203 -33 203 -33 210 -38 c 0,58,59
 219 -44 219 -44 224.5 -54 c 128,-1,60
 230 -64 230 -64 227 -79 c 0,61,62
 220 -108 220 -108 199.5 -118 c 128,-1,63
 179 -128 179 -128 153 -128 c 2,64,-1
 145 -128 l 2,65,66
 119 -126 119 -126 107 -112 c 128,-1,67
 95 -98 95 -98 101 -70 c 1,68,-1
 140 -70 l 1,69,70
 138 -80 138 -80 141.5 -86.5 c 128,-1,71
 145 -93 145 -93 153 -93 c 2,72,-1
 161 -93 l 2,0,1
EndSplineSet
EndChar
StartChar: eth
Encoding: 240 240 177
Width: 416
Flags: W
Fore
420 183 m 0,0,1
 409 133 409 133 386 96.5 c 128,-1,2
 363 60 363 60 332.5 36.5 c 128,-1,3
 302 13 302 13 267.5 2 c 128,-1,4
 233 -9 233 -9 200 -9 c 0,5,6
 162 -9 162 -9 133 4.5 c 128,-1,7
 104 18 104 18 86.5 42 c 128,-1,8
 69 66 69 66 63 98.5 c 128,-1,9
 57 131 57 131 65 169 c 0,10,11
 74 212 74 212 96.5 246.5 c 128,-1,12
 119 281 119 281 149 305.5 c 128,-1,13
 179 330 179 330 213 343 c 128,-1,14
 247 356 247 356 280 356 c 0,15,16
 306 356 306 356 330.5 349 c 128,-1,17
 355 342 355 342 376 323 c 1,18,19
 364 352 364 352 345 377.5 c 128,-1,20
 326 403 326 403 301 426 c 1,21,22
 269 412 269 412 238 398.5 c 128,-1,23
 207 385 207 385 176 373 c 1,24,-1
 169 406 l 1,25,-1
 271 449 l 1,26,27
 256 460 256 460 236 470 c 128,-1,28
 216 480 216 480 196 488 c 1,29,-1
 222 525 l 1,30,31
 248 513 248 513 271.5 500 c 128,-1,32
 295 487 295 487 315 469 c 1,33,34
 341 480 341 480 368 491.5 c 128,-1,35
 395 503 395 503 420 515 c 1,36,-1
 429 480 l 1,37,-1
 343 445 l 1,38,39
 345 444 345 444 345 443 c 128,-1,40
 345 442 345 442 346 441 c 0,41,42
 395 391 395 391 416.5 328 c 128,-1,43
 438 265 438 265 420 183 c 0,0,1
375 178 m 0,44,45
 382 214 382 214 379.5 239 c 128,-1,46
 377 264 377 264 364.5 280.5 c 128,-1,47
 352 297 352 297 329 305.5 c 128,-1,48
 306 314 306 314 272 319 c 1,49,50
 237 319 237 319 208.5 305.5 c 128,-1,51
 180 292 180 292 159 270.5 c 128,-1,52
 138 249 138 249 124.5 222.5 c 128,-1,53
 111 196 111 196 106 170 c 0,54,55
 98 135 98 135 104 108.5 c 128,-1,56
 110 82 110 82 124.5 64 c 128,-1,57
 139 46 139 46 160.5 37 c 128,-1,58
 182 28 182 28 206 28 c 0,59,60
 264 28 264 28 311.5 65.5 c 128,-1,61
 359 103 359 103 375 178 c 0,44,45
EndSplineSet
EndChar
StartChar: divide
Encoding: 247 247 184
Width: 429
Flags: W
Fore
79 199 m 1,0,-1
 88 241 l 1,1,-1
 396 241 l 1,2,-1
 387 199 l 1,3,-1
 79 199 l 1,0,-1
228 317 m 256,4,5
 231 332 231 332 243 342 c 128,-1,6
 255 352 255 352 270 352 c 256,7,8
 285 352 285 352 293 342 c 128,-1,9
 301 332 301 332 298 317 c 256,10,11
 295 302 295 302 282.5 292 c 128,-1,12
 270 282 270 282 255 282 c 256,13,14
 240 282 240 282 232.5 292 c 128,-1,15
 225 302 225 302 228 317 c 256,4,5
185 117 m 0,16,17
 189 132 189 132 201 142 c 128,-1,18
 213 152 213 152 228 152 c 256,19,20
 243 152 243 152 251 142 c 128,-1,21
 259 132 259 132 255 117 c 0,22,23
 252 102 252 102 240 92 c 128,-1,24
 228 82 228 82 213 82 c 256,25,26
 198 82 198 82 190 92 c 128,-1,27
 182 102 182 102 185 117 c 0,16,17
EndSplineSet
EndChar
StartChar: oslash
Encoding: 248 248 185
Width: 359
Flags: W
Fore
22 -17 m 1,0,-1
 70 36 l 1,1,2
 50 67 50 67 59 111 c 2,3,-1
 79 204 l 2,4,5
 85 232 85 232 101 257.5 c 128,-1,6
 117 283 117 283 139.5 302.5 c 128,-1,7
 162 322 162 322 189 333 c 128,-1,8
 216 344 216 344 244 344 c 2,9,-1
 284 344 l 2,10,11
 313 344 313 344 335 328 c 1,12,-1
 361 356 l 1,13,-1
 406 356 l 1,14,-1
 358 303 l 1,15,16
 379 271 379 271 370 228 c 2,17,-1
 350 135 l 2,18,19
 344 106 344 106 328 81 c 128,-1,20
 312 56 312 56 289.5 36.5 c 128,-1,21
 267 17 267 17 240 6 c 128,-1,22
 213 -5 213 -5 185 -5 c 2,23,-1
 145 -5 l 2,24,25
 115 -5 115 -5 94 10 c 1,26,-1
 69 -17 l 1,27,-1
 22 -17 l 1,0,-1
325 228 m 2,28,29
 327 237 327 237 326 246.5 c 128,-1,30
 325 256 325 256 323 264 c 1,31,-1
 125 45 l 1,32,33
 136 35 136 35 154 35 c 2,34,-1
 194 35 l 2,35,36
 213 35 213 35 231 43.5 c 128,-1,37
 249 52 249 52 264 66 c 128,-1,38
 279 80 279 80 290 98 c 128,-1,39
 301 116 301 116 305 135 c 2,40,-1
 325 228 l 2,28,29
104 111 m 2,41,42
 101 91 101 91 105 75 c 1,43,-1
 304 293 l 1,44,45
 291 304 291 304 275 304 c 2,46,-1
 235 304 l 2,47,48
 216 304 216 304 198 295.5 c 128,-1,49
 180 287 180 287 165 273 c 128,-1,50
 150 259 150 259 139 241 c 128,-1,51
 128 223 128 223 124 204 c 2,52,-1
 104 111 l 2,41,42
EndSplineSet
KernsSLIFO: 314 -40 0 0 90 -12 0 0 89 -18 0 0 87 -12 0 0 15 -18 0 0 13 -29 0 0
EndChar
StartChar: thorn
Encoding: 254 254 191
Width: 441
Flags: W
Fore
399 135 m 2,0,1
 393 106 393 106 377 81 c 128,-1,2
 361 56 361 56 338.5 36.5 c 128,-1,3
 316 17 316 17 289 6 c 128,-1,4
 262 -5 262 -5 234 -5 c 2,5,-1
 194 -5 l 2,6,7
 156 -5 156 -5 133 18 c 1,8,-1
 97 -151 l 1,9,-1
 52 -151 l 1,10,-1
 185 475 l 1,11,-1
 230 475 l 1,12,-1
 195 308 l 1,13,14
 217 325 217 325 242 334.5 c 128,-1,15
 267 344 267 344 293 344 c 2,16,-1
 333 344 l 2,17,18
 356 344 356 344 374.5 334.5 c 128,-1,19
 393 325 393 325 404.5 309 c 128,-1,20
 416 293 416 293 420 272 c 128,-1,21
 424 251 424 251 419 228 c 2,22,-1
 399 135 l 2,0,1
374 228 m 2,23,24
 377 241 377 241 374.5 255 c 128,-1,25
 372 269 372 269 365.5 279.5 c 128,-1,26
 359 290 359 290 348 297 c 128,-1,27
 337 304 337 304 324 304 c 2,28,-1
 284 304 l 2,29,30
 266 304 266 304 247.5 296 c 128,-1,31
 229 288 229 288 214 274.5 c 128,-1,32
 199 261 199 261 188.5 243.5 c 128,-1,33
 178 226 178 226 174 208 c 2,34,-1
 153 111 l 2,35,36
 150 97 150 97 152.5 83.5 c 128,-1,37
 155 70 155 70 161.5 59.5 c 128,-1,38
 168 49 168 49 178.5 42 c 128,-1,39
 189 35 189 35 203 35 c 2,40,-1
 243 35 l 2,41,42
 262 35 262 35 280 43.5 c 128,-1,43
 298 52 298 52 313 66 c 128,-1,44
 328 80 328 80 339 98 c 128,-1,45
 350 116 350 116 354 135 c 2,46,-1
 374 228 l 2,23,24
EndSplineSet
EndChar
StartChar: Lslash
Encoding: 321 321 193
Width: 439
Flags: W
Fore
52 199 m 1,0,-1
 115 239 l 1,1,-1
 165 475 l 1,2,-1
 210 475 l 1,3,-1
 168 273 l 1,4,-1
 252 327 l 1,5,-1
 241 274 l 1,6,-1
 156 220 l 1,7,-1
 118 40 l 1,8,-1
 413 40 l 1,9,-1
 405 0 l 1,10,-1
 65 0 l 1,11,-1
 104 186 l 1,12,-1
 41 146 l 1,13,-1
 52 199 l 1,0,-1
EndSplineSet
EndChar
StartChar: lslash
Encoding: 322 322 194
Width: 193
Flags: W
Fore
64 201 m 1,0,-1
 127 246 l 1,1,-1
 175 475 l 1,2,-1
 220 475 l 1,3,-1
 180 284 l 1,4,-1
 239 326 l 1,5,-1
 227 271 l 1,6,-1
 168 228 l 1,7,-1
 120 0 l 1,8,-1
 75 0 l 1,9,-1
 115 189 l 1,10,-1
 55 146 l 1,11,-1
 64 201 l 1,0,-1
EndSplineSet
EndChar
StartChar: OE
Encoding: 338 338 195
Width: 751
Flags: W
Fore
192 0 m 2,0,1
 159 0 159 0 133 12 c 128,-1,2
 107 24 107 24 90.5 45 c 128,-1,3
 74 66 74 66 68 94.5 c 128,-1,4
 62 123 62 123 69 156 c 2,5,-1
 96 285 l 2,6,7
 105 325 105 325 127 360 c 128,-1,8
 149 395 149 395 180.5 420.5 c 128,-1,9
 212 446 212 446 249.5 460.5 c 128,-1,10
 287 475 287 475 326 475 c 2,11,-1
 810 475 l 1,12,-1
 801 430 l 1,13,-1
 483 430 l 1,14,-1
 449 270 l 1,15,-1
 718 270 l 1,16,-1
 708 225 l 1,17,-1
 439 225 l 1,18,-1
 401 45 l 1,19,-1
 719 45 l 1,20,-1
 710 0 l 1,21,-1
 192 0 l 2,0,1
256 45 m 2,22,23
 285 45 285 45 313 55.5 c 128,-1,24
 341 66 341 66 365 85 c 1,25,-1
 433 408 l 1,26,27
 408 430 408 430 371 430 c 2,28,-1
 317 430 l 2,29,30
 287 430 287 430 258.5 419 c 128,-1,31
 230 408 230 408 206 388.5 c 128,-1,32
 182 369 182 369 165 342.5 c 128,-1,33
 148 316 148 316 141 285 c 2,34,-1
 114 156 l 2,35,36
 109 133 109 133 113 112.5 c 128,-1,37
 117 92 117 92 129 77 c 128,-1,38
 141 62 141 62 159.5 53.5 c 128,-1,39
 178 45 178 45 201 45 c 2,40,-1
 256 45 l 2,22,23
EndSplineSet
EndChar
StartChar: oe
Encoding: 339 339 196
Width: 610
Flags: W
Fore
344 111 m 2,0,1
 341 97 341 97 343.5 83.5 c 128,-1,2
 346 70 346 70 352.5 59.5 c 128,-1,3
 359 49 359 49 369.5 42 c 128,-1,4
 380 35 380 35 394 35 c 2,5,-1
 434 35 l 2,6,7
 453 35 453 35 470.5 42 c 128,-1,8
 488 49 488 49 503 61 c 128,-1,9
 518 73 518 73 528.5 89.5 c 128,-1,10
 539 106 539 106 543 125 c 1,11,-1
 588 125 l 1,12,13
 582 96 582 96 566 72.5 c 128,-1,14
 550 49 550 49 528 31.5 c 128,-1,15
 506 14 506 14 479.5 4.5 c 128,-1,16
 453 -5 453 -5 425 -5 c 2,17,-1
 385 -5 l 2,18,19
 355 -5 355 -5 333.5 10.5 c 128,-1,20
 312 26 312 26 303 50 c 1,21,22
 279 25 279 25 247.5 10 c 128,-1,23
 216 -5 216 -5 184 -5 c 2,24,-1
 144 -5 l 2,25,26
 121 -5 121 -5 102.5 4.5 c 128,-1,27
 84 14 84 14 72.5 30 c 128,-1,28
 61 46 61 46 57 67 c 128,-1,29
 53 88 53 88 58 111 c 2,30,-1
 78 204 l 2,31,32
 84 232 84 232 100 257.5 c 128,-1,33
 116 283 116 283 138.5 302.5 c 128,-1,34
 161 322 161 322 188 333 c 128,-1,35
 215 344 215 344 243 344 c 2,36,-1
 283 344 l 2,37,38
 313 344 313 344 334 328.5 c 128,-1,39
 355 313 355 313 365 288 c 1,40,41
 389 314 389 314 420 329 c 128,-1,42
 451 344 451 344 484 344 c 2,43,-1
 524 344 l 2,44,45
 547 344 547 344 565.5 334.5 c 128,-1,46
 584 325 584 325 595.5 309 c 128,-1,47
 607 293 607 293 611 272 c 128,-1,48
 615 251 615 251 610 228 c 2,49,-1
 599 177 l 1,50,-1
 358 177 l 1,51,-1
 344 111 l 2,0,1
324 228 m 2,52,53
 327 241 327 241 324.5 255 c 128,-1,54
 322 269 322 269 315.5 279.5 c 128,-1,55
 309 290 309 290 298 297 c 128,-1,56
 287 304 287 304 274 304 c 2,57,-1
 234 304 l 2,58,59
 215 304 215 304 197 295.5 c 128,-1,60
 179 287 179 287 164 273 c 128,-1,61
 149 259 149 259 138 241 c 128,-1,62
 127 223 127 223 123 204 c 2,63,-1
 103 111 l 2,64,65
 100 97 100 97 102.5 83.5 c 128,-1,66
 105 70 105 70 111.5 59.5 c 128,-1,67
 118 49 118 49 128.5 42 c 128,-1,68
 139 35 139 35 153 35 c 2,69,-1
 193 35 l 2,70,71
 212 35 212 35 230 43.5 c 128,-1,72
 248 52 248 52 263 66 c 128,-1,73
 278 80 278 80 289 98 c 128,-1,74
 300 116 300 116 304 135 c 2,75,-1
 324 228 l 2,52,53
475 304 m 2,76,77
 456 304 456 304 438 297 c 128,-1,78
 420 290 420 290 405.5 277.5 c 128,-1,79
 391 265 391 265 380.5 248 c 128,-1,80
 370 231 370 231 366 212 c 1,81,-1
 562 212 l 1,82,-1
 565 228 l 2,83,84
 568 241 568 241 565.5 255 c 128,-1,85
 563 269 563 269 556.5 279.5 c 128,-1,86
 550 290 550 290 539 297 c 128,-1,87
 528 304 528 304 515 304 c 2,88,-1
 475 304 l 2,76,77
EndSplineSet
EndChar
StartChar: florin
Encoding: 402 402 202
Width: 486
Flags: W
Fore
260 43 m 1,0,1
 245 -3 245 -3 217.5 -38.5 c 128,-1,2
 190 -74 190 -74 155 -98.5 c 128,-1,3
 120 -123 120 -123 79 -135.5 c 128,-1,4
 38 -148 38 -148 -2 -148 c 1,5,-1
 11 -103 l 1,6,7
 45 -103 45 -103 77.5 -93.5 c 128,-1,8
 110 -84 110 -84 137 -65 c 128,-1,9
 164 -46 164 -46 184 -19 c 128,-1,10
 204 8 204 8 215 43 c 2,11,-1
 294 309 l 1,12,-1
 219 309 l 1,13,-1
 228 339 l 1,14,-1
 303 339 l 1,15,16
 317 385 317 385 344.5 420.5 c 128,-1,17
 372 456 372 456 407.5 480.5 c 128,-1,18
 443 505 443 505 483.5 517.5 c 128,-1,19
 524 530 524 530 565 530 c 1,20,-1
 552 485 l 1,21,22
 518 485 518 485 486 475.5 c 128,-1,23
 454 466 454 466 427 447 c 128,-1,24
 400 428 400 428 379.5 401 c 128,-1,25
 359 374 359 374 348 339 c 1,26,-1
 420 339 l 1,27,-1
 411 309 l 1,28,-1
 339 309 l 1,29,-1
 260 43 l 1,30,-1
 260 43 l 1,0,1
EndSplineSet
EndChar
StartChar: circumflex
Encoding: 710 710 203
Width: 321
Flags: W
Fore
276 611 m 1,0,-1
 315 611 l 1,1,-1
 373 494 l 1,2,-1
 330 494 l 1,3,-1
 289 581 l 1,4,-1
 213 494 l 1,5,-1
 170 494 l 1,6,-1
 276 611 l 1,0,-1
EndSplineSet
EndChar
StartChar: caron
Encoding: 711 711 204
Width: 321
Flags: W
Fore
194 611 m 1,0,-1
 237 611 l 1,1,-1
 277 524 l 1,2,-1
 354 611 l 1,3,-1
 397 611 l 1,4,-1
 291 494 l 1,5,-1
 252 494 l 1,6,-1
 194 611 l 1,0,-1
EndSplineSet
EndChar
StartChar: breve
Encoding: 728 728 205
Width: 300
Flags: W
Fore
369 528 m 1,0,1
 364 506 364 506 351.5 486.5 c 128,-1,2
 339 467 339 467 321.5 452 c 128,-1,3
 304 437 304 437 282.5 428.5 c 128,-1,4
 261 420 261 420 239 420 c 256,5,6
 217 420 217 420 199 428.5 c 128,-1,7
 181 437 181 437 170 452 c 128,-1,8
 159 467 159 467 154.5 486.5 c 128,-1,9
 150 506 150 506 155 528 c 1,10,-1
 190 528 l 1,11,12
 183 497 183 497 198.5 474.5 c 128,-1,13
 214 452 214 452 246 452 c 256,14,15
 278 452 278 452 302.5 474.5 c 128,-1,16
 327 497 327 497 334 528 c 1,17,-1
 369 528 l 1,0,1
EndSplineSet
EndChar
StartChar: dotaccent
Encoding: 729 729 206
Width: 158
Flags: W
Fore
142 466 m 0,0,1
 145 483 145 483 158.5 494 c 128,-1,2
 172 505 172 505 189 505 c 256,3,4
 206 505 206 505 214.5 494 c 128,-1,5
 223 483 223 483 220 466 c 0,6,7
 216 449 216 449 202.5 438 c 128,-1,8
 189 427 189 427 172 427 c 256,9,10
 155 427 155 427 146.5 438 c 128,-1,11
 138 449 138 449 142 466 c 0,0,1
EndSplineSet
EndChar
StartChar: ring
Encoding: 730 730 207
Width: 278
Flags: W
Fore
164 469 m 0,0,1
 171 501 171 501 196.5 522 c 128,-1,2
 222 543 222 543 254 543 c 0,3,4
 285 543 285 543 301 522 c 128,-1,5
 317 501 317 501 310 469 c 0,6,7
 303 438 303 438 278.5 417.5 c 128,-1,8
 254 397 254 397 223 397 c 0,9,10
 191 397 191 397 174 417.5 c 128,-1,11
 157 438 157 438 164 469 c 0,0,1
196 469 m 0,12,13
 193 453 193 453 203 441 c 128,-1,14
 213 429 213 429 230 429 c 0,15,16
 246 429 246 429 260.5 441 c 128,-1,17
 275 453 275 453 278 469 c 0,18,19
 282 486 282 486 272.5 498.5 c 128,-1,20
 263 511 263 511 247 511 c 0,21,22
 230 511 230 511 215 498.5 c 128,-1,23
 200 486 200 486 196 469 c 0,12,13
EndSplineSet
EndChar
StartChar: ogonek
Encoding: 731 731 208
Width: 194
Flags: W
Fore
80 -93 m 2,0,1
 88 -93 88 -93 94.5 -86.5 c 128,-1,2
 101 -80 101 -80 103 -70 c 1,3,-1
 142 -70 l 1,4,5
 136 -98 136 -98 117.5 -112 c 128,-1,6
 99 -126 99 -126 72 -128 c 2,7,-1
 64 -128 l 2,8,9
 38 -128 38 -128 21.5 -118 c 128,-1,10
 5 -108 5 -108 12 -79 c 0,11,12
 15 -64 15 -64 24.5 -54 c 128,-1,13
 34 -44 34 -44 45 -38 c 0,14,15
 55 -33 55 -33 62 -28 c 128,-1,16
 69 -23 69 -23 75 -11 c 1,17,-1
 78 4 l 1,18,-1
 115 4 l 1,19,-1
 112 -11 l 2,20,21
 110 -18 110 -18 104 -30 c 128,-1,22
 98 -42 98 -42 75 -56 c 0,23,24
 64 -61 64 -61 58 -67.5 c 128,-1,25
 52 -74 52 -74 51 -78 c 0,26,27
 49 -89 49 -89 55.5 -91 c 128,-1,28
 62 -93 62 -93 72 -93 c 2,29,-1
 80 -93 l 2,0,1
EndSplineSet
EndChar
StartChar: tilde
Encoding: 732 732 209
Width: 216
Flags: W
Fore
231 398 m 0,0,1
 217 398 217 398 208.5 406 c 128,-1,2
 200 414 200 414 193 423.5 c 128,-1,3
 186 433 186 433 179 441 c 128,-1,4
 172 449 172 449 161 449 c 0,5,6
 151 449 151 449 141 439.5 c 128,-1,7
 131 430 131 430 127 414 c 1,8,-1
 93 414 l 1,9,10
 98 434 98 434 107 447 c 128,-1,11
 116 460 116 460 127 467.5 c 128,-1,12
 138 475 138 475 149.5 477.5 c 128,-1,13
 161 480 161 480 172 480 c 0,14,15
 189 480 189 480 199 472 c 128,-1,16
 209 464 209 464 216 454.5 c 128,-1,17
 223 445 223 445 229 437 c 128,-1,18
 235 429 235 429 244 429 c 0,19,20
 254 429 254 429 264 438.5 c 128,-1,21
 274 448 274 448 277 464 c 1,22,-1
 311 464 l 1,23,24
 306 444 306 444 297.5 431 c 128,-1,25
 289 418 289 418 278 410.5 c 128,-1,26
 267 403 267 403 255 400.5 c 128,-1,27
 243 398 243 398 231 398 c 0,0,1
EndSplineSet
EndChar
StartChar: uni0E01
Encoding: 3585 3585 212
Width: 394
Flags: W
Fore
356 296 m 1,0,1
 361 319 361 319 348 337.5 c 128,-1,2
 335 356 335 356 313 356 c 2,3,-1
 250 356 l 2,4,5
 235 356 235 356 218.5 349.5 c 128,-1,6
 202 343 202 343 187 332 c 128,-1,7
 172 321 172 321 159.5 307.5 c 128,-1,8
 147 294 147 294 139 280 c 1,9,10
 156 264 156 264 159.5 245 c 128,-1,11
 163 226 163 226 158 207 c 2,12,-1
 115 0 l 1,13,-1
 70 0 l 1,14,-1
 113 207 l 2,15,16
 118 225 118 225 108 241.5 c 128,-1,17
 98 258 98 258 81 260 c 1,18,19
 90 288 90 288 108.5 313 c 128,-1,20
 127 338 127 338 151.5 356.5 c 128,-1,21
 176 375 176 375 204.5 385.5 c 128,-1,22
 233 396 233 396 261 396 c 2,23,-1
 322 396 l 2,24,25
 341 396 341 396 357.5 387.5 c 128,-1,26
 374 379 374 379 385 365.5 c 128,-1,27
 396 352 396 352 400.5 333.5 c 128,-1,28
 405 315 405 315 401 296 c 2,29,-1
 339 0 l 1,30,-1
 294 0 l 1,31,-1
 356 296 l 1,32,-1
 356 296 l 1,0,1
EndSplineSet
EndChar
StartChar: uni0E02
Encoding: 3586 3586 213
Width: 371
Flags: W
Fore
220 40 m 1,0,-1
 235 40 l 2,1,2
 254 42 254 42 272.5 57 c 128,-1,3
 291 72 291 72 296 94 c 2,4,-1
 361 396 l 1,5,-1
 406 396 l 1,6,-1
 343 101 l 2,7,8
 339 82 339 82 327.5 64 c 128,-1,9
 316 46 316 46 300 32 c 128,-1,10
 284 18 284 18 265 9.5 c 128,-1,11
 246 1 246 1 227 1 c 2,12,-1
 210 1 l 2,13,14
 193 1 193 1 182.5 14.5 c 128,-1,15
 172 28 172 28 176 46 c 2,16,-1
 210 204 l 2,17,18
 212 214 212 214 216 222.5 c 128,-1,19
 220 231 220 231 224 240 c 128,-1,20
 228 249 228 249 232 259.5 c 128,-1,21
 236 270 236 270 239 284 c 0,22,23
 244 316 244 316 230 340.5 c 128,-1,24
 216 365 216 365 186 365 c 0,25,26
 174 365 174 365 161.5 359 c 128,-1,27
 149 353 149 353 138 341 c 1,28,29
 143 342 143 342 148 342.5 c 128,-1,30
 153 343 153 343 158 343 c 0,31,32
 183 343 183 343 198 324.5 c 128,-1,33
 213 306 213 306 208 280 c 0,34,35
 203 255 203 255 180 236 c 128,-1,36
 157 217 157 217 132 217 c 0,37,38
 100 217 100 217 87 241 c 128,-1,39
 74 265 74 265 80 294 c 0,40,41
 83 307 83 307 88.5 320 c 128,-1,42
 94 333 94 333 102 344 c 0,43,44
 120 368 120 368 145 382 c 128,-1,45
 170 396 170 396 198 396 c 0,46,47
 244 395 244 395 263 363.5 c 128,-1,48
 282 332 282 332 272 285 c 2,49,-1
 220 40 l 1,0,-1
110 280 m 256,50,51
 107 266 107 266 115.5 255.5 c 128,-1,52
 124 245 124 245 138 245 c 0,53,54
 151 245 151 245 163.5 255.5 c 128,-1,55
 176 266 176 266 179 280 c 256,56,57
 182 294 182 294 174 304.5 c 128,-1,58
 166 315 166 315 152 315 c 256,59,60
 138 315 138 315 125.5 304.5 c 128,-1,61
 113 294 113 294 110 280 c 256,50,51
EndSplineSet
EndChar
StartChar: uni0E03
Encoding: 3587 3587 214
Width: 382
Flags: W
Fore
350 101 m 2,0,1
 346 82 346 82 334.5 64 c 128,-1,2
 323 46 323 46 307 31.5 c 128,-1,3
 291 17 291 17 272 8.5 c 128,-1,4
 253 0 253 0 234 0 c 2,5,-1
 217 0 l 2,6,7
 200 0 200 0 189.5 13.5 c 128,-1,8
 179 27 179 27 183 45 c 2,9,-1
 222 230 l 2,10,11
 224 241 224 241 233.5 250.5 c 128,-1,12
 243 260 243 260 254 271 c 0,13,14
 264 281 264 281 273.5 294.5 c 128,-1,15
 283 308 283 308 286 323 c 0,16,17
 290 342 290 342 278 359 c 1,18,-1
 216 288 l 1,19,-1
 180 361 l 1,20,21
 161 360 161 360 140 347.5 c 128,-1,22
 119 335 119 335 111 315 c 1,23,24
 128 325 128 325 144 325 c 0,25,26
 167 325 167 325 181 307.5 c 128,-1,27
 195 290 195 290 190 264 c 0,28,29
 187 252 187 252 179.5 242 c 128,-1,30
 172 232 172 232 162 224 c 128,-1,31
 152 216 152 216 140 211.5 c 128,-1,32
 128 207 128 207 117 207 c 0,33,34
 101 207 101 207 90.5 214 c 128,-1,35
 80 221 80 221 74.5 233 c 128,-1,36
 69 245 69 245 68 259.5 c 128,-1,37
 67 274 67 274 70 289 c 0,38,39
 75 311 75 311 88 331 c 128,-1,40
 101 351 101 351 119 365 c 128,-1,41
 137 379 137 379 159 387.5 c 128,-1,42
 181 396 181 396 203 396 c 1,43,-1
 227 341 l 1,44,-1
 277 396 l 1,45,46
 305 389 305 389 314.5 366.5 c 128,-1,47
 324 344 324 344 318 317 c 0,48,49
 310 282 310 282 283 253 c 0,50,51
 278 247 278 247 273 240.5 c 128,-1,52
 268 234 268 234 265 221 c 2,53,-1
 227 40 l 1,54,-1
 242 40 l 2,55,56
 261 42 261 42 279.5 57 c 128,-1,57
 298 72 298 72 303 94 c 2,58,-1
 368 396 l 1,59,-1
 413 396 l 1,60,-1
 350 101 l 2,0,1
138 300 m 0,61,62
 127 300 127 300 114 290.5 c 128,-1,63
 101 281 101 281 98 267 c 0,64,65
 96 254 96 254 103 244 c 128,-1,66
 110 234 110 234 124 234 c 0,67,68
 137 234 137 234 149.5 244.5 c 128,-1,69
 162 255 162 255 164 267 c 0,70,71
 167 281 167 281 159 290.5 c 128,-1,72
 151 300 151 300 138 300 c 0,61,62
EndSplineSet
EndChar
StartChar: uni0E04
Encoding: 3588 3588 215
Width: 421
Flags: W
Fore
353 396 m 2,0,1
 396 396 396 396 419 368 c 128,-1,2
 442 340 442 340 432 296 c 2,3,-1
 370 0 l 1,4,-1
 325 0 l 1,5,-1
 387 296 l 2,6,7
 392 318 392 318 379.5 337 c 128,-1,8
 367 356 367 356 344 356 c 2,9,-1
 275 356 l 2,10,11
 256 356 256 356 236 346.5 c 128,-1,12
 216 337 216 337 198.5 321.5 c 128,-1,13
 181 306 181 306 168 287 c 128,-1,14
 155 268 155 268 151 249 c 2,15,-1
 114 74 l 1,16,-1
 196 217 l 2,17,18
 207 237 207 237 226 249.5 c 128,-1,19
 245 262 245 262 266 262 c 0,20,21
 294 262 294 262 308 242.5 c 128,-1,22
 322 223 322 223 317 198 c 0,23,24
 311 172 311 172 287.5 153.5 c 128,-1,25
 264 135 264 135 239 135 c 0,26,27
 213 135 213 135 198 152 c 1,28,-1
 112 0 l 1,29,-1
 54 0 l 1,30,-1
 106 249 l 2,31,32
 112 276 112 276 129.5 302.5 c 128,-1,33
 147 329 147 329 171.5 349.5 c 128,-1,34
 196 370 196 370 224.5 383 c 128,-1,35
 253 396 253 396 281 396 c 2,36,-1
 353 396 l 2,0,1
218 198 m 0,37,38
 214 183 214 183 222.5 173.5 c 128,-1,39
 231 164 231 164 245 164 c 0,40,41
 258 164 258 164 271.5 174 c 128,-1,42
 285 184 285 184 288 198 c 256,43,44
 291 212 291 212 282.5 222.5 c 128,-1,45
 274 233 274 233 260 233 c 256,46,47
 246 233 246 233 233.5 222.5 c 128,-1,48
 221 212 221 212 218 198 c 0,37,38
EndSplineSet
EndChar
StartChar: uni0E05
Encoding: 3589 3589 216
Width: 424
Flags: W
Fore
370 0 m 1,0,-1
 325 0 l 1,1,-1
 388 297 l 2,2,3
 392 316 392 316 383 331 c 128,-1,4
 374 346 374 346 357 351 c 1,5,-1
 299 292 l 1,6,-1
 256 349 l 1,7,8
 239 345 239 345 221.5 335.5 c 128,-1,9
 204 326 204 326 190 312.5 c 128,-1,10
 176 299 176 299 165.5 283 c 128,-1,11
 155 267 155 267 152 250 c 2,12,-1
 114 74 l 1,13,-1
 197 218 l 2,14,15
 208 237 208 237 227 250 c 128,-1,16
 246 263 246 263 267 263 c 0,17,18
 292 263 292 263 307.5 244 c 128,-1,19
 323 225 323 225 318 199 c 0,20,21
 315 186 315 186 307.5 174.5 c 128,-1,22
 300 163 300 163 289 154 c 128,-1,23
 278 145 278 145 265 140 c 128,-1,24
 252 135 252 135 240 135 c 0,25,26
 214 135 214 135 199 153 c 1,27,-1
 112 0 l 1,28,-1
 54 0 l 1,29,-1
 107 250 l 2,30,31
 113 277 113 277 129.5 302 c 128,-1,32
 146 327 146 327 169 347.5 c 128,-1,33
 192 368 192 368 219.5 381 c 128,-1,34
 247 394 247 394 274 396 c 1,35,-1
 310 348 l 1,36,-1
 360 396 l 1,37,38
 379 395 379 395 394 387 c 128,-1,39
 409 379 409 379 419 365.5 c 128,-1,40
 429 352 429 352 433 334.5 c 128,-1,41
 437 317 437 317 433 297 c 2,42,-1
 370 0 l 1,0,-1
219 199 m 256,43,44
 216 185 216 185 224 174.5 c 128,-1,45
 232 164 232 164 246 164 c 0,46,47
 259 164 259 164 272.5 174.5 c 128,-1,48
 286 185 286 185 289 199 c 256,49,50
 292 213 292 213 283.5 223.5 c 128,-1,51
 275 234 275 234 261 234 c 256,52,53
 247 234 247 234 234.5 223.5 c 128,-1,54
 222 213 222 213 219 199 c 256,43,44
EndSplineSet
EndChar
StartChar: uni0E06
Encoding: 3590 3590 217
Width: 474
Flags: W
Fore
189 107 m 2,0,1
 172 107 172 107 158.5 95.5 c 128,-1,2
 145 84 145 84 142 70 c 0,3,4
 138 53 138 53 151 41.5 c 128,-1,5
 164 30 164 30 181 30 c 1,6,-1
 197 107 l 1,7,-1
 189 107 l 2,0,1
250 145 m 1,8,9
 273 139 273 139 295 130 c 128,-1,10
 317 121 317 121 335 109.5 c 128,-1,11
 353 98 353 98 367 85 c 128,-1,12
 381 72 381 72 388 59 c 1,13,-1
 460 396 l 1,14,-1
 505 396 l 1,15,-1
 421 0 l 1,16,-1
 376 0 l 1,17,18
 356 42 356 42 321 67 c 128,-1,19
 286 92 286 92 241 103 c 1,20,-1
 226 30 l 1,21,22
 215 16 215 16 204 8 c 128,-1,23
 193 0 193 0 167 0 c 0,24,25
 140 0 140 0 123 21 c 128,-1,26
 106 42 106 42 111 70 c 0,27,28
 114 84 114 84 122.5 96.5 c 128,-1,29
 131 109 131 109 143 118.5 c 128,-1,30
 155 128 155 128 168.5 133.5 c 128,-1,31
 182 139 182 139 196 139 c 2,32,-1
 204 139 l 1,33,-1
 223 230 l 2,34,35
 225 241 225 241 234.5 250.5 c 128,-1,36
 244 260 244 260 255 271 c 0,37,38
 265 281 265 281 274.5 294.5 c 128,-1,39
 284 308 284 308 287 323 c 0,40,41
 291 342 291 342 279 359 c 1,42,-1
 217 288 l 1,43,-1
 181 361 l 1,44,45
 162 360 162 360 141 347.5 c 128,-1,46
 120 335 120 335 112 315 c 1,47,48
 129 325 129 325 145 325 c 0,49,50
 168 325 168 325 182 307.5 c 128,-1,51
 196 290 196 290 191 264 c 0,52,53
 188 252 188 252 180.5 242 c 128,-1,54
 173 232 173 232 163 224 c 128,-1,55
 153 216 153 216 141 211.5 c 128,-1,56
 129 207 129 207 118 207 c 0,57,58
 102 207 102 207 91.5 214 c 128,-1,59
 81 221 81 221 75.5 233 c 128,-1,60
 70 245 70 245 69 259.5 c 128,-1,61
 68 274 68 274 71 289 c 0,62,63
 76 311 76 311 89 331 c 128,-1,64
 102 351 102 351 120 365 c 128,-1,65
 138 379 138 379 160 387.5 c 128,-1,66
 182 396 182 396 204 396 c 1,67,-1
 228 341 l 1,68,-1
 278 396 l 1,69,70
 306 389 306 389 315.5 366.5 c 128,-1,71
 325 344 325 344 319 317 c 0,72,73
 311 282 311 282 284 253 c 0,74,75
 279 247 279 247 274 240.5 c 128,-1,76
 269 234 269 234 266 221 c 2,77,-1
 250 145 l 1,8,9
139 300 m 0,78,79
 128 300 128 300 115 290.5 c 128,-1,80
 102 281 102 281 99 267 c 0,81,82
 97 254 97 254 104 244 c 128,-1,83
 111 234 111 234 125 234 c 0,84,85
 138 234 138 234 150.5 244.5 c 128,-1,86
 163 255 163 255 165 267 c 0,87,88
 168 281 168 281 160 290.5 c 128,-1,89
 152 300 152 300 139 300 c 0,78,79
EndSplineSet
EndChar
StartChar: uni0E07
Encoding: 3591 3591 218
Width: 343
Flags: W
Fore
290 0 m 1,0,-1
 245 0 l 2,1,2
 219 0 219 0 201 12 c 0,3,4
 191 17 191 17 183 27.5 c 128,-1,5
 175 38 175 38 170 49 c 2,6,-1
 79 260 l 1,7,-1
 131 260 l 1,8,-1
 218 58 l 1,9,10
 223 50 223 50 232.5 45 c 128,-1,11
 242 40 242 40 253 40 c 1,12,-1
 302 271 l 1,13,14
 293 268 293 268 283 268 c 0,15,16
 257 268 257 268 242.5 287 c 128,-1,17
 228 306 228 306 233 332 c 0,18,19
 239 358 239 358 262 376.5 c 128,-1,20
 285 395 285 395 311 395 c 0,21,22
 335 395 335 395 350.5 377 c 128,-1,23
 366 359 366 359 360 334 c 2,24,-1
 290 0 l 1,0,-1
305 367 m 256,25,26
 291 367 291 367 278 356.5 c 128,-1,27
 265 346 265 346 262 332 c 0,28,29
 259 319 259 319 267.5 308 c 128,-1,30
 276 297 276 297 290 297 c 256,31,32
 304 297 304 297 316 308 c 128,-1,33
 328 319 328 319 331 332 c 0,34,35
 334 346 334 346 326.5 356.5 c 128,-1,36
 319 367 319 367 305 367 c 256,25,26
EndSplineSet
EndChar
StartChar: uni0E08
Encoding: 3592 3592 219
Width: 384
Flags: W
Fore
346 295 m 2,0,1
 351 317 351 317 338.5 336.5 c 128,-1,2
 326 356 326 356 304 356 c 2,3,-1
 242 356 l 2,4,5
 205 356 205 356 175.5 332 c 128,-1,6
 146 308 146 308 127 278 c 1,7,-1
 86 293 l 1,8,9
 113 336 113 336 157 365.5 c 128,-1,10
 201 395 201 395 251 396 c 2,11,-1
 315 396 l 2,12,13
 335 396 335 396 351 387.5 c 128,-1,14
 367 379 367 379 377 365 c 128,-1,15
 387 351 387 351 391 332.5 c 128,-1,16
 395 314 395 314 391 295 c 2,17,-1
 349 97 l 2,18,19
 345 79 345 79 333.5 61.5 c 128,-1,20
 322 44 322 44 306.5 30.5 c 128,-1,21
 291 17 291 17 272 8.5 c 128,-1,22
 253 0 253 0 235 0 c 2,23,-1
 190 0 l 1,24,-1
 218 136 l 1,25,26
 220 136 220 136 213.5 135 c 128,-1,27
 207 134 207 134 200 134 c 0,28,29
 174 134 174 134 159 153 c 128,-1,30
 144 172 144 172 150 198 c 0,31,32
 155 224 155 224 178 242.5 c 128,-1,33
 201 261 201 261 227 261 c 256,34,35
 253 261 253 261 267.5 242 c 128,-1,36
 282 223 282 223 277 198 c 2,37,-1
 243 40 l 1,38,39
 263 42 263 42 281.5 60.5 c 128,-1,40
 300 79 300 79 305 100 c 2,41,-1
 346 295 l 2,0,1
221 232 m 256,42,43
 207 232 207 232 194 222 c 128,-1,44
 181 212 181 212 179 198 c 0,45,46
 176 185 176 185 184 174 c 128,-1,47
 192 163 192 163 206 163 c 256,48,49
 220 163 220 163 233 173.5 c 128,-1,50
 246 184 246 184 249 198 c 256,51,52
 252 212 252 212 243.5 222 c 128,-1,53
 235 232 235 232 221 232 c 256,42,43
EndSplineSet
EndChar
StartChar: uni0E09
Encoding: 3593 3593 220
Width: 405
Flags: W
Fore
260 356 m 2,0,1
 240 356 240 356 219 346 c 128,-1,2
 198 336 198 336 180 320 c 128,-1,3
 162 304 162 304 149 283.5 c 128,-1,4
 136 263 136 263 132 243 c 1,5,-1
 86 243 l 1,6,7
 93 273 93 273 111 300.5 c 128,-1,8
 129 328 129 328 154 349 c 128,-1,9
 179 370 179 370 209 383 c 128,-1,10
 239 396 239 396 269 396 c 2,11,-1
 336 396 l 2,12,13
 356 396 356 396 372 387.5 c 128,-1,14
 388 379 388 379 398.5 365 c 128,-1,15
 409 351 409 351 413 332.5 c 128,-1,16
 417 314 417 314 413 294 c 2,17,-1
 380 137 l 1,18,19
 401 128 401 128 409.5 110 c 128,-1,20
 418 92 418 92 413 72 c 0,21,22
 407 43 407 43 382.5 21.5 c 128,-1,23
 358 0 358 0 326 0 c 0,24,25
 298 0 298 0 282.5 21 c 128,-1,26
 267 42 267 42 272 70 c 1,27,-1
 149 0 l 1,28,-1
 104 0 l 1,29,-1
 124 95 l 1,30,31
 119 94 119 94 115 93.5 c 128,-1,32
 111 93 111 93 107 93 c 0,33,34
 82 93 82 93 67 111 c 128,-1,35
 52 129 52 129 57 155 c 0,36,37
 63 181 63 181 86 199 c 128,-1,38
 109 217 109 217 134 217 c 0,39,40
 158 217 158 217 172.5 199 c 128,-1,41
 187 181 187 181 182 157 c 2,42,-1
 159 50 l 1,43,-1
 337 149 l 1,44,-1
 368 294 l 2,45,46
 373 317 373 317 361 336 c 128,-1,47
 349 355 349 355 325 356 c 2,48,-1
 260 356 l 2,0,1
85 155 m 0,49,50
 82 141 82 141 90.5 131 c 128,-1,51
 99 121 99 121 113 121 c 256,52,53
 127 121 127 121 139.5 131 c 128,-1,54
 152 141 152 141 154 155 c 0,55,56
 157 169 157 169 149.5 179.5 c 128,-1,57
 142 190 142 190 128 190 c 256,58,59
 114 190 114 190 101.5 180 c 128,-1,60
 89 170 89 170 85 155 c 0,49,50
351 109 m 256,61,62
 335 109 335 109 321.5 97 c 128,-1,63
 308 85 308 85 304 70 c 0,64,65
 301 54 301 54 310 43 c 128,-1,66
 319 32 319 32 335 32 c 0,67,68
 350 32 350 32 364 43 c 128,-1,69
 378 54 378 54 381 70 c 0,70,71
 385 87 385 87 376 98 c 128,-1,72
 367 109 367 109 351 109 c 256,61,62
EndSplineSet
EndChar
StartChar: uni0E0A
Encoding: 3594 3594 221
Width: 374
Flags: W
Fore
110 280 m 256,0,1
 107 266 107 266 115.5 255.5 c 128,-1,2
 124 245 124 245 138 245 c 0,3,4
 151 245 151 245 163.5 255.5 c 128,-1,5
 176 266 176 266 179 280 c 256,6,7
 182 294 182 294 174 304.5 c 128,-1,8
 166 315 166 315 152 315 c 256,9,10
 138 315 138 315 125.5 304.5 c 128,-1,11
 113 294 113 294 110 280 c 256,0,1
220 40 m 1,12,-1
 235 40 l 2,13,14
 254 42 254 42 273 57.5 c 128,-1,15
 292 73 292 73 297 95 c 2,16,-1
 329 245 l 2,17,18
 330 251 330 251 325 257 c 128,-1,19
 320 263 320 263 312.5 267.5 c 128,-1,20
 305 272 305 272 296 275 c 128,-1,21
 287 278 287 278 280 278 c 1,22,-1
 284 298 l 1,23,24
 314 308 314 308 335 322 c 128,-1,25
 356 336 356 336 370.5 355 c 128,-1,26
 385 374 385 374 395 398 c 128,-1,27
 405 422 405 422 414 454 c 1,28,-1
 459 454 l 1,29,30
 450 428 450 428 440 402 c 128,-1,31
 430 376 430 376 416 354 c 128,-1,32
 402 332 402 332 382.5 314.5 c 128,-1,33
 363 297 363 297 334 287 c 1,34,35
 345 284 345 284 358.5 272.5 c 128,-1,36
 372 261 372 261 375 251 c 1,37,-1
 343 101 l 2,38,39
 339 82 339 82 327.5 64 c 128,-1,40
 316 46 316 46 300 31.5 c 128,-1,41
 284 17 284 17 265 8.5 c 128,-1,42
 246 0 246 0 227 0 c 2,43,-1
 210 0 l 2,44,45
 193 0 193 0 182.5 13.5 c 128,-1,46
 172 27 172 27 176 45 c 2,47,-1
 210 204 l 2,48,49
 212 214 212 214 216 222.5 c 128,-1,50
 220 231 220 231 224 240 c 128,-1,51
 228 249 228 249 232 259.5 c 128,-1,52
 236 270 236 270 239 284 c 0,53,54
 244 316 244 316 230 340.5 c 128,-1,55
 216 365 216 365 186 365 c 0,56,57
 174 365 174 365 161.5 359 c 128,-1,58
 149 353 149 353 138 341 c 1,59,60
 143 342 143 342 148 342.5 c 128,-1,61
 153 343 153 343 158 343 c 0,62,63
 183 343 183 343 198 324.5 c 128,-1,64
 213 306 213 306 208 280 c 0,65,66
 203 255 203 255 180 236 c 128,-1,67
 157 217 157 217 132 217 c 0,68,69
 100 217 100 217 87 241 c 128,-1,70
 74 265 74 265 80 294 c 0,71,72
 83 307 83 307 88.5 320 c 128,-1,73
 94 333 94 333 102 344 c 0,74,75
 120 368 120 368 145 382 c 128,-1,76
 170 396 170 396 198 396 c 0,77,78
 244 395 244 395 263 363.5 c 128,-1,79
 282 332 282 332 272 285 c 2,80,-1
 220 40 l 1,12,-1
EndSplineSet
EndChar
StartChar: uni0E0B
Encoding: 3595 3595 222
Width: 380
Flags: W
Fore
221 230 m 2,0,1
 223 241 223 241 232.5 250.5 c 128,-1,2
 242 260 242 260 253 271 c 0,3,4
 263 281 263 281 272.5 294.5 c 128,-1,5
 282 308 282 308 285 323 c 0,6,7
 289 342 289 342 277 359 c 1,8,-1
 215 288 l 1,9,-1
 179 361 l 1,10,11
 160 360 160 360 139 347.5 c 128,-1,12
 118 335 118 335 110 315 c 1,13,14
 127 325 127 325 143 325 c 0,15,16
 166 325 166 325 180 307.5 c 128,-1,17
 194 290 194 290 189 264 c 0,18,19
 186 252 186 252 178.5 242 c 128,-1,20
 171 232 171 232 161 224 c 128,-1,21
 151 216 151 216 139 211.5 c 128,-1,22
 127 207 127 207 116 207 c 0,23,24
 100 207 100 207 89.5 214 c 128,-1,25
 79 221 79 221 73.5 233 c 128,-1,26
 68 245 68 245 67 259.5 c 128,-1,27
 66 274 66 274 69 289 c 0,28,29
 74 311 74 311 87 331 c 128,-1,30
 100 351 100 351 118 365 c 128,-1,31
 136 379 136 379 158 387.5 c 128,-1,32
 180 396 180 396 202 396 c 1,33,-1
 226 341 l 1,34,-1
 276 396 l 1,35,36
 304 389 304 389 313.5 366.5 c 128,-1,37
 323 344 323 344 317 317 c 0,38,39
 309 282 309 282 282 253 c 0,40,41
 277 247 277 247 272 240.5 c 128,-1,42
 267 234 267 234 264 221 c 2,43,-1
 226 40 l 1,44,-1
 241 40 l 2,45,46
 260 42 260 42 279 57.5 c 128,-1,47
 298 73 298 73 303 95 c 2,48,-1
 335 248 l 1,49,50
 335 260 335 260 319 271 c 0,51,52
 317 273 317 273 316 273 c 1,53,54
 320 283 320 283 323 294 c 0,55,56
 324 299 324 299 324.5 305.5 c 128,-1,57
 325 312 325 312 325 319 c 1,58,59
 349 331 349 331 364 343.5 c 128,-1,60
 379 356 379 356 389 372 c 128,-1,61
 399 388 399 388 406 408.5 c 128,-1,62
 413 429 413 429 421 457 c 1,63,-1
 465 457 l 1,64,65
 456 432 456 432 448 407.5 c 128,-1,66
 440 383 440 383 427.5 361.5 c 128,-1,67
 415 340 415 340 396.5 323 c 128,-1,68
 378 306 378 306 349 296 c 1,69,70
 385 274 385 274 382 256 c 2,71,-1
 349 101 l 2,72,73
 345 82 345 82 333.5 64 c 128,-1,74
 322 46 322 46 306 31.5 c 128,-1,75
 290 17 290 17 271 8.5 c 128,-1,76
 252 0 252 0 233 0 c 2,77,-1
 216 0 l 2,78,79
 199 0 199 0 188.5 13.5 c 128,-1,80
 178 27 178 27 182 45 c 2,81,-1
 221 230 l 2,0,1
137 300 m 0,82,83
 126 300 126 300 113 290.5 c 128,-1,84
 100 281 100 281 97 267 c 0,85,86
 95 254 95 254 102 244 c 128,-1,87
 109 234 109 234 123 234 c 0,88,89
 136 234 136 234 148.5 244.5 c 128,-1,90
 161 255 161 255 163 267 c 0,91,92
 166 281 166 281 158 290.5 c 128,-1,93
 150 300 150 300 137 300 c 0,82,83
EndSplineSet
EndChar
StartChar: uni0E0C
Encoding: 3596 3596 223
Width: 567
Flags: W
Fore
512 0 m 1,0,-1
 468 0 l 1,1,2
 444 31 444 31 417.5 56 c 128,-1,3
 391 81 391 81 356 93 c 1,4,-1
 341 23 l 1,5,6
 330 14 330 14 317 7.5 c 128,-1,7
 304 1 304 1 291 1 c 0,8,9
 261 1 261 1 244 20.5 c 128,-1,10
 227 40 227 40 233 68 c 0,11,12
 239 98 239 98 263 117 c 128,-1,13
 287 136 287 136 319 136 c 1,14,-1
 353 296 l 2,15,16
 358 319 358 319 345.5 337.5 c 128,-1,17
 333 356 333 356 311 356 c 2,18,-1
 248 356 l 2,19,20
 233 356 233 356 216.5 349.5 c 128,-1,21
 200 343 200 343 185 332 c 128,-1,22
 170 321 170 321 157.5 307.5 c 128,-1,23
 145 294 145 294 137 280 c 1,24,25
 154 264 154 264 157.5 245 c 128,-1,26
 161 226 161 226 156 207 c 2,27,-1
 139 125 l 1,28,29
 144 126 144 126 148 126.5 c 128,-1,30
 152 127 152 127 157 127 c 0,31,32
 182 127 182 127 197 108.5 c 128,-1,33
 212 90 212 90 207 65 c 0,34,35
 202 39 202 39 179.5 20 c 128,-1,36
 157 1 157 1 131 1 c 0,37,38
 108 1 108 1 92.5 16 c 128,-1,39
 77 31 77 31 79 53 c 2,40,-1
 111 207 l 2,41,42
 116 225 116 225 106 241.5 c 128,-1,43
 96 258 96 258 79 260 c 1,44,45
 88 288 88 288 106.5 313 c 128,-1,46
 125 338 125 338 149.5 356.5 c 128,-1,47
 174 375 174 375 202.5 385.5 c 128,-1,48
 231 396 231 396 259 396 c 2,49,-1
 320 396 l 2,50,51
 339 396 339 396 355.5 387.5 c 128,-1,52
 372 379 372 379 383 365.5 c 128,-1,53
 394 352 394 352 398.5 333.5 c 128,-1,54
 403 315 403 315 399 296 c 2,55,-1
 364 130 l 1,56,57
 399 118 399 118 428.5 97.5 c 128,-1,58
 458 77 458 77 478 48 c 1,59,-1
 552 396 l 1,60,-1
 596 396 l 1,61,-1
 512 0 l 1,0,-1
109 65 m 0,62,63
 106 51 106 51 114.5 40.5 c 128,-1,64
 123 30 123 30 137 30 c 256,65,66
 151 30 151 30 163 40.5 c 128,-1,67
 175 51 175 51 178 65 c 0,68,69
 181 78 181 78 173 88 c 128,-1,70
 165 98 165 98 151 98 c 256,71,72
 137 98 137 98 124.5 87.5 c 128,-1,73
 112 77 112 77 109 65 c 0,62,63
263 68 m 256,74,75
 259 51 259 51 269.5 41.5 c 128,-1,76
 280 32 280 32 297 32 c 1,77,-1
 313 105 l 1,78,79
 296 105 296 105 281.5 95 c 128,-1,80
 267 85 267 85 263 68 c 256,74,75
EndSplineSet
EndChar
StartChar: uni0E0D
Encoding: 3597 3597 224
Width: 571
Flags: W
Fore
144 126 m 1,0,1
 154 129 154 129 163 129 c 0,2,3
 186 129 186 129 202.5 111 c 128,-1,4
 219 93 219 93 213 65 c 0,5,6
 210 52 210 52 202.5 40 c 128,-1,7
 195 28 195 28 184.5 19 c 128,-1,8
 174 10 174 10 161.5 5 c 128,-1,9
 149 0 149 0 136 0 c 0,10,11
 111 0 111 0 95 17 c 128,-1,12
 79 34 79 34 84 55 c 2,13,-1
 116 207 l 2,14,15
 121 225 121 225 110.5 241.5 c 128,-1,16
 100 258 100 258 83 260 c 1,17,18
 92 288 92 288 110.5 313 c 128,-1,19
 129 338 129 338 153.5 356.5 c 128,-1,20
 178 375 178 375 206.5 385.5 c 128,-1,21
 235 396 235 396 263 396 c 2,22,-1
 325 396 l 2,23,24
 344 396 344 396 360.5 387.5 c 128,-1,25
 377 379 377 379 388 365.5 c 128,-1,26
 399 352 399 352 403.5 333.5 c 128,-1,27
 408 315 408 315 404 296 c 2,28,-1
 350 40 l 1,29,-1
 428 40 l 2,30,31
 450 42 450 42 470.5 60.5 c 128,-1,32
 491 79 491 79 496 102 c 2,33,-1
 559 396 l 1,34,-1
 604 396 l 1,35,-1
 541 102 l 2,36,37
 537 82 537 82 525 63.5 c 128,-1,38
 513 45 513 45 496.5 31 c 128,-1,39
 480 17 480 17 460.5 8.5 c 128,-1,40
 441 0 441 0 420 0 c 2,41,-1
 343 0 l 2,42,43
 325 0 325 0 314.5 14 c 128,-1,44
 304 28 304 28 306 45 c 2,45,-1
 359 296 l 2,46,47
 364 319 364 319 351 337.5 c 128,-1,48
 338 356 338 356 316 356 c 2,49,-1
 252 356 l 2,50,51
 237 356 237 356 220.5 349.5 c 128,-1,52
 204 343 204 343 189 332 c 128,-1,53
 174 321 174 321 161.5 307.5 c 128,-1,54
 149 294 149 294 141 280 c 1,55,56
 158 264 158 264 161.5 245 c 128,-1,57
 165 226 165 226 161 207 c 2,58,-1
 144 126 l 1,0,1
157 101 m 256,59,60
 143 101 143 101 131 90.5 c 128,-1,61
 119 80 119 80 117 66 c 0,62,63
 113 52 113 52 120.5 41.5 c 128,-1,64
 128 31 128 31 142 31 c 256,65,66
 156 31 156 31 168.5 41.5 c 128,-1,67
 181 52 181 52 185 66 c 0,68,69
 187 80 187 80 179 90.5 c 128,-1,70
 171 101 171 101 157 101 c 256,59,60
378 -85 m 0,71,72
 375 -100 375 -100 364 -111 c 128,-1,73
 353 -122 353 -122 343 -129 c 1,74,75
 355 -132 355 -132 365 -132 c 0,76,77
 383 -132 383 -132 401.5 -125 c 128,-1,78
 420 -118 420 -118 436.5 -106 c 128,-1,79
 453 -94 453 -94 466 -77.5 c 128,-1,80
 479 -61 479 -61 487 -43 c 1,81,-1
 522 -43 l 1,82,83
 512 -68 512 -68 494 -90.5 c 128,-1,84
 476 -113 476 -113 453 -129.5 c 128,-1,85
 430 -146 430 -146 404 -155.5 c 128,-1,86
 378 -165 378 -165 352 -165 c 0,87,88
 332 -165 332 -165 313.5 -160 c 128,-1,89
 295 -155 295 -155 281 -145 c 128,-1,90
 267 -135 267 -135 260.5 -120 c 128,-1,91
 254 -105 254 -105 258 -85 c 0,92,93
 261 -73 261 -73 268 -62.5 c 128,-1,94
 275 -52 275 -52 285 -43.5 c 128,-1,95
 295 -35 295 -35 307 -30 c 128,-1,96
 319 -25 319 -25 331 -25 c 0,97,98
 356 -25 356 -25 370 -42 c 128,-1,99
 384 -59 384 -59 378 -85 c 0,71,72
325 -52 m 0,100,101
 311 -52 311 -52 299.5 -61.5 c 128,-1,102
 288 -71 288 -71 285 -85 c 0,103,104
 283 -98 283 -98 290 -108 c 128,-1,105
 297 -118 297 -118 311 -118 c 256,106,107
 325 -118 325 -118 337 -108 c 128,-1,108
 349 -98 349 -98 351 -85 c 0,109,110
 354 -71 354 -71 346 -61.5 c 128,-1,111
 338 -52 338 -52 325 -52 c 0,100,101
EndSplineSet
Substitution: 0 65534 'L026' uni0E0D.alt1
Substitution: 0 65534 'L026' uni0E0D.alt1
EndChar
StartChar: uni0E0E
Encoding: 3598 3598 225
Width: 408
Flags: W
Fore
163 60 m 2,0,1
 158 35 158 35 135.5 17.5 c 128,-1,2
 113 0 113 0 88 0 c 0,3,4
 62 0 62 0 47.5 19 c 128,-1,5
 33 38 33 38 38 63 c 0,6,7
 43 89 43 89 65.5 107.5 c 128,-1,8
 88 126 88 126 114 126 c 0,9,10
 119 126 119 126 123 126 c 128,-1,11
 127 126 127 126 132 124 c 1,12,-1
 149 206 l 2,13,14
 151 214 151 214 147 223.5 c 128,-1,15
 143 233 143 233 135.5 241.5 c 128,-1,16
 128 250 128 250 117.5 256 c 128,-1,17
 107 262 107 262 96 263 c 1,18,19
 105 291 105 291 123.5 315.5 c 128,-1,20
 142 340 142 340 166.5 358 c 128,-1,21
 191 376 191 376 219.5 386 c 128,-1,22
 248 396 248 396 276 396 c 2,23,-1
 337 396 l 2,24,25
 356 396 356 396 372.5 387.5 c 128,-1,26
 389 379 389 379 400 365.5 c 128,-1,27
 411 352 411 352 415.5 333.5 c 128,-1,28
 420 315 420 315 416 296 c 2,29,-1
 333 -97 l 1,30,31
 308 -132 308 -132 278 -158.5 c 128,-1,32
 248 -185 248 -185 211 -200 c 1,33,-1
 155 -151 l 1,34,35
 144 -171 144 -171 124.5 -183 c 128,-1,36
 105 -195 105 -195 85 -195 c 0,37,38
 61 -195 61 -195 45.5 -176 c 128,-1,39
 30 -157 30 -157 36 -131 c 0,40,41
 41 -105 41 -105 64 -86.5 c 128,-1,42
 87 -68 87 -68 112 -68 c 0,43,44
 136 -68 136 -68 156 -86 c 2,45,-1
 223 -148 l 1,46,47
 255 -135 255 -135 289 -90 c 1,48,-1
 371 296 l 2,49,50
 376 319 376 319 363 337.5 c 128,-1,51
 350 356 350 356 328 356 c 2,52,-1
 265 356 l 2,53,54
 250 356 250 356 234 350 c 128,-1,55
 218 344 218 344 203 333.5 c 128,-1,56
 188 323 188 323 175.5 310 c 128,-1,57
 163 297 163 297 155 283 c 1,58,59
 163 280 163 280 171.5 272.5 c 128,-1,60
 180 265 180 265 186 254.5 c 128,-1,61
 192 244 192 244 194.5 231.5 c 128,-1,62
 197 219 197 219 194 206 c 2,63,-1
 163 60 l 2,0,1
67 63 m 256,64,65
 64 49 64 49 72.5 39 c 128,-1,66
 81 29 81 29 94 29 c 0,67,68
 108 29 108 29 120.5 39 c 128,-1,69
 133 49 133 49 136 63 c 0,70,71
 139 78 139 78 130.5 87.5 c 128,-1,72
 122 97 122 97 108 97 c 256,73,74
 94 97 94 97 82 87 c 128,-1,75
 70 77 70 77 67 63 c 256,64,65
65 -131 m 0,76,77
 62 -145 62 -145 70 -155.5 c 128,-1,78
 78 -166 78 -166 91 -166 c 0,79,80
 105 -166 105 -166 118 -155.5 c 128,-1,81
 131 -145 131 -145 134 -131 c 256,82,83
 137 -117 137 -117 130 -107 c 128,-1,84
 123 -97 123 -97 106 -97 c 0,85,86
 92 -97 92 -97 79.5 -107 c 128,-1,87
 67 -117 67 -117 65 -131 c 0,76,77
EndSplineSet
Substitution: 0 65534 'L026' uni0E0E.alt1
Substitution: 0 65534 'L026' uni0E0E.alt1
EndChar
StartChar: uni0E0F
Encoding: 3599 3599 226
Width: 407
Flags: W
Fore
333 -98 m 2,0,1
 330 -110 330 -110 324.5 -122 c 128,-1,2
 319 -134 319 -134 310 -145 c 0,3,4
 299 -157 299 -157 281 -170 c 128,-1,5
 263 -183 263 -183 234 -200 c 1,6,-1
 202 -123 l 1,7,-1
 141 -200 l 1,8,-1
 117 -156 l 1,9,10
 106 -170 106 -170 89.5 -179 c 128,-1,11
 73 -188 73 -188 56 -188 c 0,12,13
 30 -188 30 -188 15 -169 c 128,-1,14
 0 -150 0 -150 5 -124 c 0,15,16
 11 -98 11 -98 34 -79 c 128,-1,17
 57 -60 57 -60 83 -60 c 0,18,19
 112 -60 112 -60 128 -84 c 1,20,-1
 155 -141 l 1,21,-1
 217 -63 l 1,22,-1
 251 -141 l 1,23,24
 258 -137 258 -137 263.5 -133 c 128,-1,25
 269 -129 269 -129 274 -124 c 0,26,27
 283 -116 283 -116 288 -98 c 2,28,-1
 371 296 l 2,29,30
 376 319 376 319 363 337.5 c 128,-1,31
 350 356 350 356 328 356 c 2,32,-1
 265 356 l 2,33,34
 250 356 250 356 234 350 c 128,-1,35
 218 344 218 344 203 333.5 c 128,-1,36
 188 323 188 323 175.5 310 c 128,-1,37
 163 297 163 297 155 283 c 1,38,39
 172 276 172 276 186 254.5 c 128,-1,40
 200 233 200 233 194 207 c 2,41,-1
 163 60 l 2,42,43
 158 35 158 35 135.5 17.5 c 128,-1,44
 113 0 113 0 88 0 c 256,45,46
 63 0 63 0 48 18.5 c 128,-1,47
 33 37 33 37 38 63 c 0,48,49
 43 88 43 88 66 107 c 128,-1,50
 89 126 89 126 114 126 c 0,51,52
 119 126 119 126 123.5 126 c 128,-1,53
 128 126 128 126 132 124 c 1,54,-1
 149 206 l 2,55,56
 151 214 151 214 147 223.5 c 128,-1,57
 143 233 143 233 135.5 241.5 c 128,-1,58
 128 250 128 250 117.5 256 c 128,-1,59
 107 262 107 262 96 263 c 1,60,61
 105 291 105 291 123.5 315.5 c 128,-1,62
 142 340 142 340 166.5 358 c 128,-1,63
 191 376 191 376 219.5 386 c 128,-1,64
 248 396 248 396 276 396 c 2,65,-1
 337 396 l 2,66,67
 356 396 356 396 372.5 387.5 c 128,-1,68
 389 379 389 379 400 365.5 c 128,-1,69
 411 352 411 352 415.5 333.5 c 128,-1,70
 420 315 420 315 416 296 c 2,71,-1
 333 -98 l 2,0,1
67 63 m 0,72,73
 64 49 64 49 72.5 39 c 128,-1,74
 81 29 81 29 94 29 c 0,75,76
 109 29 109 29 121 39 c 128,-1,77
 133 49 133 49 136 63 c 256,78,79
 139 77 139 77 130.5 87 c 128,-1,80
 122 97 122 97 108 97 c 0,81,82
 94 96 94 96 82 86 c 128,-1,83
 70 76 70 76 67 63 c 0,72,73
34 -124 m 0,84,85
 32 -137 32 -137 40 -148 c 128,-1,86
 48 -159 48 -159 62 -159 c 256,87,88
 76 -159 76 -159 88.5 -148.5 c 128,-1,89
 101 -138 101 -138 104 -124 c 256,90,91
 107 -110 107 -110 99 -99.5 c 128,-1,92
 91 -89 91 -89 77 -89 c 256,93,94
 63 -89 63 -89 50 -99.5 c 128,-1,95
 37 -110 37 -110 34 -124 c 0,84,85
EndSplineSet
Substitution: 0 65534 'L026' uni0E0F.alt1
Substitution: 0 65534 'L026' uni0E0F.alt1
EndChar
StartChar: uni0E10
Encoding: 3600 3600 227
Width: 357
Flags: W
Fore
302 101 m 2,0,1
 297 82 297 82 286 64 c 128,-1,2
 275 46 275 46 259.5 32 c 128,-1,3
 244 18 244 18 225 9 c 128,-1,4
 206 0 206 0 185 0 c 2,5,-1
 140 0 l 1,6,-1
 159 92 l 1,7,8
 150 89 150 89 140 89 c 0,9,10
 114 89 114 89 99.5 108.5 c 128,-1,11
 85 128 85 128 90 154 c 0,12,13
 93 167 93 167 100.5 178.5 c 128,-1,14
 108 190 108 190 119 199 c 128,-1,15
 130 208 130 208 142.5 213.5 c 128,-1,16
 155 219 155 219 168 219 c 0,17,18
 194 219 194 219 208.5 200.5 c 128,-1,19
 223 182 223 182 217 154 c 2,20,-1
 193 40 l 1,21,22
 213 42 213 42 232 58 c 128,-1,23
 251 74 251 74 256 95 c 2,24,-1
 280 209 l 1,25,26
 216 252 216 252 84 272 c 1,27,28
 89 297 89 297 102.5 323.5 c 128,-1,29
 116 350 116 350 139 367 c 0,30,31
 157 380 157 380 176.5 388 c 128,-1,32
 196 396 196 396 216 396 c 0,33,34
 232 396 232 396 247 391.5 c 128,-1,35
 262 387 262 387 276 381.5 c 128,-1,36
 290 376 290 376 304.5 371 c 128,-1,37
 319 366 319 366 335 364 c 0,38,39
 353 364 353 364 371 373 c 128,-1,40
 389 382 389 382 412 400 c 1,41,-1
 403 358 l 1,42,43
 385 341 385 341 367 334.5 c 128,-1,44
 349 328 349 328 331 328 c 0,45,46
 314 328 314 328 299 333 c 128,-1,47
 284 338 284 338 269.5 344 c 128,-1,48
 255 350 255 350 239.5 355 c 128,-1,49
 224 360 224 360 208 360 c 0,50,51
 197 360 197 360 185 354.5 c 128,-1,52
 173 349 173 349 162.5 340 c 128,-1,53
 152 331 152 331 144.5 320 c 128,-1,54
 137 309 137 309 135 299 c 1,55,56
 188 291 188 291 236 273.5 c 128,-1,57
 284 256 284 256 329 227 c 1,58,-1
 302 101 l 2,0,1
264 -126 m 2,59,60
 252 -177 252 -177 179 -199 c 1,61,-1
 150 -125 l 1,62,-1
 79 -199 l 1,63,-1
 64 -152 l 1,64,65
 41 -178 41 -178 11 -178 c 0,66,67
 -15 -178 -15 -178 -31 -158.5 c 128,-1,68
 -47 -139 -47 -139 -42 -113 c 0,69,70
 -36 -87 -36 -87 -13 -68 c 128,-1,71
 10 -49 10 -49 36 -49 c 0,72,73
 51 -49 51 -49 63 -55 c 128,-1,74
 75 -61 75 -61 81 -73 c 1,75,-1
 99 -141 l 1,76,-1
 161 -75 l 1,77,-1
 198 -159 l 1,78,79
 226 -147 226 -147 232 -122 c 2,80,-1
 236 -100 l 1,81,82
 230 -102 230 -102 224 -102 c 0,83,84
 205 -102 205 -102 194.5 -88 c 128,-1,85
 184 -74 184 -74 189 -55 c 0,86,87
 193 -36 193 -36 209.5 -22.5 c 128,-1,88
 226 -9 226 -9 244 -9 c 0,89,90
 261 -9 261 -9 272 -22 c 128,-1,91
 283 -35 283 -35 279 -55 c 2,92,-1
 264 -126 l 2,59,60
-12 -113 m 0,93,94
 -15 -127 -15 -127 -7 -138 c 128,-1,95
 1 -149 1 -149 15 -149 c 0,96,97
 30 -149 30 -149 42 -138 c 128,-1,98
 54 -127 54 -127 57 -113 c 0,99,100
 61 -99 61 -99 52.5 -88.5 c 128,-1,101
 44 -78 44 -78 30 -78 c 256,102,103
 16 -78 16 -78 4 -88.5 c 128,-1,104
 -8 -99 -8 -99 -12 -113 c 0,93,94
147 119 m 256,105,106
 161 119 161 119 173.5 129.5 c 128,-1,107
 186 140 186 140 189 154 c 256,108,109
 192 168 192 168 184 178.5 c 128,-1,110
 176 189 176 189 162 189 c 256,111,112
 148 189 148 189 135 178.5 c 128,-1,113
 122 168 122 168 119 154 c 0,114,115
 117 141 117 141 125 130 c 128,-1,116
 133 119 133 119 147 119 c 256,105,106
209 -55 m 256,117,118
 207 -65 207 -65 212 -73 c 128,-1,119
 217 -81 217 -81 228 -81 c 0,120,121
 238 -81 238 -81 247 -74 c 128,-1,122
 256 -67 256 -67 258 -57 c 0,123,124
 261 -46 261 -46 255.5 -38 c 128,-1,125
 250 -30 250 -30 239 -30 c 256,126,127
 228 -30 228 -30 219.5 -37.5 c 128,-1,128
 211 -45 211 -45 209 -55 c 256,117,118
EndSplineSet
Substitution: 0 65534 'L026' uni0E10.alt1
Substitution: 0 65534 'L026' uni0E10.alt1
EndChar
StartChar: uni0E11
Encoding: 3601 3601 228
Width: 518
Flags: W
Fore
245 116 m 1,0,-1
 432 396 l 1,1,2
 453 396 453 396 472.5 389 c 128,-1,3
 492 382 492 382 506 368.5 c 128,-1,4
 520 355 520 355 526.5 336 c 128,-1,5
 533 317 533 317 528 294 c 2,6,-1
 466 0 l 1,7,-1
 421 0 l 1,8,-1
 483 294 l 2,9,10
 487 312 487 312 478 327.5 c 128,-1,11
 469 343 469 343 450 347 c 1,12,-1
 221 0 l 1,13,-1
 176 0 l 1,14,-1
 224 230 l 2,15,16
 226 241 226 241 235.5 250.5 c 128,-1,17
 245 260 245 260 256 271 c 0,18,19
 266 281 266 281 275.5 294.5 c 128,-1,20
 285 308 285 308 288 323 c 0,21,22
 292 342 292 342 280 359 c 1,23,-1
 218 288 l 1,24,-1
 182 361 l 1,25,26
 163 360 163 360 142 347.5 c 128,-1,27
 121 335 121 335 113 315 c 1,28,29
 130 325 130 325 146 325 c 0,30,31
 169 325 169 325 183 307.5 c 128,-1,32
 197 290 197 290 192 264 c 0,33,34
 189 252 189 252 181.5 242 c 128,-1,35
 174 232 174 232 164 224 c 128,-1,36
 154 216 154 216 142 211.5 c 128,-1,37
 130 207 130 207 119 207 c 0,38,39
 103 207 103 207 92.5 214 c 128,-1,40
 82 221 82 221 76.5 233 c 128,-1,41
 71 245 71 245 70 259.5 c 128,-1,42
 69 274 69 274 72 289 c 0,43,44
 77 311 77 311 90 331 c 128,-1,45
 103 351 103 351 121 365 c 128,-1,46
 139 379 139 379 161 387.5 c 128,-1,47
 183 396 183 396 205 396 c 1,48,-1
 229 341 l 1,49,-1
 279 396 l 1,50,51
 307 389 307 389 316.5 366.5 c 128,-1,52
 326 344 326 344 320 317 c 0,53,54
 312 282 312 282 285 253 c 0,55,56
 280 247 280 247 275.5 242.5 c 128,-1,57
 271 238 271 238 268 225 c 2,58,-1
 245 116 l 1,0,-1
140 300 m 0,59,60
 129 300 129 300 116 290.5 c 128,-1,61
 103 281 103 281 100 267 c 0,62,63
 98 254 98 254 105 244 c 128,-1,64
 112 234 112 234 126 234 c 0,65,66
 139 234 139 234 151.5 244.5 c 128,-1,67
 164 255 164 255 166 267 c 0,68,69
 169 281 169 281 161 290.5 c 128,-1,70
 153 300 153 300 140 300 c 0,59,60
EndSplineSet
EndChar
StartChar: uni0E12
Encoding: 3602 3602 229
Width: 598
Flags: W
Fore
108 35 m 1,0,1
 140 39 140 39 173.5 61.5 c 128,-1,2
 207 84 207 84 230 116 c 1,3,4
 222 114 222 114 217 114 c 0,5,6
 191 114 191 114 176 133 c 128,-1,7
 161 152 161 152 166 178 c 0,8,9
 172 204 172 204 195 223 c 128,-1,10
 218 242 218 242 244 242 c 0,11,12
 269 242 269 242 284 223 c 128,-1,13
 299 204 299 204 293 178 c 0,14,15
 286 145 286 145 265 113 c 128,-1,16
 244 81 244 81 215.5 56 c 128,-1,17
 187 31 187 31 154 15.5 c 128,-1,18
 121 0 121 0 91 0 c 2,19,-1
 56 0 l 1,20,-1
 108 247 l 2,21,22
 114 274 114 274 131 300.5 c 128,-1,23
 148 327 148 327 171 348 c 128,-1,24
 194 369 194 369 221.5 382.5 c 128,-1,25
 249 396 249 396 276 396 c 1,26,-1
 309 347 l 1,27,-1
 359 396 l 1,28,29
 397 395 397 395 418 365.5 c 128,-1,30
 439 336 439 336 430 295 c 2,31,-1
 395 130 l 1,32,33
 466 108 466 108 510 48 c 1,34,-1
 584 396 l 1,35,-1
 629 396 l 1,36,-1
 545 0 l 1,37,-1
 500 0 l 1,38,39
 475 32 475 32 449.5 57.5 c 128,-1,40
 424 83 424 83 387 94 c 1,41,-1
 372 23 l 1,42,43
 361 12 361 12 346.5 6 c 128,-1,44
 332 0 332 0 319 0 c 0,45,46
 292 0 292 0 275.5 20.5 c 128,-1,47
 259 41 259 41 265 69 c 0,48,49
 268 82 268 82 276 94.5 c 128,-1,50
 284 107 284 107 295.5 116.5 c 128,-1,51
 307 126 307 126 320 131.5 c 128,-1,52
 333 137 333 137 346 137 c 2,53,-1
 352 137 l 1,54,-1
 385 295 l 2,55,56
 389 313 389 313 380.5 328 c 128,-1,57
 372 343 372 343 355 348 c 1,58,-1
 297 290 l 1,59,-1
 255 347 l 1,60,61
 220 338 220 338 190.5 310 c 128,-1,62
 161 282 161 282 153 247 c 2,63,-1
 108 35 l 1,0,1
197 178 m 256,64,65
 194 164 194 164 201.5 153.5 c 128,-1,66
 209 143 209 143 223 143 c 256,67,68
 237 143 237 143 249 153.5 c 128,-1,69
 261 164 261 164 264 178 c 256,70,71
 267 192 267 192 259.5 202.5 c 128,-1,72
 252 213 252 213 238 213 c 256,73,74
 224 213 224 213 212 202.5 c 128,-1,75
 200 192 200 192 197 178 c 256,64,65
295 69 m 1,76,77
 293 53 293 53 302.5 42.5 c 128,-1,78
 312 32 312 32 329 32 c 1,79,-1
 345 106 l 1,80,-1
 340 106 l 2,81,82
 326 106 326 106 312.5 94.5 c 128,-1,83
 299 83 299 83 295 69 c 1,76,77
EndSplineSet
EndChar
StartChar: uni0E13
Encoding: 3603 3603 230
Width: 569
Flags: W
Fore
139 125 m 1,0,1
 144 127 144 127 149 127.5 c 128,-1,2
 154 128 154 128 159 128 c 0,3,4
 184 128 184 128 198.5 109 c 128,-1,5
 213 90 213 90 208 64 c 0,6,7
 205 52 205 52 197.5 40.5 c 128,-1,8
 190 29 190 29 179.5 20 c 128,-1,9
 169 11 169 11 156.5 5.5 c 128,-1,10
 144 0 144 0 132 0 c 0,11,12
 109 0 109 0 93 15 c 128,-1,13
 77 30 77 30 79 53 c 2,14,-1
 111 207 l 2,15,16
 116 225 116 225 106 241.5 c 128,-1,17
 96 258 96 258 79 260 c 1,18,19
 88 288 88 288 106.5 313 c 128,-1,20
 125 338 125 338 149.5 356.5 c 128,-1,21
 174 375 174 375 202.5 385.5 c 128,-1,22
 231 396 231 396 259 396 c 2,23,-1
 320 396 l 2,24,25
 339 396 339 396 355.5 387.5 c 128,-1,26
 372 379 372 379 383 365.5 c 128,-1,27
 394 352 394 352 398.5 333.5 c 128,-1,28
 403 315 403 315 399 296 c 2,29,-1
 347 49 l 1,30,31
 362 62 362 62 381.5 76 c 128,-1,32
 401 90 401 90 422 103 c 128,-1,33
 443 116 443 116 463 126 c 128,-1,34
 483 136 483 136 500 142 c 1,35,-1
 554 396 l 1,36,-1
 599 396 l 1,37,-1
 543 136 l 1,38,39
 562 129 562 129 572 110.5 c 128,-1,40
 582 92 582 92 577 69 c 0,41,42
 574 55 574 55 565.5 42.5 c 128,-1,43
 557 30 557 30 545.5 20.5 c 128,-1,44
 534 11 534 11 520 5.5 c 128,-1,45
 506 0 506 0 493 0 c 0,46,47
 464 0 464 0 448 21 c 128,-1,48
 432 42 432 42 437 70 c 2,49,-1
 439 77 l 1,50,51
 397 52 397 52 337 0 c 1,52,-1
 292 0 l 1,53,-1
 354 296 l 2,54,55
 359 319 359 319 346 337.5 c 128,-1,56
 333 356 333 356 311 356 c 2,57,-1
 248 356 l 2,58,59
 233 356 233 356 216.5 349.5 c 128,-1,60
 200 343 200 343 185 332 c 128,-1,61
 170 321 170 321 157.5 307.5 c 128,-1,62
 145 294 145 294 137 280 c 1,63,64
 154 264 154 264 157.5 245 c 128,-1,65
 161 226 161 226 156 206 c 2,66,-1
 139 125 l 1,0,1
110 64 m 0,67,68
 107 51 107 51 115 40 c 128,-1,69
 123 29 123 29 138 29 c 0,70,71
 152 29 152 29 164 40 c 128,-1,72
 176 51 176 51 179 64 c 0,73,74
 182 78 182 78 174 88.5 c 128,-1,75
 166 99 166 99 153 99 c 0,76,77
 139 99 139 99 126 88.5 c 128,-1,78
 113 78 113 78 110 64 c 0,67,68
545 70 m 0,79,80
 549 85 549 85 539.5 96.5 c 128,-1,81
 530 108 530 108 514 108 c 0,82,83
 499 108 499 108 485.5 96.5 c 128,-1,84
 472 85 472 85 468 70 c 0,85,86
 465 56 465 56 473.5 44 c 128,-1,87
 482 32 482 32 499 32 c 0,88,89
 514 32 514 32 528 44 c 128,-1,90
 542 56 542 56 545 70 c 0,79,80
EndSplineSet
EndChar
StartChar: uni0E14
Encoding: 3604 3604 231
Width: 424
Flags: W
Fore
235 117 m 0,0,1
 250 117 250 117 262.5 127 c 128,-1,2
 275 137 275 137 278 151 c 256,3,4
 281 165 281 165 272.5 176 c 128,-1,5
 264 187 264 187 250 187 c 256,6,7
 236 187 236 187 223 176 c 128,-1,8
 210 165 210 165 208 152 c 0,9,10
 205 138 205 138 213 127.5 c 128,-1,11
 221 117 221 117 235 117 c 0,0,1
229 90 m 1,12,13
 200 90 200 90 187.5 108.5 c 128,-1,14
 175 127 175 127 180 152 c 256,15,16
 185 177 185 177 208 196 c 128,-1,17
 231 215 231 215 256 215 c 0,18,19
 279 215 279 215 294 196.5 c 128,-1,20
 309 178 309 178 304 152 c 0,21,22
 298 124 298 124 276 96.5 c 128,-1,23
 254 69 254 69 224.5 47.5 c 128,-1,24
 195 26 195 26 162 13 c 128,-1,25
 129 0 129 0 100 0 c 2,26,-1
 54 0 l 1,27,-1
 106 245 l 2,28,29
 112 274 112 274 130.5 301.5 c 128,-1,30
 149 329 149 329 174.5 350 c 128,-1,31
 200 371 200 371 230.5 383.5 c 128,-1,32
 261 396 261 396 290 396 c 2,33,-1
 353 396 l 2,34,35
 373 396 373 396 389.5 388 c 128,-1,36
 406 380 406 380 416.5 366 c 128,-1,37
 427 352 427 352 431.5 333.5 c 128,-1,38
 436 315 436 315 432 294 c 2,39,-1
 370 0 l 1,40,-1
 324 0 l 1,41,-1
 387 297 l 2,42,43
 389 307 389 307 386.5 318 c 128,-1,44
 384 329 384 329 378 337 c 128,-1,45
 372 345 372 345 363 350.5 c 128,-1,46
 354 356 354 356 344 356 c 2,47,-1
 279 356 l 2,48,49
 258 356 258 356 237.5 346 c 128,-1,50
 217 336 217 336 199 320 c 128,-1,51
 181 304 181 304 168 283.5 c 128,-1,52
 155 263 155 263 151 243 c 2,53,-1
 107 35 l 1,54,55
 136 35 136 35 169.5 50.5 c 128,-1,56
 203 66 203 66 229 90 c 1,12,13
EndSplineSet
EndChar
StartChar: uni0E15
Encoding: 3605 3605 232
Width: 423
Flags: W
Fore
387 295 m 2,0,1
 391 312 391 312 382.5 326.5 c 128,-1,2
 374 341 374 341 355 346 c 1,3,-1
 297 288 l 1,4,-1
 255 345 l 1,5,6
 237 341 237 341 220 331 c 128,-1,7
 203 321 203 321 188.5 307.5 c 128,-1,8
 174 294 174 294 164 277.5 c 128,-1,9
 154 261 154 261 150 243 c 2,10,-1
 106 35 l 1,11,12
 119 35 119 35 136 39 c 128,-1,13
 153 43 153 43 169.5 50 c 128,-1,14
 186 57 186 57 201.5 67 c 128,-1,15
 217 77 217 77 228 88 c 1,16,17
 197 90 197 90 186 109.5 c 128,-1,18
 175 129 175 129 180 151 c 0,19,20
 185 177 185 177 207.5 195.5 c 128,-1,21
 230 214 230 214 256 214 c 256,22,23
 282 214 282 214 295.5 195.5 c 128,-1,24
 309 177 309 177 304 152 c 0,25,26
 298 122 298 122 276 94.5 c 128,-1,27
 254 67 254 67 224.5 46 c 128,-1,28
 195 25 195 25 162 12.5 c 128,-1,29
 129 0 129 0 99 0 c 2,30,-1
 54 0 l 1,31,-1
 105 243 l 2,32,33
 111 271 111 271 129 298 c 128,-1,34
 147 325 147 325 171 347 c 128,-1,35
 195 369 195 369 223 382.5 c 128,-1,36
 251 396 251 396 277 396 c 1,37,-1
 310 349 l 1,38,-1
 359 397 l 1,39,40
 376 394 376 394 391 384.5 c 128,-1,41
 406 375 406 375 416.5 361.5 c 128,-1,42
 427 348 427 348 431.5 331 c 128,-1,43
 436 314 436 314 432 295 c 2,44,-1
 370 0 l 1,45,-1
 325 0 l 1,46,-1
 387 295 l 2,0,1
209 151 m 0,47,48
 206 138 206 138 213.5 127.5 c 128,-1,49
 221 117 221 117 235 117 c 256,50,51
 249 117 249 117 262 127 c 128,-1,52
 275 137 275 137 278 151 c 256,53,54
 281 165 281 165 272.5 175.5 c 128,-1,55
 264 186 264 186 250 186 c 256,56,57
 236 186 236 186 223.5 175.5 c 128,-1,58
 211 165 211 165 209 151 c 0,47,48
EndSplineSet
EndChar
StartChar: uni0E16
Encoding: 3606 3606 233
Width: 393
Flags: W
Fore
112 64 m 0,0,1
 109 50 109 50 117 39 c 128,-1,2
 125 28 125 28 139 28 c 256,3,4
 153 28 153 28 165.5 38.5 c 128,-1,5
 178 49 178 49 181 64 c 0,6,7
 184 77 184 77 176 87.5 c 128,-1,8
 168 98 168 98 154 98 c 256,9,10
 140 98 140 98 127.5 87 c 128,-1,11
 115 76 115 76 112 64 c 0,0,1
339 0 m 1,12,-1
 294 0 l 1,13,-1
 356 296 l 2,14,15
 361 319 361 319 348 337.5 c 128,-1,16
 335 356 335 356 313 356 c 2,17,-1
 250 356 l 2,18,19
 235 356 235 356 218.5 349.5 c 128,-1,20
 202 343 202 343 187 332 c 128,-1,21
 172 321 172 321 159.5 307.5 c 128,-1,22
 147 294 147 294 139 280 c 1,23,24
 156 264 156 264 159.5 245 c 128,-1,25
 163 226 163 226 158 206 c 2,26,-1
 141 124 l 1,27,28
 146 126 146 126 150.5 126 c 128,-1,29
 155 126 155 126 160 126 c 0,30,31
 185 126 185 126 200.5 106.5 c 128,-1,32
 216 87 216 87 211 64 c 0,33,34
 205 37 205 37 182.5 18.5 c 128,-1,35
 160 0 160 0 134 0 c 0,36,37
 112 0 112 0 95.5 15 c 128,-1,38
 79 30 79 30 81 52 c 2,39,-1
 113 207 l 2,40,41
 118 225 118 225 108 241.5 c 128,-1,42
 98 258 98 258 81 260 c 1,43,44
 90 288 90 288 108.5 313 c 128,-1,45
 127 338 127 338 151.5 356.5 c 128,-1,46
 176 375 176 375 204.5 385.5 c 128,-1,47
 233 396 233 396 261 396 c 2,48,-1
 322 396 l 2,49,50
 341 396 341 396 357.5 387.5 c 128,-1,51
 374 379 374 379 385 365.5 c 128,-1,52
 396 352 396 352 400.5 333.5 c 128,-1,53
 405 315 405 315 401 296 c 2,54,-1
 339 0 l 1,12,-1
EndSplineSet
EndChar
StartChar: uni0E17
Encoding: 3607 3607 234
Width: 447
Flags: W
Fore
363 396 m 1,0,1
 384 396 384 396 403.5 389 c 128,-1,2
 423 382 423 382 436.5 368.5 c 128,-1,3
 450 355 450 355 456 336 c 128,-1,4
 462 317 462 317 457 294 c 2,5,-1
 395 0 l 1,6,-1
 350 0 l 1,7,-1
 412 294 l 2,8,9
 416 312 416 312 404 327.5 c 128,-1,10
 392 343 392 343 373 347 c 1,11,-1
 150 0 l 1,12,-1
 105 0 l 1,13,-1
 163 274 l 1,14,15
 154 271 154 271 146 271 c 0,16,17
 122 271 122 271 107 289 c 128,-1,18
 92 307 92 307 97 333 c 0,19,20
 102 358 102 358 125 376 c 128,-1,21
 148 394 148 394 172 394 c 256,22,23
 196 394 196 394 211 376.5 c 128,-1,24
 226 359 226 359 220 334 c 2,25,-1
 171 99 l 1,26,-1
 363 396 l 1,0,1
166 366 m 256,27,28
 153 366 153 366 140.5 356.5 c 128,-1,29
 128 347 128 347 125 333 c 256,30,31
 122 319 122 319 130 309 c 128,-1,32
 138 299 138 299 152 299 c 256,33,34
 166 299 166 299 178 309 c 128,-1,35
 190 319 190 319 193 333 c 0,36,37
 196 346 196 346 187.5 356 c 128,-1,38
 179 366 179 366 166 366 c 256,27,28
EndSplineSet
EndChar
StartChar: uni0E18
Encoding: 3608 3608 235
Width: 347
Flags: W
Fore
160 235 m 1,0,-1
 119 40 l 1,1,-1
 202 40 l 2,2,3
 213 40 213 40 224 46 c 128,-1,4
 235 52 235 52 245 61 c 128,-1,5
 255 70 255 70 262 81 c 128,-1,6
 269 92 269 92 271 103 c 2,7,-1
 294 208 l 1,8,9
 261 229 261 229 210.5 245 c 128,-1,10
 160 261 160 261 94 272 c 1,11,12
 99 296 99 296 111.5 321 c 128,-1,13
 124 346 124 346 147 366 c 0,14,15
 184 396 184 396 227 396 c 0,16,17
 241 396 241 396 254.5 391.5 c 128,-1,18
 268 387 268 387 280.5 381 c 128,-1,19
 293 375 293 375 306 369.5 c 128,-1,20
 319 364 319 364 333 363 c 1,21,22
 351 365 351 365 370 376 c 128,-1,23
 389 387 389 387 403 401 c 1,24,-1
 394 359 l 1,25,26
 364 326 364 326 326 326 c 0,27,28
 311 326 311 326 298 330.5 c 128,-1,29
 285 335 285 335 272 341 c 128,-1,30
 259 347 259 347 245.5 351.5 c 128,-1,31
 232 356 232 356 217 356 c 0,32,33
 205 356 205 356 192.5 352.5 c 128,-1,34
 180 349 180 349 171 339 c 0,35,36
 160 328 160 328 153 320.5 c 128,-1,37
 146 313 146 313 143 301 c 1,38,39
 198 293 198 293 247.5 275 c 128,-1,40
 297 257 297 257 343 228 c 1,41,-1
 316 101 l 2,42,43
 312 81 312 81 299.5 63 c 128,-1,44
 287 45 287 45 269.5 31 c 128,-1,45
 252 17 252 17 232 8.5 c 128,-1,46
 212 0 212 0 192 0 c 2,47,-1
 112 0 l 2,48,49
 95 0 95 0 83 13 c 128,-1,50
 71 26 71 26 75 46 c 2,51,-1
 115 235 l 1,52,-1
 160 235 l 1,0,-1
EndSplineSet
EndChar
StartChar: uni0E19
Encoding: 3609 3609 236
Width: 406
Flags: W
Fore
173 396 m 256,0,1
 197 396 197 396 212 379 c 128,-1,2
 227 362 227 362 222 337 c 2,3,-1
 162 56 l 1,4,5
 178 70 178 70 198.5 84.5 c 128,-1,6
 219 99 219 99 241.5 111 c 128,-1,7
 264 123 264 123 288 131.5 c 128,-1,8
 312 140 312 140 335 142 c 1,9,-1
 389 396 l 1,10,-1
 435 396 l 1,11,-1
 380 137 l 1,12,13
 400 130 400 130 409 112 c 128,-1,14
 418 94 418 94 413 71 c 0,15,16
 406 42 406 42 381 21 c 128,-1,17
 356 0 356 0 328 0 c 256,18,19
 300 0 300 0 284 21 c 128,-1,20
 268 42 268 42 274 71 c 0,21,22
 275 76 275 76 276.5 81 c 128,-1,23
 278 86 278 86 280 91 c 1,24,25
 248 80 248 80 214 53.5 c 128,-1,26
 180 27 180 27 151 0 c 1,27,-1
 105 0 l 1,28,-1
 163 276 l 1,29,30
 158 274 158 274 147 274 c 0,31,32
 124 274 124 274 108.5 292.5 c 128,-1,33
 93 311 93 311 98 335 c 0,34,35
 103 361 103 361 126 378.5 c 128,-1,36
 149 396 149 396 173 396 c 256,0,1
167 369 m 256,37,38
 153 369 153 369 141 359 c 128,-1,39
 129 349 129 349 126 335 c 256,40,41
 123 321 123 321 131.5 311.5 c 128,-1,42
 140 302 140 302 153 302 c 0,43,44
 167 302 167 302 179 311.5 c 128,-1,45
 191 321 191 321 194 335 c 256,46,47
 197 349 197 349 189 359 c 128,-1,48
 181 369 181 369 167 369 c 256,37,38
351 109 m 0,49,50
 337 109 337 109 322.5 97 c 128,-1,51
 308 85 308 85 305 71 c 0,52,53
 301 56 301 56 310 44.5 c 128,-1,54
 319 33 319 33 335 33 c 0,55,56
 350 33 350 33 363.5 44 c 128,-1,57
 377 55 377 55 381 71 c 0,58,59
 384 88 384 88 375 98 c 128,-1,60
 366 108 366 108 351 109 c 0,49,50
EndSplineSet
EndChar
StartChar: uni0E1A
Encoding: 3610 3610 237
Width: 433
Flags: W
Fore
286 40 m 2,0,1
 307 40 307 40 328 58.5 c 128,-1,2
 349 77 349 77 354 99 c 2,3,-1
 417 396 l 1,4,-1
 462 396 l 1,5,-1
 398 96 l 2,6,7
 394 76 394 76 382 58.5 c 128,-1,8
 370 41 370 41 353.5 28 c 128,-1,9
 337 15 337 15 317.5 7.5 c 128,-1,10
 298 0 298 0 278 0 c 2,11,-1
 150 0 l 2,12,13
 133 0 133 0 123 13.5 c 128,-1,14
 113 27 113 27 117 44 c 2,15,-1
 165 269 l 1,16,17
 160 268 160 268 155.5 267.5 c 128,-1,18
 151 267 151 267 146 267 c 0,19,20
 120 267 120 267 106 286.5 c 128,-1,21
 92 306 92 306 97 332 c 0,22,23
 100 344 100 344 107.5 355.5 c 128,-1,24
 115 367 115 367 125.5 376 c 128,-1,25
 136 385 136 385 149 390.5 c 128,-1,26
 162 396 162 396 174 396 c 0,27,28
 200 396 200 396 214 376.5 c 128,-1,29
 228 357 228 357 223 331 c 2,30,-1
 161 40 l 1,31,-1
 286 40 l 2,0,1
167 366 m 0,32,33
 154 366 154 366 141.5 355.5 c 128,-1,34
 129 345 129 345 126 331 c 256,35,36
 123 317 123 317 131 307 c 128,-1,37
 139 297 139 297 153 297 c 256,38,39
 167 297 167 297 179.5 306.5 c 128,-1,40
 192 316 192 316 195 331 c 0,41,42
 198 345 198 345 189.5 355.5 c 128,-1,43
 181 366 181 366 167 366 c 0,32,33
EndSplineSet
EndChar
StartChar: uni0E1B
Encoding: 3611 3611 238
Width: 433
Flags: W
Fore
504 593 m 1,0,-1
 398 98 l 2,1,2
 394 78 394 78 382.5 60.5 c 128,-1,3
 371 43 371 43 354.5 29.5 c 128,-1,4
 338 16 338 16 318 8 c 128,-1,5
 298 0 298 0 278 0 c 2,6,-1
 155 0 l 2,7,8
 138 0 138 0 125.5 13.5 c 128,-1,9
 113 27 113 27 117 46 c 2,10,-1
 165 272 l 1,11,12
 156 269 156 269 147 269 c 0,13,14
 121 269 121 269 106 288 c 128,-1,15
 91 307 91 307 96 333 c 0,16,17
 99 345 99 345 106.5 356.5 c 128,-1,18
 114 368 114 368 125 377 c 128,-1,19
 136 386 136 386 149 391 c 128,-1,20
 162 396 162 396 174 396 c 0,21,22
 199 396 199 396 214 377.5 c 128,-1,23
 229 359 229 359 223 333 c 2,24,-1
 161 40 l 1,25,-1
 286 40 l 2,26,27
 297 40 297 40 308 45.5 c 128,-1,28
 319 51 319 51 328.5 59.5 c 128,-1,29
 338 68 338 68 345 79 c 128,-1,30
 352 90 352 90 354 101 c 2,31,-1
 459 593 l 1,32,-1
 504 593 l 1,0,-1
153 298 m 256,33,34
 167 298 167 298 179 308.5 c 128,-1,35
 191 319 191 319 194 333 c 256,36,37
 197 347 197 347 189.5 357.5 c 128,-1,38
 182 368 182 368 168 368 c 0,39,40
 155 368 155 368 141.5 357 c 128,-1,41
 128 346 128 346 125 333 c 0,42,43
 122 319 122 319 130.5 308.5 c 128,-1,44
 139 298 139 298 153 298 c 256,33,34
EndSplineSet
KernsSLIFO: 275 20 0 0 274 60 0 0 273 -20 0 0
EndChar
StartChar: uni0E1C
Encoding: 3612 3612 239
Width: 422
Flags: W
Fore
384 75 m 2,0,1
 382 65 382 65 378 52.5 c 128,-1,2
 374 40 374 40 366 29 c 128,-1,3
 358 18 358 18 346 9.5 c 128,-1,4
 334 1 334 1 316 0 c 1,5,-1
 243 137 l 1,6,-1
 100 0 l 1,7,8
 80 0 80 0 70.5 16 c 128,-1,9
 61 32 61 32 65 51 c 2,10,-1
 125 334 l 2,11,12
 131 359 131 359 154 377.5 c 128,-1,13
 177 396 177 396 202 396 c 256,14,15
 227 396 227 396 242 377 c 128,-1,16
 257 358 257 358 252 332 c 0,17,18
 249 320 249 320 241.5 308.5 c 128,-1,19
 234 297 234 297 223.5 288 c 128,-1,20
 213 279 213 279 200 274 c 128,-1,21
 187 269 187 269 175 269 c 0,22,23
 170 269 170 269 166 269 c 128,-1,24
 162 269 162 269 157 271 c 1,25,-1
 112 57 l 1,26,-1
 247 187 l 1,27,28
 260 187 260 187 267 174 c 2,29,-1
 330 60 l 1,30,31
 338 67 338 67 341 82 c 2,32,-1
 408 396 l 1,33,-1
 453 396 l 1,34,-1
 384 75 l 2,0,1
196 367 m 256,35,36
 182 367 182 367 169.5 357 c 128,-1,37
 157 347 157 347 154 332 c 0,38,39
 151 318 151 318 159 308 c 128,-1,40
 167 298 167 298 181 298 c 256,41,42
 195 298 195 298 207.5 308 c 128,-1,43
 220 318 220 318 223 332 c 256,44,45
 226 346 226 346 218 356.5 c 128,-1,46
 210 367 210 367 196 367 c 256,35,36
EndSplineSet
EndChar
StartChar: uni0E1D
Encoding: 3613 3613 240
Width: 424
Flags: W
Fore
385 76 m 2,0,1
 383 66 383 66 378.5 53.5 c 128,-1,2
 374 41 374 41 366.5 30 c 128,-1,3
 359 19 359 19 346.5 10.5 c 128,-1,4
 334 2 334 2 316 1 c 1,5,-1
 243 138 l 1,6,-1
 100 1 l 1,7,8
 80 1 80 1 70.5 17 c 128,-1,9
 61 33 61 33 66 52 c 2,10,-1
 125 334 l 2,11,12
 131 360 131 360 154 378 c 128,-1,13
 177 396 177 396 203 396 c 0,14,15
 228 396 228 396 243 377.5 c 128,-1,16
 258 359 258 359 252 333 c 0,17,18
 249 321 249 321 241.5 309.5 c 128,-1,19
 234 298 234 298 223.5 289 c 128,-1,20
 213 280 213 280 200.5 274.5 c 128,-1,21
 188 269 188 269 176 269 c 0,22,23
 166 269 166 269 157 272 c 1,24,-1
 112 58 l 1,25,-1
 247 188 l 1,26,27
 260 188 260 188 268 175 c 2,28,-1
 330 61 l 1,29,30
 335 65 335 65 337 70 c 128,-1,31
 339 75 339 75 341 83 c 2,32,-1
 450 593 l 1,33,-1
 495 593 l 1,34,-1
 385 76 l 2,0,1
197 368 m 0,35,36
 183 368 183 368 170 357.5 c 128,-1,37
 157 347 157 347 154 333 c 256,38,39
 151 319 151 319 159.5 308.5 c 128,-1,40
 168 298 168 298 182 298 c 0,41,42
 195 298 195 298 207.5 308.5 c 128,-1,43
 220 319 220 319 223 333 c 256,44,45
 226 347 226 347 218 357.5 c 128,-1,46
 210 368 210 368 197 368 c 0,35,36
EndSplineSet
KernsSLIFO: 275 20 0 0 274 60 0 0 273 -20 0 0
EndChar
StartChar: uni0E1E
Encoding: 3614 3614 241
Width: 468
Flags: W
Fore
437 100 m 2,0,1
 433 83 433 83 425 66 c 128,-1,2
 417 49 417 49 405.5 35 c 128,-1,3
 394 21 394 21 379 11 c 128,-1,4
 364 1 364 1 348 -2 c 1,5,-1
 325 295 l 1,6,7
 278 211 278 211 235 135.5 c 128,-1,8
 192 60 192 60 156 0 c 1,9,10
 136 0 136 0 123 11 c 128,-1,11
 110 22 110 22 115 44 c 2,12,-1
 164 274 l 1,13,14
 153 271 153 271 145 271 c 0,15,16
 120 271 120 271 105.5 290 c 128,-1,17
 91 309 91 309 96 334 c 0,18,19
 102 360 102 360 124.5 378 c 128,-1,20
 147 396 147 396 172 396 c 256,21,22
 197 396 197 396 212 377.5 c 128,-1,23
 227 359 227 359 221 334 c 2,24,-1
 169 85 l 1,25,-1
 343 391 l 1,26,27
 352 388 352 388 354 376 c 2,28,-1
 381 74 l 1,29,30
 386 78 386 78 387.5 84 c 128,-1,31
 389 90 389 90 391 95 c 1,32,-1
 455 396 l 1,33,-1
 500 396 l 1,34,-1
 437 100 l 2,0,1
166 368 m 256,35,36
 152 368 152 368 139.5 357.5 c 128,-1,37
 127 347 127 347 124 334 c 0,38,39
 122 322 122 322 129.5 311 c 128,-1,40
 137 300 137 300 151 300 c 256,41,42
 165 300 165 300 177.5 310.5 c 128,-1,43
 190 321 190 321 192 334 c 0,44,45
 195 348 195 348 187.5 358 c 128,-1,46
 180 368 180 368 166 368 c 256,35,36
EndSplineSet
EndChar
StartChar: uni0E1F
Encoding: 3615 3615 242
Width: 468
Flags: W
Fore
164 274 m 1,0,1
 153 271 153 271 145 271 c 0,2,3
 120 271 120 271 105.5 290 c 128,-1,4
 91 309 91 309 96 334 c 0,5,6
 102 360 102 360 124.5 378 c 128,-1,7
 147 396 147 396 172 396 c 256,8,9
 197 396 197 396 212 377.5 c 128,-1,10
 227 359 227 359 221 334 c 2,11,-1
 169 85 l 1,12,-1
 343 391 l 1,13,14
 352 388 352 388 354 376 c 2,15,-1
 381 74 l 1,16,17
 386 78 386 78 387.5 84 c 128,-1,18
 389 90 389 90 391 95 c 1,19,-1
 497 593 l 1,20,-1
 542 593 l 1,21,-1
 437 100 l 2,22,23
 433 83 433 83 425 66 c 128,-1,24
 417 49 417 49 405.5 35 c 128,-1,25
 394 21 394 21 379 11 c 128,-1,26
 364 1 364 1 348 -2 c 1,27,-1
 325 295 l 1,28,29
 278 211 278 211 235 135.5 c 128,-1,30
 192 60 192 60 156 0 c 1,31,32
 136 0 136 0 123 11 c 128,-1,33
 110 22 110 22 115 44 c 2,34,-1
 164 274 l 1,0,1
166 368 m 256,35,36
 152 368 152 368 139.5 357.5 c 128,-1,37
 127 347 127 347 124 334 c 0,38,39
 122 322 122 322 129.5 311 c 128,-1,40
 137 300 137 300 151 300 c 256,41,42
 165 300 165 300 177.5 310.5 c 128,-1,43
 190 321 190 321 192 334 c 0,44,45
 195 348 195 348 187.5 358 c 128,-1,46
 180 368 180 368 166 368 c 256,35,36
EndSplineSet
KernsSLIFO: 275 20 0 0 274 60 0 0 273 -20 0 0
EndChar
StartChar: uni0E20
Encoding: 3616 3616 243
Width: 407
Flags: W
Fore
165 60 m 2,0,1
 162 48 162 48 154.5 37 c 128,-1,2
 147 26 147 26 136.5 18 c 128,-1,3
 126 10 126 10 114 5 c 128,-1,4
 102 0 102 0 90 0 c 0,5,6
 64 0 64 0 49.5 19.5 c 128,-1,7
 35 39 35 39 40 63 c 0,8,9
 45 89 45 89 68 108 c 128,-1,10
 91 127 91 127 116 127 c 0,11,12
 125 127 125 127 134 124 c 1,13,-1
 151 206 l 2,14,15
 153 214 153 214 149 223.5 c 128,-1,16
 145 233 145 233 137 241.5 c 128,-1,17
 129 250 129 250 118.5 256 c 128,-1,18
 108 262 108 262 97 263 c 1,19,20
 106 291 106 291 124.5 315.5 c 128,-1,21
 143 340 143 340 167.5 358 c 128,-1,22
 192 376 192 376 220.5 386 c 128,-1,23
 249 396 249 396 277 396 c 2,24,-1
 338 396 l 2,25,26
 357 396 357 396 373.5 387.5 c 128,-1,27
 390 379 390 379 401 365.5 c 128,-1,28
 412 352 412 352 416.5 333.5 c 128,-1,29
 421 315 421 315 417 296 c 2,30,-1
 355 0 l 1,31,-1
 310 0 l 1,32,-1
 372 296 l 2,33,34
 377 319 377 319 364 337.5 c 128,-1,35
 351 356 351 356 329 356 c 2,36,-1
 266 356 l 2,37,38
 251 356 251 356 235 350 c 128,-1,39
 219 344 219 344 204 333.5 c 128,-1,40
 189 323 189 323 176.5 310 c 128,-1,41
 164 297 164 297 156 283 c 1,42,43
 173 276 173 276 187.5 254.5 c 128,-1,44
 202 233 202 233 196 207 c 2,45,-1
 165 60 l 2,0,1
68 63 m 0,46,47
 66 49 66 49 74 39 c 128,-1,48
 82 29 82 29 96 29 c 256,49,50
 110 29 110 29 122.5 39 c 128,-1,51
 135 49 135 49 138 63 c 256,52,53
 141 77 141 77 132.5 87.5 c 128,-1,54
 124 98 124 98 110 98 c 256,55,56
 96 98 96 98 84 87.5 c 128,-1,57
 72 77 72 77 68 63 c 0,46,47
EndSplineSet
EndChar
StartChar: uni0E21
Encoding: 3617 3617 244
Width: 414
Flags: W
Fore
446 396 m 1,0,-1
 362 0 l 1,1,-1
 317 0 l 1,2,3
 296 42 296 42 261 67 c 128,-1,4
 226 92 226 92 182 103 c 1,5,-1
 167 30 l 1,6,7
 156 16 156 16 145 8 c 128,-1,8
 134 0 134 0 108 0 c 0,9,10
 81 0 81 0 64 21 c 128,-1,11
 47 42 47 42 52 70 c 0,12,13
 55 84 55 84 63.5 96.5 c 128,-1,14
 72 109 72 109 84 118.5 c 128,-1,15
 96 128 96 128 109.5 133.5 c 128,-1,16
 123 139 123 139 137 139 c 2,17,-1
 145 139 l 1,18,-1
 174 276 l 1,19,20
 166 273 166 273 158 273 c 0,21,22
 133 273 133 273 118.5 292 c 128,-1,23
 104 311 104 311 109 335 c 0,24,25
 114 360 114 360 136 378 c 128,-1,26
 158 396 158 396 184 396 c 0,27,28
 207 396 207 396 222 378.5 c 128,-1,29
 237 361 237 361 232 337 c 2,30,-1
 189 136 l 1,31,32
 293 107 293 107 327 51 c 1,33,-1
 401 396 l 1,34,-1
 446 396 l 1,0,-1
130 107 m 2,35,36
 113 107 113 107 99.5 95.5 c 128,-1,37
 86 84 86 84 83 70 c 0,38,39
 79 53 79 53 92 41.5 c 128,-1,40
 105 30 105 30 122 30 c 1,41,-1
 138 107 l 1,42,-1
 130 107 l 2,35,36
205 335 m 256,43,44
 208 349 208 349 200 359 c 128,-1,45
 192 369 192 369 178 369 c 256,46,47
 164 369 164 369 152 359 c 128,-1,48
 140 349 140 349 137 335 c 0,49,50
 134 322 134 322 141.5 311.5 c 128,-1,51
 149 301 149 301 163 301 c 256,52,53
 177 301 177 301 189.5 311 c 128,-1,54
 202 321 202 321 205 335 c 256,43,44
EndSplineSet
EndChar
StartChar: uni0E22
Encoding: 3618 3618 245
Width: 421
Flags: W
Fore
389 95 m 2,0,1
 384 75 384 75 372.5 57.5 c 128,-1,2
 361 40 361 40 344.5 27 c 128,-1,3
 328 14 328 14 308 7 c 128,-1,4
 288 0 288 0 268 0 c 2,5,-1
 116 0 l 2,6,7
 96 0 96 0 84.5 12.5 c 128,-1,8
 73 25 73 25 75 45 c 2,9,-1
 81 73 l 2,10,11
 87 100 87 100 97 118.5 c 128,-1,12
 107 137 107 137 119 153 c 0,13,14
 125 161 125 161 133.5 168 c 128,-1,15
 142 175 142 175 156 180 c 1,16,17
 139 185 139 185 128 198.5 c 128,-1,18
 117 212 117 212 114 225 c 0,19,20
 109 252 109 252 115 282 c 0,21,22
 119 301 119 301 129.5 321 c 128,-1,23
 140 341 140 341 155.5 357.5 c 128,-1,24
 171 374 171 374 190 385 c 128,-1,25
 209 396 209 396 231 396 c 2,26,-1
 239 396 l 2,27,28
 264 396 264 396 279 377 c 128,-1,29
 294 358 294 358 289 333 c 0,30,31
 284 307 284 307 260.5 288.5 c 128,-1,32
 237 270 237 270 212 270 c 0,33,34
 195 270 195 270 181.5 278 c 128,-1,35
 168 286 168 286 162 300 c 1,36,37
 160 295 160 295 158 285 c 0,38,39
 155 271 155 271 154.5 258.5 c 128,-1,40
 154 246 154 246 159 235 c 0,41,42
 162 228 162 228 171 222 c 128,-1,43
 180 216 180 216 192 211 c 128,-1,44
 204 206 204 206 217 203 c 128,-1,45
 230 200 230 200 242 200 c 1,46,-1
 234 164 l 1,47,48
 211 164 211 164 187 155.5 c 128,-1,49
 163 147 163 147 148 125 c 0,50,51
 132 101 132 101 126 73 c 2,52,-1
 119 40 l 1,53,-1
 279 40 l 2,54,55
 300 40 300 40 319.5 57 c 128,-1,56
 339 74 339 74 344 95 c 2,57,-1
 408 396 l 1,58,-1
 453 396 l 1,59,-1
 389 95 l 2,0,1
233 368 m 256,60,61
 217 368 217 368 205.5 357.5 c 128,-1,62
 194 347 194 347 191 333 c 256,63,64
 188 319 188 319 196 308.5 c 128,-1,65
 204 298 204 298 218 298 c 256,66,67
 232 298 232 298 244.5 308.5 c 128,-1,68
 257 319 257 319 260 333 c 256,69,70
 263 347 263 347 256 357.5 c 128,-1,71
 249 368 249 368 233 368 c 256,60,61
EndSplineSet
EndChar
StartChar: uni0E23
Encoding: 3619 3619 246
Width: 357
Flags: W
Fore
245 124 m 0,0,1
 248 124 248 124 252 124 c 128,-1,2
 256 124 256 124 261 123 c 1,3,-1
 278 206 l 1,4,5
 246 227 246 227 196 242.5 c 128,-1,6
 146 258 146 258 83 269 c 1,7,8
 88 294 88 294 102 320.5 c 128,-1,9
 116 347 116 347 139 365 c 0,10,11
 179 395 179 395 224 395 c 0,12,13
 239 395 239 395 253 390.5 c 128,-1,14
 267 386 267 386 281 380.5 c 128,-1,15
 295 375 295 375 309 370 c 128,-1,16
 323 365 323 365 338 363 c 1,17,18
 369 364 369 364 412 400 c 1,19,-1
 403 358 l 1,20,21
 385 342 385 342 366.5 333 c 128,-1,22
 348 324 348 324 330 324 c 0,23,24
 314 325 314 325 300 329.5 c 128,-1,25
 286 334 286 334 271.5 339.5 c 128,-1,26
 257 345 257 345 243 349.5 c 128,-1,27
 229 354 229 354 213 354 c 0,28,29
 201 354 201 354 187.5 349.5 c 128,-1,30
 174 345 174 345 163 337 c 256,31,32
 152 329 152 329 143.5 318 c 128,-1,33
 135 307 135 307 132 295 c 1,34,35
 238 280 238 280 327 224 c 1,36,-1
 293 62 l 2,37,38
 288 37 288 37 266 18.5 c 128,-1,39
 244 0 244 0 219 0 c 256,40,41
 194 0 194 0 179 18.5 c 128,-1,42
 164 37 164 37 169 62 c 0,43,44
 171 74 171 74 179 85 c 128,-1,45
 187 96 187 96 197.5 104.5 c 128,-1,46
 208 113 208 113 220.5 118.5 c 128,-1,47
 233 124 233 124 245 124 c 0,0,1
198 62 m 0,48,49
 194 47 194 47 202 37.5 c 128,-1,50
 210 28 210 28 224 28 c 256,51,52
 238 28 238 28 250 38 c 128,-1,53
 262 48 262 48 266 62 c 0,54,55
 269 76 269 76 261 86 c 128,-1,56
 253 96 253 96 239 96 c 0,57,58
 226 96 226 96 213.5 86 c 128,-1,59
 201 76 201 76 198 62 c 0,48,49
EndSplineSet
EndChar
StartChar: uni0E24
Encoding: 3620 3620 247
Width: 393
Flags: W
Fore
114 207 m 2,0,1
 119 225 119 225 109 241.5 c 128,-1,2
 99 258 99 258 82 260 c 1,3,4
 91 288 91 288 109.5 313 c 128,-1,5
 128 338 128 338 152.5 356.5 c 128,-1,6
 177 375 177 375 205.5 385.5 c 128,-1,7
 234 396 234 396 262 396 c 2,8,-1
 323 396 l 2,9,10
 342 396 342 396 358.5 387.5 c 128,-1,11
 375 379 375 379 386 365.5 c 128,-1,12
 397 352 397 352 401.5 333.5 c 128,-1,13
 406 315 406 315 402 296 c 2,14,-1
 304 -165 l 1,15,-1
 259 -165 l 1,16,-1
 357 296 l 2,17,18
 362 319 362 319 349 337.5 c 128,-1,19
 336 356 336 356 314 356 c 2,20,-1
 251 356 l 2,21,22
 236 356 236 356 219.5 349.5 c 128,-1,23
 203 343 203 343 188 332 c 128,-1,24
 173 321 173 321 160.5 307.5 c 128,-1,25
 148 294 148 294 140 280 c 1,26,27
 157 264 157 264 160.5 245.5 c 128,-1,28
 164 227 164 227 159 207 c 2,29,-1
 142 125 l 1,30,31
 146 126 146 126 149 126.5 c 128,-1,32
 152 127 152 127 156 127 c 0,33,34
 182 127 182 127 199 109 c 128,-1,35
 216 91 216 91 210 63 c 0,36,37
 205 37 205 37 182 18.5 c 128,-1,38
 159 0 159 0 133 0 c 0,39,40
 110 0 110 0 94 17.5 c 128,-1,41
 78 35 78 35 83 60 c 2,42,-1
 114 207 l 2,0,1
112 63 m 0,43,44
 109 49 109 49 117 39 c 128,-1,45
 125 29 125 29 139 29 c 256,46,47
 153 29 153 29 165.5 39 c 128,-1,48
 178 49 178 49 181 63 c 256,49,50
 184 77 184 77 175.5 87 c 128,-1,51
 167 97 167 97 153 97 c 256,52,53
 139 97 139 97 127 86.5 c 128,-1,54
 115 76 115 76 112 63 c 0,43,44
EndSplineSet
EndChar
StartChar: uni0E25
Encoding: 3621 3621 248
Width: 399
Flags: W
Fore
345 0 m 1,0,-1
 299 0 l 1,1,-1
 324 118 l 2,2,3
 327 136 327 136 321.5 153.5 c 128,-1,4
 316 171 316 171 305.5 184.5 c 128,-1,5
 295 198 295 198 279.5 206 c 128,-1,6
 264 214 264 214 246 214 c 256,7,8
 228 214 228 214 209.5 206.5 c 128,-1,9
 191 199 191 199 175 187 c 128,-1,10
 159 175 159 175 146.5 159 c 128,-1,11
 134 143 134 143 128 125 c 1,12,13
 137 128 137 128 146 128 c 0,14,15
 170 128 170 128 185 109 c 128,-1,16
 200 90 200 90 195 64 c 256,17,18
 190 38 190 38 167 19 c 128,-1,19
 144 0 144 0 119 0 c 0,20,21
 93 0 93 0 78.5 18.5 c 128,-1,22
 64 37 64 37 68 62 c 0,23,24
 70 76 l 128,-1,25
 71 83 71 83 73 90 c 0,26,27
 80 125 80 125 96 158 c 128,-1,28
 112 191 112 191 145 215 c 0,29,30
 171 236 171 236 200 247.5 c 128,-1,31
 229 259 229 259 257 259 c 0,32,33
 286 259 286 259 306 245 c 128,-1,34
 326 231 326 231 343 204 c 1,35,-1
 362 295 l 2,36,37
 367 316 367 316 355 336 c 128,-1,38
 343 356 343 356 320 356 c 2,39,-1
 256 356 l 2,40,41
 236 356 236 356 215.5 346.5 c 128,-1,42
 195 337 195 337 177.5 321.5 c 128,-1,43
 160 306 160 306 147 286 c 128,-1,44
 134 266 134 266 128 244 c 1,45,-1
 82 244 l 1,46,47
 88 272 88 272 105.5 299.5 c 128,-1,48
 123 327 123 327 148 348.5 c 128,-1,49
 173 370 173 370 203 383 c 128,-1,50
 233 396 233 396 265 396 c 2,51,-1
 329 396 l 2,52,53
 371 396 371 396 393 366.5 c 128,-1,54
 415 337 415 337 407 295 c 2,55,-1
 345 0 l 1,0,-1
97 64 m 0,56,57
 94 50 94 50 102 39.5 c 128,-1,58
 110 29 110 29 125 29 c 0,59,60
 139 29 139 29 151 39.5 c 128,-1,61
 163 50 163 50 166 64 c 256,62,63
 169 78 169 78 162 88.5 c 128,-1,64
 155 99 155 99 138 99 c 0,65,66
 122 99 122 99 111 88 c 128,-1,67
 100 77 100 77 97 64 c 0,56,57
EndSplineSet
EndChar
StartChar: uni0E26
Encoding: 3622 3622 249
Width: 410
Flags: W
Fore
321 -165 m 1,0,-1
 276 -165 l 1,1,-1
 374 296 l 2,2,3
 379 319 379 319 366 337.5 c 128,-1,4
 353 356 353 356 331 356 c 2,5,-1
 268 356 l 2,6,7
 253 356 253 356 237 350 c 128,-1,8
 221 344 221 344 206 333.5 c 128,-1,9
 191 323 191 323 178.5 310 c 128,-1,10
 166 297 166 297 158 283 c 1,11,12
 175 276 175 276 189.5 254.5 c 128,-1,13
 204 233 204 233 198 207 c 2,14,-1
 167 61 l 2,15,16
 161 37 161 37 138.5 18.5 c 128,-1,17
 116 0 116 0 92 0 c 0,18,19
 66 0 66 0 51 19 c 128,-1,20
 36 38 36 38 41 64 c 0,21,22
 47 90 47 90 69.5 108.5 c 128,-1,23
 92 127 92 127 118 127 c 0,24,25
 130 127 130 127 136 125 c 1,26,-1
 153 206 l 2,27,28
 155 214 155 214 151 223.5 c 128,-1,29
 147 233 147 233 139 241.5 c 128,-1,30
 131 250 131 250 120.5 256 c 128,-1,31
 110 262 110 262 99 263 c 1,32,33
 108 291 108 291 126.5 315.5 c 128,-1,34
 145 340 145 340 169.5 358 c 128,-1,35
 194 376 194 376 222.5 386 c 128,-1,36
 251 396 251 396 279 396 c 2,37,-1
 340 396 l 2,38,39
 359 396 359 396 375.5 387.5 c 128,-1,40
 392 379 392 379 403 365.5 c 128,-1,41
 414 352 414 352 418.5 333.5 c 128,-1,42
 423 315 423 315 419 296 c 2,43,-1
 321 -165 l 1,0,-1
70 64 m 256,44,45
 67 50 67 50 75.5 40 c 128,-1,46
 84 30 84 30 98 30 c 256,47,48
 112 30 112 30 124 40.5 c 128,-1,49
 136 51 136 51 139 64 c 0,50,51
 142 78 142 78 134 88 c 128,-1,52
 126 98 126 98 112 98 c 256,53,54
 98 98 98 98 85.5 88 c 128,-1,55
 73 78 73 78 70 64 c 256,44,45
EndSplineSet
EndChar
StartChar: uni0E27
Encoding: 3623 3623 250
Width: 347
Flags: W
Fore
312 301 m 2,0,1
 316 318 316 318 308 336 c 128,-1,2
 300 354 300 354 280 356 c 2,3,-1
 238 356 l 2,4,5
 218 354 218 354 198 343 c 128,-1,6
 178 332 178 332 161 318 c 0,7,8
 150 309 150 309 142 299 c 128,-1,9
 134 289 134 289 127 278 c 1,10,-1
 87 293 l 1,11,12
 99 314 99 314 116.5 332.5 c 128,-1,13
 134 351 134 351 155 365 c 128,-1,14
 176 379 176 379 199.5 387 c 128,-1,15
 223 395 223 395 246 395 c 2,16,-1
 288 395 l 2,17,18
 305 394 305 394 319.5 385.5 c 128,-1,19
 334 377 334 377 343.5 364.5 c 128,-1,20
 353 352 353 352 357 335.5 c 128,-1,21
 361 319 361 319 357 301 c 2,22,-1
 307 63 l 2,23,24
 302 37 302 37 279 18.5 c 128,-1,25
 256 0 256 0 231 0 c 0,26,27
 205 0 205 0 190.5 18.5 c 128,-1,28
 176 37 176 37 181 63 c 256,29,30
 186 89 186 89 209 108 c 128,-1,31
 232 127 232 127 257 127 c 0,32,33
 266 127 266 127 275 124 c 1,34,-1
 312 301 l 2,0,1
251 98 m 256,35,36
 237 98 237 98 225 87.5 c 128,-1,37
 213 77 213 77 210 63 c 0,38,39
 207 48 207 48 214.5 38.5 c 128,-1,40
 222 29 222 29 237 29 c 0,41,42
 251 29 251 29 263.5 39 c 128,-1,43
 276 49 276 49 279 63 c 256,44,45
 282 77 282 77 273.5 87.5 c 128,-1,46
 265 98 265 98 251 98 c 256,35,36
EndSplineSet
EndChar
